<?xml version="1.0" encoding="UTF-8"?>
<svg xmlns="http://www.w3.org/2000/svg" xmlns:xlink="http://www.w3.org/1999/xlink" width="310pt" height="231pt" viewBox="0 0 310 231" version="1.1">
<defs>
<clipPath id="clip1">
  <path d="M 53.273438 13.75 L 54 13.75 L 54 183.625 L 53.273438 183.625 Z M 53.273438 13.75 "/>
</clipPath>
<clipPath id="clip2">
  <path d="M 101 13.75 L 103 13.75 L 103 183.625 L 101 183.625 Z M 101 13.75 "/>
</clipPath>
<clipPath id="clip3">
  <path d="M 150 13.75 L 152 13.75 L 152 183.625 L 150 183.625 Z M 150 13.75 "/>
</clipPath>
<clipPath id="clip4">
  <path d="M 199 13.75 L 201 13.75 L 201 183.625 L 199 183.625 Z M 199 13.75 "/>
</clipPath>
<clipPath id="clip5">
  <path d="M 247 13.75 L 250 13.75 L 250 183.625 L 247 183.625 Z M 247 13.75 "/>
</clipPath>
<clipPath id="clip6">
  <path d="M 296 13.75 L 297.398438 13.75 L 297.398438 183.625 L 296 183.625 Z M 296 13.75 "/>
</clipPath>
<clipPath id="clip7">
  <path d="M 53.273438 182 L 297.398438 182 L 297.398438 183.625 L 53.273438 183.625 Z M 53.273438 182 "/>
</clipPath>
<clipPath id="clip8">
  <path d="M 53.273438 154 L 297.398438 154 L 297.398438 157 L 53.273438 157 Z M 53.273438 154 "/>
</clipPath>
<clipPath id="clip9">
  <path d="M 53.273438 126 L 297.398438 126 L 297.398438 128 L 53.273438 128 Z M 53.273438 126 "/>
</clipPath>
<clipPath id="clip10">
  <path d="M 53.273438 97 L 297.398438 97 L 297.398438 100 L 53.273438 100 Z M 53.273438 97 "/>
</clipPath>
<clipPath id="clip11">
  <path d="M 53.273438 69 L 297.398438 69 L 297.398438 72 L 53.273438 72 Z M 53.273438 69 "/>
</clipPath>
<clipPath id="clip12">
  <path d="M 53.273438 41 L 297.398438 41 L 297.398438 43 L 53.273438 43 Z M 53.273438 41 "/>
</clipPath>
<clipPath id="clip13">
  <path d="M 53.273438 13.75 L 297.398438 13.75 L 297.398438 15 L 53.273438 15 Z M 53.273438 13.75 "/>
</clipPath>
<clipPath id="clip14">
  <path d="M 53.273438 53 L 294 53 L 294 157 L 53.273438 157 Z M 53.273438 53 "/>
</clipPath>
<clipPath id="clip15">
  <path d="M 53.273438 62 L 294 62 L 294 131 L 53.273438 131 Z M 53.273438 62 "/>
</clipPath>
<clipPath id="clip16">
  <path d="M 293 101 L 297.398438 101 L 297.398438 110 L 293 110 Z M 293 101 "/>
</clipPath>
<clipPath id="clip17">
  <path d="M 292 101 L 297.398438 101 L 297.398438 110 L 292 110 Z M 292 101 "/>
</clipPath>
<filter id="alpha" filterUnits="objectBoundingBox" x="0%" y="0%" width="100%" height="100%">
  <feColorMatrix type="matrix" in="SourceGraphic" values="0 0 0 0 1 0 0 0 0 1 0 0 0 0 1 0 0 0 1 0"/>
</filter>
<mask id="mask0">
  <g filter="url(#alpha)">
<rect x="0" y="0" width="310" height="231" style="fill:rgb(0%,0%,0%);fill-opacity:0.8;stroke:none;"/>
  </g>
</mask>
<clipPath id="clip18">
  <rect x="0" y="0" width="310" height="231"/>
</clipPath>
<g id="surface5" clip-path="url(#clip18)">
<path style="fill-rule:nonzero;fill:rgb(100%,100%,100%);fill-opacity:1;stroke-width:1;stroke-linecap:butt;stroke-linejoin:miter;stroke:rgb(80%,80%,80%);stroke-opacity:1;stroke-miterlimit:4;" d="M 173.58125 48.35625 L 230.921875 48.35625 C 232.253125 48.35625 232.921875 47.6875 232.921875 46.35625 L 232.921875 18 C 232.921875 16.665625 232.253125 16 230.921875 16 L 173.58125 16 C 172.246875 16 171.58125 16.665625 171.58125 18 L 171.58125 46.35625 C 171.58125 47.6875 172.246875 48.35625 173.58125 48.35625 Z M 173.58125 48.35625 " transform="matrix(1.25,0,0,1.25,0,0)"/>
</g>
</defs>
<g id="surface1">
<path style=" stroke:none;fill-rule:nonzero;fill:rgb(100%,100%,100%);fill-opacity:1;" d="M 53.273438 183.625 L 297.402344 183.625 L 297.402344 13.75 L 53.273438 13.75 Z M 53.273438 183.625 "/>
<g clip-path="url(#clip1)" clip-rule="nonzero">
<path style="fill:none;stroke-width:0.8;stroke-linecap:square;stroke-linejoin:round;stroke:rgb(69.019608%,69.019608%,69.019608%);stroke-opacity:1;stroke-miterlimit:4;" d="M 42.61875 146.9 L 42.61875 11 " transform="matrix(1.25,0,0,1.25,0,0)"/>
</g>
<path style="fill:none;stroke-width:0.8;stroke-linecap:butt;stroke-linejoin:round;stroke:rgb(0%,0%,0%);stroke-opacity:1;stroke-miterlimit:4;" d="M -0.001562 0.000781 L -0.001562 3.500781 " transform="matrix(1.25,0,0,1.25,53.27539,183.624024)"/>
<path style=" stroke:none;fill-rule:nonzero;fill:rgb(0%,0%,0%);fill-opacity:1;" d="M 53.269531 193.570312 C 52.636719 193.570312 52.160156 193.882812 51.839844 194.507812 C 51.519531 195.132812 51.359375 196.070312 51.359375 197.324219 C 51.359375 198.574219 51.519531 199.511719 51.839844 200.136719 C 52.160156 200.761719 52.636719 201.074219 53.269531 201.074219 C 53.910156 201.074219 54.390625 200.761719 54.707031 200.136719 C 55.027344 199.511719 55.1875 198.574219 55.1875 197.324219 C 55.1875 196.070312 55.027344 195.132812 54.707031 194.507812 C 54.390625 193.882812 53.910156 193.570312 53.269531 193.570312 Z M 53.269531 192.59375 C 54.292969 192.59375 55.074219 193 55.613281 193.808594 C 56.152344 194.613281 56.421875 195.789062 56.421875 197.324219 C 56.421875 198.859375 56.152344 200.03125 55.613281 200.839844 C 55.074219 201.644531 54.292969 202.050781 53.269531 202.050781 C 52.25 202.050781 51.46875 201.644531 50.929688 200.839844 C 50.390625 200.03125 50.121094 198.859375 50.121094 197.324219 C 50.121094 195.789062 50.390625 194.613281 50.929688 193.808594 C 51.46875 193 52.25 192.59375 53.269531 192.59375 Z M 53.269531 192.59375 "/>
<g clip-path="url(#clip2)" clip-rule="nonzero">
<path style="fill:none;stroke-width:0.8;stroke-linecap:square;stroke-linejoin:round;stroke:rgb(69.019608%,69.019608%,69.019608%);stroke-opacity:1;stroke-miterlimit:4;" d="M 81.68125 146.9 L 81.68125 11 " transform="matrix(1.25,0,0,1.25,0,0)"/>
</g>
<path style="fill:none;stroke-width:0.8;stroke-linecap:butt;stroke-linejoin:round;stroke:rgb(0%,0%,0%);stroke-opacity:1;stroke-miterlimit:4;" d="M 0.000938 0.000781 L 0.000938 3.500781 " transform="matrix(1.25,0,0,1.25,102.10039,183.624024)"/>
<path style=" stroke:none;fill-rule:nonzero;fill:rgb(0%,0%,0%);fill-opacity:1;" d="M 99.675781 200.835938 L 101.6875 200.835938 L 101.6875 193.882812 L 99.496094 194.320312 L 99.496094 193.199219 L 101.675781 192.757812 L 102.910156 192.757812 L 102.910156 200.835938 L 104.921875 200.835938 L 104.921875 201.871094 L 99.675781 201.871094 Z M 99.675781 200.835938 "/>
<g clip-path="url(#clip3)" clip-rule="nonzero">
<path style="fill:none;stroke-width:0.8;stroke-linecap:square;stroke-linejoin:round;stroke:rgb(69.019608%,69.019608%,69.019608%);stroke-opacity:1;stroke-miterlimit:4;" d="M 120.740625 146.9 L 120.740625 11 " transform="matrix(1.25,0,0,1.25,0,0)"/>
</g>
<path style="fill:none;stroke-width:0.8;stroke-linecap:butt;stroke-linejoin:round;stroke:rgb(0%,0%,0%);stroke-opacity:1;stroke-miterlimit:4;" d="M 0.000312 0.000781 L 0.000312 3.500781 " transform="matrix(1.25,0,0,1.25,150.925391,183.624024)"/>
<path style=" stroke:none;fill-rule:nonzero;fill:rgb(0%,0%,0%);fill-opacity:1;" d="M 149.347656 200.835938 L 153.648438 200.835938 L 153.648438 201.871094 L 147.863281 201.871094 L 147.863281 200.835938 C 148.332031 200.351562 148.96875 199.699219 149.777344 198.886719 C 150.585938 198.070312 151.09375 197.542969 151.300781 197.304688 C 151.695312 196.863281 151.96875 196.488281 152.125 196.179688 C 152.285156 195.875 152.363281 195.570312 152.363281 195.273438 C 152.363281 194.789062 152.191406 194.394531 151.851562 194.089844 C 151.511719 193.785156 151.070312 193.632812 150.523438 193.632812 C 150.136719 193.632812 149.730469 193.699219 149.300781 193.832031 C 148.871094 193.96875 148.414062 194.171875 147.925781 194.445312 L 147.925781 193.199219 C 148.421875 193 148.886719 192.847656 149.316406 192.746094 C 149.75 192.644531 150.144531 192.59375 150.5 192.59375 C 151.445312 192.59375 152.199219 192.832031 152.757812 193.304688 C 153.320312 193.773438 153.601562 194.40625 153.601562 195.195312 C 153.601562 195.570312 153.53125 195.925781 153.390625 196.261719 C 153.25 196.59375 152.996094 196.992188 152.625 197.445312 C 152.523438 197.566406 152.199219 197.90625 151.652344 198.46875 C 151.109375 199.035156 150.339844 199.820312 149.347656 200.835938 Z M 149.347656 200.835938 "/>
<g clip-path="url(#clip4)" clip-rule="nonzero">
<path style="fill:none;stroke-width:0.8;stroke-linecap:square;stroke-linejoin:round;stroke:rgb(69.019608%,69.019608%,69.019608%);stroke-opacity:1;stroke-miterlimit:4;" d="M 159.8 146.9 L 159.8 11 " transform="matrix(1.25,0,0,1.25,0,0)"/>
</g>
<path style="fill:none;stroke-width:0.8;stroke-linecap:butt;stroke-linejoin:round;stroke:rgb(0%,0%,0%);stroke-opacity:1;stroke-miterlimit:4;" d="M -0.000313 0.000781 L -0.000313 3.500781 " transform="matrix(1.25,0,0,1.25,199.750391,183.624024)"/>
<path style=" stroke:none;fill-rule:nonzero;fill:rgb(0%,0%,0%);fill-opacity:1;" d="M 200.847656 196.957031 C 201.4375 197.085938 201.894531 197.347656 202.226562 197.746094 C 202.558594 198.144531 202.726562 198.636719 202.726562 199.222656 C 202.726562 200.121094 202.414062 200.816406 201.796875 201.3125 C 201.179688 201.804688 200.300781 202.050781 199.160156 202.050781 C 198.777344 202.050781 198.386719 202.011719 197.980469 201.9375 C 197.574219 201.859375 197.15625 201.746094 196.726562 201.597656 L 196.726562 200.40625 C 197.066406 200.605469 197.441406 200.757812 197.847656 200.859375 C 198.253906 200.960938 198.679688 201.011719 199.125 201.011719 C 199.898438 201.011719 200.484375 200.859375 200.890625 200.554688 C 201.296875 200.25 201.5 199.804688 201.5 199.222656 C 201.5 198.6875 201.308594 198.265625 200.933594 197.964844 C 200.558594 197.660156 200.035156 197.507812 199.363281 197.507812 L 198.300781 197.507812 L 198.300781 196.496094 L 199.414062 196.496094 C 200.019531 196.496094 200.480469 196.375 200.804688 196.132812 C 201.125 195.890625 201.285156 195.539062 201.285156 195.085938 C 201.285156 194.617188 201.121094 194.257812 200.789062 194.007812 C 200.457031 193.757812 199.980469 193.632812 199.363281 193.632812 C 199.023438 193.632812 198.664062 193.667969 198.277344 193.742188 C 197.890625 193.816406 197.464844 193.929688 197 194.082031 L 197 192.984375 C 197.46875 192.855469 197.90625 192.757812 198.316406 192.691406 C 198.726562 192.628906 199.109375 192.59375 199.472656 192.59375 C 200.410156 192.59375 201.148438 192.808594 201.695312 193.234375 C 202.238281 193.65625 202.511719 194.230469 202.511719 194.957031 C 202.511719 195.460938 202.367188 195.886719 202.078125 196.234375 C 201.789062 196.582031 201.378906 196.824219 200.847656 196.957031 Z M 200.847656 196.957031 "/>
<g clip-path="url(#clip5)" clip-rule="nonzero">
<path style="fill:none;stroke-width:0.8;stroke-linecap:square;stroke-linejoin:round;stroke:rgb(69.019608%,69.019608%,69.019608%);stroke-opacity:1;stroke-miterlimit:4;" d="M 198.859375 146.9 L 198.859375 11 " transform="matrix(1.25,0,0,1.25,0,0)"/>
</g>
<path style="fill:none;stroke-width:0.8;stroke-linecap:butt;stroke-linejoin:round;stroke:rgb(0%,0%,0%);stroke-opacity:1;stroke-miterlimit:4;" d="M -0.000938 0.000781 L -0.000938 3.500781 " transform="matrix(1.25,0,0,1.25,248.575391,183.624024)"/>
<path style=" stroke:none;fill-rule:nonzero;fill:rgb(0%,0%,0%);fill-opacity:1;" d="M 249.324219 193.832031 L 246.210938 198.699219 L 249.324219 198.699219 Z M 249 192.757812 L 250.550781 192.757812 L 250.550781 198.699219 L 251.851562 198.699219 L 251.851562 199.722656 L 250.550781 199.722656 L 250.550781 201.871094 L 249.324219 201.871094 L 249.324219 199.722656 L 245.210938 199.722656 L 245.210938 198.535156 Z M 249 192.757812 "/>
<g clip-path="url(#clip6)" clip-rule="nonzero">
<path style="fill:none;stroke-width:0.8;stroke-linecap:square;stroke-linejoin:round;stroke:rgb(69.019608%,69.019608%,69.019608%);stroke-opacity:1;stroke-miterlimit:4;" d="M 237.921875 146.9 L 237.921875 11 " transform="matrix(1.25,0,0,1.25,0,0)"/>
</g>
<path style="fill:none;stroke-width:0.8;stroke-linecap:butt;stroke-linejoin:round;stroke:rgb(0%,0%,0%);stroke-opacity:1;stroke-miterlimit:4;" d="M 0.001562 0.000781 L 0.001562 3.500781 " transform="matrix(1.25,0,0,1.25,297.400391,183.624024)"/>
<path style=" stroke:none;fill-rule:nonzero;fill:rgb(0%,0%,0%);fill-opacity:1;" d="M 294.773438 192.757812 L 299.613281 192.757812 L 299.613281 193.796875 L 295.902344 193.796875 L 295.902344 196.03125 C 296.082031 195.96875 296.257812 195.921875 296.4375 195.894531 C 296.617188 195.863281 296.796875 195.847656 296.976562 195.847656 C 297.992188 195.847656 298.800781 196.128906 299.394531 196.683594 C 299.988281 197.242188 300.285156 197.996094 300.285156 198.949219 C 300.285156 199.929688 299.980469 200.691406 299.371094 201.234375 C 298.757812 201.777344 297.898438 202.050781 296.789062 202.050781 C 296.40625 202.050781 296.015625 202.015625 295.617188 201.953125 C 295.222656 201.886719 294.8125 201.789062 294.390625 201.660156 L 294.390625 200.417969 C 294.753906 200.617188 295.132812 200.765625 295.523438 200.863281 C 295.914062 200.960938 296.328125 201.011719 296.761719 201.011719 C 297.464844 201.011719 298.023438 200.824219 298.433594 200.457031 C 298.84375 200.085938 299.050781 199.582031 299.050781 198.949219 C 299.050781 198.3125 298.84375 197.8125 298.433594 197.441406 C 298.023438 197.070312 297.464844 196.886719 296.761719 196.886719 C 296.433594 196.886719 296.105469 196.921875 295.777344 196.996094 C 295.449219 197.066406 295.113281 197.183594 294.773438 197.335938 Z M 294.773438 192.757812 "/>
<path style=" stroke:none;fill-rule:nonzero;fill:rgb(0%,0%,0%);fill-opacity:1;" d="M 178.5 212.132812 L 176.027344 215.460938 L 178.625 218.96875 L 177.300781 218.96875 L 175.3125 216.285156 L 173.324219 218.96875 L 171.996094 218.96875 L 174.652344 215.394531 L 172.222656 212.132812 L 173.546875 212.132812 L 175.359375 214.570312 L 177.171875 212.132812 Z M 178.5 212.132812 "/>
<g clip-path="url(#clip7)" clip-rule="nonzero">
<path style="fill:none;stroke-width:0.8;stroke-linecap:square;stroke-linejoin:round;stroke:rgb(69.019608%,69.019608%,69.019608%);stroke-opacity:1;stroke-miterlimit:4;" d="M 42.61875 146.9 L 237.921875 146.9 " transform="matrix(1.25,0,0,1.25,0,0)"/>
</g>
<path style="fill:none;stroke-width:0.8;stroke-linecap:butt;stroke-linejoin:round;stroke:rgb(0%,0%,0%);stroke-opacity:1;stroke-miterlimit:4;" d="M -0.001562 0.000781 L -3.501562 0.000781 " transform="matrix(1.25,0,0,1.25,53.27539,183.624024)"/>
<path style=" stroke:none;fill-rule:nonzero;fill:rgb(0%,0%,0%);fill-opacity:1;" d="M 27.421875 183.933594 L 35.246094 183.933594 L 35.246094 184.972656 L 27.421875 184.972656 Z M 27.421875 183.933594 "/>
<path style=" stroke:none;fill-rule:nonzero;fill:rgb(0%,0%,0%);fill-opacity:1;" d="M 38.121094 187.335938 L 40.136719 187.335938 L 40.136719 180.382812 L 37.945312 180.820312 L 37.945312 179.699219 L 40.125 179.257812 L 41.355469 179.257812 L 41.355469 187.335938 L 43.371094 187.335938 L 43.371094 188.371094 L 38.121094 188.371094 Z M 38.121094 187.335938 "/>
<g clip-path="url(#clip8)" clip-rule="nonzero">
<path style="fill:none;stroke-width:0.8;stroke-linecap:square;stroke-linejoin:round;stroke:rgb(69.019608%,69.019608%,69.019608%);stroke-opacity:1;stroke-miterlimit:4;" d="M 42.61875 124.25 L 237.921875 124.25 " transform="matrix(1.25,0,0,1.25,0,0)"/>
</g>
<path style="fill:none;stroke-width:0.8;stroke-linecap:butt;stroke-linejoin:round;stroke:rgb(0%,0%,0%);stroke-opacity:1;stroke-miterlimit:4;" d="M -0.001562 0.000781 L -3.501562 0.000781 " transform="matrix(1.25,0,0,1.25,53.27539,155.311524)"/>
<path style=" stroke:none;fill-rule:nonzero;fill:rgb(0%,0%,0%);fill-opacity:1;" d="M 40.542969 151.757812 C 39.910156 151.757812 39.433594 152.070312 39.113281 152.695312 C 38.792969 153.320312 38.632812 154.257812 38.632812 155.511719 C 38.632812 156.761719 38.792969 157.699219 39.113281 158.324219 C 39.433594 158.949219 39.910156 159.261719 40.542969 159.261719 C 41.183594 159.261719 41.664062 158.949219 41.980469 158.324219 C 42.300781 157.699219 42.460938 156.761719 42.460938 155.511719 C 42.460938 154.257812 42.300781 153.320312 41.980469 152.695312 C 41.664062 152.070312 41.183594 151.757812 40.542969 151.757812 Z M 40.542969 150.78125 C 41.566406 150.78125 42.347656 151.1875 42.886719 151.996094 C 43.425781 152.804688 43.695312 153.976562 43.695312 155.511719 C 43.695312 157.046875 43.425781 158.21875 42.886719 159.027344 C 42.347656 159.835938 41.566406 160.238281 40.542969 160.238281 C 39.523438 160.238281 38.742188 159.835938 38.203125 159.027344 C 37.664062 158.21875 37.394531 157.046875 37.394531 155.511719 C 37.394531 153.976562 37.664062 152.804688 38.203125 151.996094 C 38.742188 151.1875 39.523438 150.78125 40.542969 150.78125 Z M 40.542969 150.78125 "/>
<g clip-path="url(#clip9)" clip-rule="nonzero">
<path style="fill:none;stroke-width:0.8;stroke-linecap:square;stroke-linejoin:round;stroke:rgb(69.019608%,69.019608%,69.019608%);stroke-opacity:1;stroke-miterlimit:4;" d="M 42.61875 101.6 L 237.921875 101.6 " transform="matrix(1.25,0,0,1.25,0,0)"/>
</g>
<path style="fill:none;stroke-width:0.8;stroke-linecap:butt;stroke-linejoin:round;stroke:rgb(0%,0%,0%);stroke-opacity:1;stroke-miterlimit:4;" d="M -0.001562 0.000781 L -3.501562 0.000781 " transform="matrix(1.25,0,0,1.25,53.27539,126.999024)"/>
<path style=" stroke:none;fill-rule:nonzero;fill:rgb(0%,0%,0%);fill-opacity:1;" d="M 38.121094 130.710938 L 40.136719 130.710938 L 40.136719 123.757812 L 37.945312 124.195312 L 37.945312 123.074219 L 40.125 122.632812 L 41.355469 122.632812 L 41.355469 130.710938 L 43.371094 130.710938 L 43.371094 131.746094 L 38.121094 131.746094 Z M 38.121094 130.710938 "/>
<g clip-path="url(#clip10)" clip-rule="nonzero">
<path style="fill:none;stroke-width:0.8;stroke-linecap:square;stroke-linejoin:round;stroke:rgb(69.019608%,69.019608%,69.019608%);stroke-opacity:1;stroke-miterlimit:4;" d="M 42.61875 78.95 L 237.921875 78.95 " transform="matrix(1.25,0,0,1.25,0,0)"/>
</g>
<path style="fill:none;stroke-width:0.8;stroke-linecap:butt;stroke-linejoin:round;stroke:rgb(0%,0%,0%);stroke-opacity:1;stroke-miterlimit:4;" d="M -0.001562 0.000781 L -3.501562 0.000781 " transform="matrix(1.25,0,0,1.25,53.27539,98.686524)"/>
<path style=" stroke:none;fill-rule:nonzero;fill:rgb(0%,0%,0%);fill-opacity:1;" d="M 38.96875 102.398438 L 43.273438 102.398438 L 43.273438 103.433594 L 37.488281 103.433594 L 37.488281 102.398438 C 37.957031 101.914062 38.59375 101.265625 39.398438 100.449219 C 40.207031 99.632812 40.714844 99.105469 40.921875 98.867188 C 41.316406 98.425781 41.59375 98.050781 41.75 97.742188 C 41.90625 97.4375 41.984375 97.132812 41.984375 96.835938 C 41.984375 96.351562 41.816406 95.957031 41.476562 95.652344 C 41.136719 95.347656 40.695312 95.195312 40.148438 95.195312 C 39.761719 95.195312 39.351562 95.261719 38.921875 95.394531 C 38.496094 95.53125 38.035156 95.734375 37.546875 96.007812 L 37.546875 94.761719 C 38.042969 94.5625 38.507812 94.410156 38.9375 94.308594 C 39.371094 94.207031 39.765625 94.15625 40.125 94.15625 C 41.070312 94.15625 41.820312 94.394531 42.382812 94.867188 C 42.945312 95.339844 43.222656 95.96875 43.222656 96.757812 C 43.222656 97.132812 43.152344 97.488281 43.011719 97.824219 C 42.875 98.160156 42.617188 98.554688 42.246094 99.007812 C 42.144531 99.128906 41.824219 99.46875 41.277344 100.03125 C 40.734375 100.597656 39.964844 101.386719 38.96875 102.398438 Z M 38.96875 102.398438 "/>
<g clip-path="url(#clip11)" clip-rule="nonzero">
<path style="fill:none;stroke-width:0.8;stroke-linecap:square;stroke-linejoin:round;stroke:rgb(69.019608%,69.019608%,69.019608%);stroke-opacity:1;stroke-miterlimit:4;" d="M 42.61875 56.3 L 237.921875 56.3 " transform="matrix(1.25,0,0,1.25,0,0)"/>
</g>
<path style="fill:none;stroke-width:0.8;stroke-linecap:butt;stroke-linejoin:round;stroke:rgb(0%,0%,0%);stroke-opacity:1;stroke-miterlimit:4;" d="M -0.001562 0.000781 L -3.501562 0.000781 " transform="matrix(1.25,0,0,1.25,53.27539,70.374024)"/>
<path style=" stroke:none;fill-rule:nonzero;fill:rgb(0%,0%,0%);fill-opacity:1;" d="M 41.644531 70.207031 C 42.234375 70.335938 42.695312 70.597656 43.023438 70.996094 C 43.355469 71.394531 43.523438 71.886719 43.523438 72.472656 C 43.523438 73.371094 43.214844 74.070312 42.59375 74.5625 C 41.976562 75.054688 41.097656 75.300781 39.957031 75.300781 C 39.578125 75.300781 39.183594 75.261719 38.777344 75.1875 C 38.375 75.113281 37.957031 75 37.523438 74.847656 L 37.523438 73.65625 C 37.867188 73.855469 38.238281 74.007812 38.644531 74.109375 C 39.054688 74.210938 39.480469 74.261719 39.921875 74.261719 C 40.695312 74.261719 41.285156 74.109375 41.6875 73.804688 C 42.09375 73.5 42.296875 73.054688 42.296875 72.472656 C 42.296875 71.9375 42.109375 71.515625 41.730469 71.214844 C 41.355469 70.910156 40.832031 70.757812 40.160156 70.757812 L 39.097656 70.757812 L 39.097656 69.746094 L 40.210938 69.746094 C 40.816406 69.746094 41.28125 69.625 41.601562 69.382812 C 41.921875 69.140625 42.082031 68.792969 42.082031 68.335938 C 42.082031 67.867188 41.917969 67.507812 41.585938 67.257812 C 41.253906 67.007812 40.78125 66.882812 40.160156 66.882812 C 39.824219 66.882812 39.460938 66.917969 39.074219 66.992188 C 38.6875 67.066406 38.261719 67.179688 37.796875 67.332031 L 37.796875 66.234375 C 38.265625 66.105469 38.707031 66.007812 39.113281 65.941406 C 39.523438 65.878906 39.910156 65.84375 40.269531 65.84375 C 41.207031 65.84375 41.949219 66.058594 42.492188 66.484375 C 43.039062 66.910156 43.308594 67.484375 43.308594 68.207031 C 43.308594 68.710938 43.164062 69.136719 42.875 69.484375 C 42.585938 69.832031 42.175781 70.074219 41.644531 70.207031 Z M 41.644531 70.207031 "/>
<g clip-path="url(#clip12)" clip-rule="nonzero">
<path style="fill:none;stroke-width:0.8;stroke-linecap:square;stroke-linejoin:round;stroke:rgb(69.019608%,69.019608%,69.019608%);stroke-opacity:1;stroke-miterlimit:4;" d="M 42.61875 33.65 L 237.921875 33.65 " transform="matrix(1.25,0,0,1.25,0,0)"/>
</g>
<path style="fill:none;stroke-width:0.8;stroke-linecap:butt;stroke-linejoin:round;stroke:rgb(0%,0%,0%);stroke-opacity:1;stroke-miterlimit:4;" d="M -0.001562 0.000781 L -3.501562 0.000781 " transform="matrix(1.25,0,0,1.25,53.27539,42.061524)"/>
<path style=" stroke:none;fill-rule:nonzero;fill:rgb(0%,0%,0%);fill-opacity:1;" d="M 41.296875 38.769531 L 38.183594 43.636719 L 41.296875 43.636719 Z M 40.972656 37.695312 L 42.523438 37.695312 L 42.523438 43.636719 L 43.824219 43.636719 L 43.824219 44.660156 L 42.523438 44.660156 L 42.523438 46.808594 L 41.296875 46.808594 L 41.296875 44.660156 L 37.183594 44.660156 L 37.183594 43.472656 Z M 40.972656 37.695312 "/>
<g clip-path="url(#clip13)" clip-rule="nonzero">
<path style="fill:none;stroke-width:0.8;stroke-linecap:square;stroke-linejoin:round;stroke:rgb(69.019608%,69.019608%,69.019608%);stroke-opacity:1;stroke-miterlimit:4;" d="M 42.61875 11 L 237.921875 11 " transform="matrix(1.25,0,0,1.25,0,0)"/>
</g>
<path style="fill:none;stroke-width:0.8;stroke-linecap:butt;stroke-linejoin:round;stroke:rgb(0%,0%,0%);stroke-opacity:1;stroke-miterlimit:4;" d="M -0.001562 0.000781 L -3.501562 0.000781 " transform="matrix(1.25,0,0,1.25,53.27539,13.749024)"/>
<path style=" stroke:none;fill-rule:nonzero;fill:rgb(0%,0%,0%);fill-opacity:1;" d="M 37.921875 9.382812 L 42.761719 9.382812 L 42.761719 10.421875 L 39.050781 10.421875 L 39.050781 12.65625 C 39.230469 12.59375 39.40625 12.550781 39.585938 12.519531 C 39.765625 12.488281 39.945312 12.472656 40.125 12.472656 C 41.140625 12.472656 41.945312 12.753906 42.539062 13.308594 C 43.136719 13.867188 43.433594 14.621094 43.433594 15.574219 C 43.433594 16.554688 43.128906 17.316406 42.515625 17.859375 C 41.90625 18.402344 41.046875 18.675781 39.933594 18.675781 C 39.550781 18.675781 39.164062 18.644531 38.765625 18.578125 C 38.371094 18.511719 37.960938 18.414062 37.535156 18.285156 L 37.535156 17.042969 C 37.902344 17.242188 38.28125 17.390625 38.671875 17.488281 C 39.0625 17.585938 39.476562 17.636719 39.910156 17.636719 C 40.613281 17.636719 41.171875 17.453125 41.582031 17.082031 C 41.992188 16.710938 42.199219 16.210938 42.199219 15.574219 C 42.199219 14.941406 41.992188 14.4375 41.582031 14.066406 C 41.171875 13.695312 40.613281 13.511719 39.910156 13.511719 C 39.582031 13.511719 39.25 13.546875 38.921875 13.621094 C 38.597656 13.695312 38.261719 13.808594 37.921875 13.960938 Z M 37.921875 9.382812 "/>
<path style=" stroke:none;fill-rule:nonzero;fill:rgb(0%,0%,0%);fill-opacity:1;" d="M 19.132812 98.363281 C 19.945312 98.679688 20.476562 98.988281 20.722656 99.292969 C 20.972656 99.59375 21.097656 99.996094 21.097656 100.5 L 21.097656 101.398438 L 20.15625 101.398438 L 20.15625 100.738281 C 20.15625 100.429688 20.085938 100.1875 19.9375 100.019531 C 19.792969 99.847656 19.445312 99.65625 18.898438 99.449219 L 18.386719 99.25 L 11.660156 102.011719 L 11.660156 100.824219 L 17.007812 98.6875 L 11.660156 96.550781 L 11.660156 95.359375 Z M 19.132812 98.363281 "/>
<g clip-path="url(#clip14)" clip-rule="nonzero">
<path style="fill:none;stroke-width:1.5;stroke-linecap:square;stroke-linejoin:round;stroke:rgb(12.156863%,46.666667%,70.588235%);stroke-opacity:1;stroke-miterlimit:4;" d="M 42.61875 124.25 L 46.525 116.1375 L 50.43125 109 L 54.3375 102.215625 L 58.24375 95.725 L 62.15 89.521875 L 66.05625 83.61875 L 69.9625 78.0375 L 73.86875 72.80625 L 77.775 67.946875 L 81.68125 63.48125 L 85.5875 59.434375 L 89.49375 55.821875 L 93.396875 52.659375 L 97.303125 49.9625 L 101.209375 47.734375 L 105.115625 45.98125 L 109.021875 44.7 L 112.928125 43.884375 L 116.834375 43.53125 L 120.740625 43.621875 L 124.646875 44.140625 L 128.553125 45.0625 L 132.459375 46.36875 L 136.365625 48.021875 L 140.26875 49.99375 L 144.175 52.25 L 148.08125 54.753125 L 151.9875 57.45625 L 155.89375 60.325 L 159.8 63.309375 L 163.70625 66.36875 L 167.6125 69.45625 L 171.51875 72.528125 L 175.425 75.534375 L 179.33125 78.434375 L 183.2375 81.184375 L 187.14375 83.740625 L 191.046875 86.065625 L 194.953125 88.11875 L 198.859375 89.871875 L 202.765625 91.284375 L 206.671875 92.3375 L 210.578125 93 L 214.484375 93.25625 L 218.390625 93.084375 L 222.296875 92.478125 L 226.203125 91.428125 L 230.109375 89.93125 L 234.015625 87.9875 " transform="matrix(1.25,0,0,1.25,0,0)"/>
</g>
<g clip-path="url(#clip15)" clip-rule="nonzero">
<path style="fill:none;stroke-width:1.5;stroke-linecap:butt;stroke-linejoin:round;stroke:rgb(74.901961%,0%,74.901961%);stroke-opacity:1;stroke-dasharray:5.55,2.4;stroke-miterlimit:4;" d="M 42.61875 103.90625 L 46.525 102.446875 L 50.43125 100.54375 L 54.3375 98.040625 L 58.24375 94.690625 L 62.15 90.209375 L 66.05625 84.578125 L 69.9625 78.45625 L 73.86875 72.95 L 77.775 68.734375 L 81.68125 65.659375 L 85.5875 63.165625 L 89.49375 60.684375 L 93.396875 58 L 97.303125 55.509375 L 101.209375 53.871875 L 105.115625 53.21875 L 109.021875 53.09375 L 112.928125 53.025 L 116.834375 52.7375 L 120.740625 52.125 L 124.646875 51.3 L 128.553125 50.65 L 132.459375 50.565625 L 136.365625 51.134375 L 140.26875 52.253125 L 144.175 53.825 L 148.08125 55.83125 L 151.9875 58.296875 L 155.89375 61.16875 L 159.8 64.16875 L 163.70625 66.8625 L 167.6125 68.925 L 171.51875 70.28125 L 175.425 71.0625 L 179.33125 71.51875 L 183.2375 71.984375 L 187.14375 72.859375 L 191.046875 74.5 L 194.953125 76.940625 L 198.859375 79.778125 L 202.765625 82.453125 L 206.671875 84.60625 L 210.578125 86.090625 L 214.484375 86.771875 L 218.390625 86.55625 L 222.296875 85.640625 L 226.203125 84.575 L 230.109375 83.8125 L 234.015625 83.440625 " transform="matrix(1.25,0,0,1.25,0,0)"/>
</g>
<path style="fill-rule:nonzero;fill:rgb(100%,49.803922%,5.490196%);fill-opacity:0.501961;stroke-width:1;stroke-linecap:butt;stroke-linejoin:round;stroke:rgb(100%,49.803922%,5.490196%);stroke-opacity:0.501961;stroke-miterlimit:4;" d="M -0.000178 3.000808 C 0.796697 3.000808 1.559197 2.685183 2.121697 2.122683 C 2.684197 1.560183 2.999822 0.794558 2.999822 0.000808 C 2.999822 -0.796067 2.684197 -1.558567 2.121697 -2.121067 C 1.559197 -2.683567 0.796697 -2.999192 -0.000178 -2.999192 C -0.797053 -2.999192 -1.559553 -2.683567 -2.122053 -2.121067 C -2.684553 -1.558567 -3.000178 -0.796067 -3.000178 0.000808 C -3.000178 0.794558 -2.684553 1.560183 -2.122053 2.122683 C -1.559553 2.685183 -0.797053 3.000808 -0.000178 3.000808 Z M -0.000178 3.000808 " transform="matrix(1.25,0,0,1.25,67.633035,132.784146)"/>
<path style="fill-rule:nonzero;fill:rgb(100%,49.803922%,5.490196%);fill-opacity:0.501961;stroke-width:1;stroke-linecap:butt;stroke-linejoin:round;stroke:rgb(100%,49.803922%,5.490196%);stroke-opacity:0.501961;stroke-miterlimit:4;" d="M 0.000696 3.000219 C 0.794446 3.000219 1.560071 2.684594 2.122571 2.122094 C 2.685071 1.559594 3.000696 0.797094 3.000696 0.000219 C 3.000696 -0.796656 2.685071 -1.559156 2.122571 -2.121656 C 1.560071 -2.684156 0.794446 -2.999781 0.000696 -2.999781 C -0.796179 -2.999781 -1.558679 -2.684156 -2.121179 -2.121656 C -2.683679 -1.559156 -2.999304 -0.796656 -2.999304 0.000219 C -2.999304 0.797094 -2.683679 1.559594 -2.121179 2.122094 C -1.558679 2.684594 -0.796179 3.000219 0.000696 3.000219 Z M 0.000696 3.000219 " transform="matrix(1.25,0,0,1.25,71.128036,146.601289)"/>
<path style="fill-rule:nonzero;fill:rgb(100%,49.803922%,5.490196%);fill-opacity:0.501961;stroke-width:1;stroke-linecap:butt;stroke-linejoin:round;stroke:rgb(100%,49.803922%,5.490196%);stroke-opacity:0.501961;stroke-miterlimit:4;" d="M 0.000969 2.999546 C 0.794719 2.999546 1.557219 2.683921 2.122844 2.121421 C 2.685344 1.558921 3.000969 0.796421 3.000969 -0.000454 C 3.000969 -0.794204 2.685344 -1.559829 2.122844 -2.122329 C 1.557219 -2.684829 0.794719 -3.000454 0.000969 -3.000454 C -0.795906 -3.000454 -1.558406 -2.684829 -2.120906 -2.122329 C -2.683406 -1.559829 -2.999031 -0.794204 -2.999031 -0.000454 C -2.999031 0.796421 -2.683406 1.558921 -2.120906 2.121421 C -1.558406 2.683921 -0.795906 2.999546 0.000969 2.999546 Z M 0.000969 2.999546 " transform="matrix(1.25,0,0,1.25,75.170664,107.47713)"/>
<path style="fill-rule:nonzero;fill:rgb(100%,49.803922%,5.490196%);fill-opacity:0.501961;stroke-width:1;stroke-linecap:butt;stroke-linejoin:round;stroke:rgb(100%,49.803922%,5.490196%);stroke-opacity:0.501961;stroke-miterlimit:4;" d="M -0.001429 2.999983 C 0.795446 2.999983 1.557946 2.684358 2.120446 2.121858 C 2.682946 1.559358 2.998571 0.796858 2.998571 -0.000017 C 2.998571 -0.796892 2.682946 -1.559392 2.120446 -2.121892 C 1.557946 -2.684392 0.795446 -3.000017 -0.001429 -3.000017 C -0.795179 -3.000017 -1.557679 -2.684392 -2.120179 -2.121892 C -2.682679 -1.559392 -3.001429 -0.796892 -3.001429 -0.000017 C -3.001429 0.796858 -2.682679 1.559358 -2.120179 2.121858 C -1.557679 2.684358 -0.795179 2.999983 -0.001429 2.999983 Z M -0.001429 2.999983 " transform="matrix(1.25,0,0,1.25,81.646317,111.660178)"/>
<path style="fill-rule:nonzero;fill:rgb(100%,49.803922%,5.490196%);fill-opacity:0.501961;stroke-width:1;stroke-linecap:butt;stroke-linejoin:round;stroke:rgb(100%,49.803922%,5.490196%);stroke-opacity:0.501961;stroke-miterlimit:4;" d="M 0.000514 3.001057 C 0.794264 3.001057 1.559889 2.685432 2.122389 2.119807 C 2.684889 1.557307 3.000514 0.794807 3.000514 0.001057 C 3.000514 -0.795818 2.684889 -1.558318 2.122389 -2.120818 C 1.559889 -2.683318 0.794264 -2.998943 0.000514 -2.998943 C -0.796361 -2.998943 -1.558861 -2.683318 -2.121361 -2.120818 C -2.683861 -1.558318 -2.999486 -0.795818 -2.999486 0.001057 C -2.999486 0.794807 -2.683861 1.557307 -2.121361 2.119807 C -1.558861 2.685432 -0.796361 3.001057 0.000514 3.001057 Z M 0.000514 3.001057 " transform="matrix(1.25,0,0,1.25,81.94467,106.61196)"/>
<path style="fill-rule:nonzero;fill:rgb(100%,49.803922%,5.490196%);fill-opacity:0.501961;stroke-width:1;stroke-linecap:butt;stroke-linejoin:round;stroke:rgb(100%,49.803922%,5.490196%);stroke-opacity:0.501961;stroke-miterlimit:4;" d="M 0.000213 3.001078 C 0.797088 3.001078 1.559588 2.685453 2.122088 2.119828 C 2.684588 1.557328 3.000213 0.794828 3.000213 0.001078 C 3.000213 -0.795797 2.684588 -1.558297 2.122088 -2.120797 C 1.559588 -2.683297 0.797088 -2.998922 0.000213 -2.998922 C -0.796662 -2.998922 -1.559162 -2.683297 -2.121662 -2.120797 C -2.684162 -1.558297 -2.999787 -0.795797 -2.999787 0.001078 C -2.999787 0.794828 -2.684162 1.557328 -2.121662 2.119828 C -1.559162 2.685453 -0.796662 3.001078 0.000213 3.001078 Z M 0.000213 3.001078 " transform="matrix(1.25,0,0,1.25,94.09739,108.381465)"/>
<path style="fill-rule:nonzero;fill:rgb(100%,49.803922%,5.490196%);fill-opacity:0.501961;stroke-width:1;stroke-linecap:butt;stroke-linejoin:round;stroke:rgb(100%,49.803922%,5.490196%);stroke-opacity:0.501961;stroke-miterlimit:4;" d="M -0.00019 2.999 C 0.796685 2.999 1.559185 2.683375 2.121685 2.120875 C 2.684185 1.558375 2.99981 0.795875 2.99981 -0.001 C 2.99981 -0.79475 2.684185 -1.55725 2.121685 -2.122875 C 1.559185 -2.685375 0.796685 -3.001 -0.00019 -3.001 C -0.797065 -3.001 -1.559565 -2.685375 -2.122065 -2.122875 C -2.684565 -1.55725 -3.00019 -0.79475 -3.00019 -0.001 C -3.00019 0.795875 -2.684565 1.558375 -2.122065 2.120875 C -1.559565 2.683375 -0.797065 2.999 -0.00019 2.999 Z M -0.00019 2.999 " transform="matrix(1.25,0,0,1.25,97.777581,68.419219)"/>
<path style="fill-rule:nonzero;fill:rgb(100%,49.803922%,5.490196%);fill-opacity:0.501961;stroke-width:1;stroke-linecap:butt;stroke-linejoin:round;stroke:rgb(100%,49.803922%,5.490196%);stroke-opacity:0.501961;stroke-miterlimit:4;" d="M -0.001092 3.000678 C 0.795783 3.000678 1.558283 2.685053 2.120783 2.122553 C 2.683283 1.560053 2.998908 0.794428 2.998908 0.000678 C 2.998908 -0.796197 2.683283 -1.558697 2.120783 -2.121197 C 1.558283 -2.683697 0.795783 -2.999322 -0.001092 -2.999322 C -0.794842 -2.999322 -1.557342 -2.683697 -2.119842 -2.121197 C -2.682342 -1.558697 -3.001092 -0.796197 -3.001092 0.000678 C -3.001092 0.794428 -2.682342 1.560053 -2.119842 2.122553 C -1.557342 2.685053 -0.794842 3.000678 -0.001092 3.000678 Z M -0.001092 3.000678 " transform="matrix(1.25,0,0,1.25,100.208396,80.014777)"/>
<path style="fill-rule:nonzero;fill:rgb(100%,49.803922%,5.490196%);fill-opacity:0.501961;stroke-width:1;stroke-linecap:butt;stroke-linejoin:round;stroke:rgb(100%,49.803922%,5.490196%);stroke-opacity:0.501961;stroke-miterlimit:4;" d="M 0.000187 3.000818 C 0.797062 3.000818 1.559562 2.685193 2.122062 2.122693 C 2.684562 1.560193 3.000187 0.794568 3.000187 0.000818 C 3.000187 -0.796057 2.684562 -1.558557 2.122062 -2.121057 C 1.559562 -2.683557 0.797062 -2.999182 0.000187 -2.999182 C -0.796688 -2.999182 -1.559188 -2.683557 -2.121688 -2.121057 C -2.684188 -1.558557 -2.999813 -0.796057 -2.999813 0.000818 C -2.999813 0.794568 -2.684188 1.560193 -2.121688 2.122693 C -1.559188 2.685193 -0.796688 3.000818 0.000187 3.000818 Z M 0.000187 3.000818 " transform="matrix(1.25,0,0,1.25,102.984141,78.370071)"/>
<path style="fill-rule:nonzero;fill:rgb(100%,49.803922%,5.490196%);fill-opacity:0.501961;stroke-width:1;stroke-linecap:butt;stroke-linejoin:round;stroke:rgb(100%,49.803922%,5.490196%);stroke-opacity:0.501961;stroke-miterlimit:4;" d="M 0.001121 2.998884 C 0.794871 2.998884 1.557371 2.683259 2.119871 2.120759 C 2.682371 1.558259 3.001121 0.795759 3.001121 -0.001116 C 3.001121 -0.794866 2.682371 -1.557366 2.119871 -2.119866 C 1.557371 -2.682366 0.794871 -3.001116 0.001121 -3.001116 C -0.795754 -3.001116 -1.558254 -2.682366 -2.120754 -2.119866 C -2.683254 -1.557366 -2.998879 -0.794866 -2.998879 -0.001116 C -2.998879 0.795759 -2.683254 1.558259 -2.120754 2.120759 C -1.558254 2.683259 -0.795754 2.998884 0.001121 2.998884 Z M 0.001121 2.998884 " transform="matrix(1.25,0,0,1.25,103.123599,91.306083)"/>
<path style="fill-rule:nonzero;fill:rgb(100%,49.803922%,5.490196%);fill-opacity:0.501961;stroke-width:1;stroke-linecap:butt;stroke-linejoin:round;stroke:rgb(100%,49.803922%,5.490196%);stroke-opacity:0.501961;stroke-miterlimit:4;" d="M -0.001361 3.001535 C 0.795514 3.001535 1.558014 2.682785 2.120514 2.120285 C 2.683014 1.557785 2.998639 0.795285 2.998639 0.001535 C 2.998639 -0.79534 2.683014 -1.55784 2.120514 -2.12034 C 1.558014 -2.68284 0.795514 -2.998465 -0.001361 -2.998465 C -0.795111 -2.998465 -1.557611 -2.68284 -2.120111 -2.12034 C -2.682611 -1.55784 -3.001361 -0.79534 -3.001361 0.001535 C -3.001361 0.795285 -2.682611 1.557785 -2.120111 2.120285 C -1.557611 2.682785 -0.795111 3.001535 -0.001361 3.001535 Z M -0.001361 3.001535 " transform="matrix(1.25,0,0,1.25,103.185295,70.044956)"/>
<path style="fill-rule:nonzero;fill:rgb(100%,49.803922%,5.490196%);fill-opacity:0.501961;stroke-width:1;stroke-linecap:butt;stroke-linejoin:round;stroke:rgb(100%,49.803922%,5.490196%);stroke-opacity:0.501961;stroke-miterlimit:4;" d="M -0.00066 3.00041 C 0.796215 3.00041 1.558715 2.684785 2.121215 2.122285 C 2.683715 1.559785 2.99934 0.79416 2.99934 0.00041 C 2.99934 -0.796465 2.683715 -1.558965 2.121215 -2.121465 C 1.558715 -2.683965 0.796215 -2.99959 -0.00066 -2.99959 C -0.79441 -2.99959 -1.560035 -2.683965 -2.122535 -2.121465 C -2.685035 -1.558965 -3.00066 -0.796465 -3.00066 0.00041 C -3.00066 0.79416 -2.685035 1.559785 -2.122535 2.122285 C -1.560035 2.684785 -0.79441 3.00041 -0.00066 3.00041 Z M -0.00066 3.00041 " transform="matrix(1.25,0,0,1.25,107.950044,78.390113)"/>
<path style="fill-rule:nonzero;fill:rgb(100%,49.803922%,5.490196%);fill-opacity:0.501961;stroke-width:1;stroke-linecap:butt;stroke-linejoin:round;stroke:rgb(100%,49.803922%,5.490196%);stroke-opacity:0.501961;stroke-miterlimit:4;" d="M 0.000724 2.999248 C 0.794474 2.999248 1.560099 2.683623 2.122599 2.121123 C 2.685099 1.558623 3.000724 0.796123 3.000724 -0.000752 C 3.000724 -0.794502 2.685099 -1.560127 2.122599 -2.122627 C 1.560099 -2.685127 0.794474 -3.000752 0.000724 -3.000752 C -0.796151 -3.000752 -1.558651 -2.685127 -2.121151 -2.122627 C -2.683651 -1.560127 -2.999276 -0.794502 -2.999276 -0.000752 C -2.999276 0.796123 -2.683651 1.558623 -2.121151 2.121123 C -1.558651 2.683623 -0.796151 2.999248 0.000724 2.999248 Z M 0.000724 2.999248 " transform="matrix(1.25,0,0,1.25,112.167064,72.03219)"/>
<path style="fill-rule:nonzero;fill:rgb(100%,49.803922%,5.490196%);fill-opacity:0.501961;stroke-width:1;stroke-linecap:butt;stroke-linejoin:round;stroke:rgb(100%,49.803922%,5.490196%);stroke-opacity:0.501961;stroke-miterlimit:4;" d="M -0.001301 3.001048 C 0.795574 3.001048 1.558074 2.685423 2.120574 2.119798 C 2.683074 1.557298 2.998699 0.794798 2.998699 0.001048 C 2.998699 -0.795827 2.683074 -1.558327 2.120574 -2.120827 C 1.558074 -2.683327 0.795574 -2.998952 -0.001301 -2.998952 C -0.795051 -2.998952 -1.557551 -2.683327 -2.120051 -2.120827 C -2.682551 -1.558327 -3.001301 -0.795827 -3.001301 0.001048 C -3.001301 0.794798 -2.682551 1.557298 -2.120051 2.119798 C -1.557551 2.685423 -0.795051 3.001048 -0.001301 3.001048 Z M -0.001301 3.001048 " transform="matrix(1.25,0,0,1.25,125.114908,49.307284)"/>
<path style="fill-rule:nonzero;fill:rgb(100%,49.803922%,5.490196%);fill-opacity:0.501961;stroke-width:1;stroke-linecap:butt;stroke-linejoin:round;stroke:rgb(100%,49.803922%,5.490196%);stroke-opacity:0.501961;stroke-miterlimit:4;" d="M 0.000734 2.999409 C 0.794484 2.999409 1.560109 2.683784 2.122609 2.121284 C 2.685109 1.558784 3.000734 0.796284 3.000734 -0.000591 C 3.000734 -0.794341 2.685109 -1.559966 2.122609 -2.122466 C 1.560109 -2.684966 0.794484 -3.000591 0.000734 -3.000591 C -0.796141 -3.000591 -1.558641 -2.684966 -2.121141 -2.122466 C -2.683641 -1.559966 -2.999266 -0.794341 -2.999266 -0.000591 C -2.999266 0.796284 -2.683641 1.558784 -2.121141 2.121284 C -1.558641 2.683784 -0.796141 2.999409 0.000734 2.999409 Z M 0.000734 2.999409 " transform="matrix(1.25,0,0,1.25,128.467832,56.184332)"/>
<path style="fill-rule:nonzero;fill:rgb(100%,49.803922%,5.490196%);fill-opacity:0.501961;stroke-width:1;stroke-linecap:butt;stroke-linejoin:round;stroke:rgb(100%,49.803922%,5.490196%);stroke-opacity:0.501961;stroke-miterlimit:4;" d="M -0.001366 2.999497 C 0.795509 2.999497 1.558009 2.683872 2.120509 2.121372 C 2.683009 1.558872 2.998634 0.796372 2.998634 -0.000503 C 2.998634 -0.794253 2.683009 -1.559878 2.120509 -2.122378 C 1.558009 -2.684878 0.795509 -3.000503 -0.001366 -3.000503 C -0.795116 -3.000503 -1.557616 -2.684878 -2.120116 -2.122378 C -2.682616 -1.559878 -3.001366 -0.794253 -3.001366 -0.000503 C -3.001366 0.796372 -2.682616 1.558872 -2.120116 2.121372 C -1.557616 2.683872 -0.795116 2.999497 -0.001366 2.999497 Z M -0.001366 2.999497 " transform="matrix(1.25,0,0,1.25,132.005614,83.996723)"/>
<path style="fill-rule:nonzero;fill:rgb(100%,49.803922%,5.490196%);fill-opacity:0.501961;stroke-width:1;stroke-linecap:butt;stroke-linejoin:round;stroke:rgb(100%,49.803922%,5.490196%);stroke-opacity:0.501961;stroke-miterlimit:4;" d="M -0.000047 2.999189 C 0.796828 2.999189 1.559328 2.683564 2.121828 2.121064 C 2.684328 1.558564 2.999953 0.796064 2.999953 -0.000811 C 2.999953 -0.794561 2.684328 -1.560186 2.121828 -2.122686 C 1.559328 -2.685186 0.796828 -3.000811 -0.000047 -3.000811 C -0.796922 -3.000811 -1.559422 -2.685186 -2.121922 -2.122686 C -2.684422 -1.560186 -3.000047 -0.794561 -3.000047 -0.000811 C -3.000047 0.796064 -2.684422 1.558564 -2.121922 2.121064 C -1.559422 2.683564 -0.796922 2.999189 -0.000047 2.999189 Z M -0.000047 2.999189 " transform="matrix(1.25,0,0,1.25,138.98834,75.633826)"/>
<path style="fill-rule:nonzero;fill:rgb(100%,49.803922%,5.490196%);fill-opacity:0.501961;stroke-width:1;stroke-linecap:butt;stroke-linejoin:round;stroke:rgb(100%,49.803922%,5.490196%);stroke-opacity:0.501961;stroke-miterlimit:4;" d="M -0.001129 2.998569 C 0.795746 2.998569 1.558246 2.682944 2.120746 2.120444 C 2.683246 1.557944 2.998871 0.795444 2.998871 -0.001431 C 2.998871 -0.795181 2.683246 -1.557681 2.120746 -2.120181 C 1.558246 -2.682681 0.795746 -3.001431 -0.001129 -3.001431 C -0.794879 -3.001431 -1.557379 -2.682681 -2.119879 -2.120181 C -2.682379 -1.557681 -3.001129 -0.795181 -3.001129 -0.001431 C -3.001129 0.795444 -2.682379 1.557944 -2.119879 2.120444 C -1.557379 2.682944 -0.794879 2.998569 -0.001129 2.998569 Z M -0.001129 2.998569 " transform="matrix(1.25,0,0,1.25,139.895942,63.751789)"/>
<path style="fill-rule:nonzero;fill:rgb(100%,49.803922%,5.490196%);fill-opacity:0.501961;stroke-width:1;stroke-linecap:butt;stroke-linejoin:round;stroke:rgb(100%,49.803922%,5.490196%);stroke-opacity:0.501961;stroke-miterlimit:4;" d="M 0.000756 3.001111 C 0.794506 3.001111 1.560131 2.682361 2.122631 2.119861 C 2.685131 1.557361 3.000756 0.794861 3.000756 0.001111 C 3.000756 -0.795764 2.685131 -1.558264 2.122631 -2.120764 C 1.560131 -2.683264 0.794506 -2.998889 0.000756 -2.998889 C -0.796119 -2.998889 -1.558619 -2.683264 -2.121119 -2.120764 C -2.683619 -1.558264 -2.999244 -0.795764 -2.999244 0.001111 C -2.999244 0.794861 -2.683619 1.557361 -2.121119 2.119861 C -1.558619 2.682361 -0.796119 3.001111 0.000756 3.001111 Z M 0.000756 3.001111 " transform="matrix(1.25,0,0,1.25,146.393586,55.338455)"/>
<path style="fill-rule:nonzero;fill:rgb(100%,49.803922%,5.490196%);fill-opacity:0.501961;stroke-width:1;stroke-linecap:butt;stroke-linejoin:round;stroke:rgb(100%,49.803922%,5.490196%);stroke-opacity:0.501961;stroke-miterlimit:4;" d="M 0.001526 3.000493 C 0.795276 3.000493 1.557776 2.684868 2.120276 2.122368 C 2.682776 1.559868 3.001526 0.794243 3.001526 0.000493 C 3.001526 -0.796382 2.682776 -1.558882 2.120276 -2.121382 C 1.557776 -2.683882 0.795276 -2.999507 0.001526 -2.999507 C -0.795349 -2.999507 -1.557849 -2.683882 -2.120349 -2.121382 C -2.682849 -1.558882 -2.998474 -0.796382 -2.998474 0.000493 C -2.998474 0.794243 -2.682849 1.559868 -2.120349 2.122368 C -1.557849 2.684868 -0.795349 3.000493 0.001526 3.000493 Z M 0.001526 3.000493 " transform="matrix(1.25,0,0,1.25,156.048874,73.671259)"/>
<path style="fill-rule:nonzero;fill:rgb(100%,49.803922%,5.490196%);fill-opacity:0.501961;stroke-width:1;stroke-linecap:butt;stroke-linejoin:round;stroke:rgb(100%,49.803922%,5.490196%);stroke-opacity:0.501961;stroke-miterlimit:4;" d="M -0.000889 2.999847 C 0.795986 2.999847 1.558486 2.684222 2.120986 2.121722 C 2.683486 1.559222 2.999111 0.796722 2.999111 -0.000153 C 2.999111 -0.797028 2.683486 -1.559528 2.120986 -2.122028 C 1.558486 -2.684528 0.795986 -3.000153 -0.000889 -3.000153 C -0.794639 -3.000153 -1.560264 -2.684528 -2.122764 -2.122028 C -2.685264 -1.559528 -3.000889 -0.797028 -3.000889 -0.000153 C -3.000889 0.796722 -2.685264 1.559222 -2.122764 2.121722 C -1.560264 2.684222 -0.794639 2.999847 -0.000889 2.999847 Z M -0.000889 2.999847 " transform="matrix(1.25,0,0,1.25,168.497205,53.101754)"/>
<path style="fill-rule:nonzero;fill:rgb(100%,49.803922%,5.490196%);fill-opacity:0.501961;stroke-width:1;stroke-linecap:butt;stroke-linejoin:round;stroke:rgb(100%,49.803922%,5.490196%);stroke-opacity:0.501961;stroke-miterlimit:4;" d="M 0.000394 2.999532 C 0.794144 2.999532 1.559769 2.683907 2.122269 2.121407 C 2.684769 1.558907 3.000394 0.796407 3.000394 -0.000468 C 3.000394 -0.794218 2.684769 -1.559843 2.122269 -2.122343 C 1.559769 -2.684843 0.794144 -3.000468 0.000394 -3.000468 C -0.796481 -3.000468 -1.558981 -2.684843 -2.121481 -2.122343 C -2.683981 -1.559843 -2.999606 -0.794218 -2.999606 -0.000468 C -2.999606 0.796407 -2.683981 1.558907 -2.121481 2.121407 C -1.558981 2.683907 -0.796481 2.999532 0.000394 2.999532 Z M 0.000394 2.999532 " transform="matrix(1.25,0,0,1.25,170.683101,56.594335)"/>
<path style="fill-rule:nonzero;fill:rgb(100%,49.803922%,5.490196%);fill-opacity:0.501961;stroke-width:1;stroke-linecap:butt;stroke-linejoin:round;stroke:rgb(100%,49.803922%,5.490196%);stroke-opacity:0.501961;stroke-miterlimit:4;" d="M -0.000974 2.998951 C 0.795901 2.998951 1.558401 2.683326 2.120901 2.120826 C 2.683401 1.558326 2.999026 0.795826 2.999026 -0.001049 C 2.999026 -0.794799 2.683401 -1.557299 2.120901 -2.119799 C 1.558401 -2.685424 0.795901 -3.001049 -0.000974 -3.001049 C -0.794724 -3.001049 -1.557224 -2.685424 -2.122849 -2.119799 C -2.685349 -1.557299 -3.000974 -0.794799 -3.000974 -0.001049 C -3.000974 0.795826 -2.685349 1.558326 -2.122849 2.120826 C -1.557224 2.683326 -0.794724 2.998951 -0.000974 2.998951 Z M -0.000974 2.998951 " transform="matrix(1.25,0,0,1.25,175.083249,71.118499)"/>
<path style="fill-rule:nonzero;fill:rgb(100%,49.803922%,5.490196%);fill-opacity:0.501961;stroke-width:1;stroke-linecap:butt;stroke-linejoin:round;stroke:rgb(100%,49.803922%,5.490196%);stroke-opacity:0.501961;stroke-miterlimit:4;" d="M 0.000749 2.998806 C 0.794499 2.998806 1.560124 2.683181 2.122624 2.120681 C 2.685124 1.558181 3.000749 0.795681 3.000749 -0.001194 C 3.000749 -0.794944 2.685124 -1.557444 2.122624 -2.119944 C 1.560124 -2.682444 0.794499 -3.001194 0.000749 -3.001194 C -0.796126 -3.001194 -1.558626 -2.682444 -2.121126 -2.119944 C -2.683626 -1.557444 -2.999251 -0.794944 -2.999251 -0.001194 C -2.999251 0.795681 -2.683626 1.558181 -2.121126 2.120681 C -1.558626 2.683181 -0.796126 2.998806 0.000749 2.998806 Z M 0.000749 2.998806 " transform="matrix(1.25,0,0,1.25,175.522501,52.517117)"/>
<path style="fill-rule:nonzero;fill:rgb(100%,49.803922%,5.490196%);fill-opacity:0.501961;stroke-width:1;stroke-linecap:butt;stroke-linejoin:round;stroke:rgb(100%,49.803922%,5.490196%);stroke-opacity:0.501961;stroke-miterlimit:4;" d="M 0.001276 2.99963 C 0.795026 2.99963 1.557526 2.684005 2.120026 2.121505 C 2.682526 1.559005 3.001276 0.796505 3.001276 -0.00037 C 3.001276 -0.79412 2.682526 -1.559745 2.120026 -2.122245 C 1.557526 -2.684745 0.795026 -3.00037 0.001276 -3.00037 C -0.795599 -3.00037 -1.558099 -2.684745 -2.120599 -2.122245 C -2.683099 -1.559745 -2.998724 -0.79412 -2.998724 -0.00037 C -2.998724 0.796505 -2.683099 1.559005 -2.120599 2.121505 C -1.558099 2.684005 -0.795599 2.99963 0.001276 2.99963 Z M 0.001276 2.99963 " transform="matrix(1.25,0,0,1.25,179.896842,71.082494)"/>
<path style="fill-rule:nonzero;fill:rgb(100%,49.803922%,5.490196%);fill-opacity:0.501961;stroke-width:1;stroke-linecap:butt;stroke-linejoin:round;stroke:rgb(100%,49.803922%,5.490196%);stroke-opacity:0.501961;stroke-miterlimit:4;" d="M -0.00009 2.999202 C 0.796785 2.999202 1.559285 2.683577 2.121785 2.121077 C 2.684285 1.558577 2.99991 0.796077 2.99991 -0.000798 C 2.99991 -0.794548 2.684285 -1.560173 2.121785 -2.122673 C 1.559285 -2.685173 0.796785 -3.000798 -0.00009 -3.000798 C -0.796965 -3.000798 -1.559465 -2.685173 -2.121965 -2.122673 C -2.684465 -1.560173 -3.00009 -0.794548 -3.00009 -0.000798 C -3.00009 0.796077 -2.684465 1.558577 -2.121965 2.121077 C -1.559465 2.683577 -0.796965 2.999202 -0.00009 2.999202 Z M -0.00009 2.999202 " transform="matrix(1.25,0,0,1.25,185.375113,86.442404)"/>
<path style="fill-rule:nonzero;fill:rgb(100%,49.803922%,5.490196%);fill-opacity:0.501961;stroke-width:1;stroke-linecap:butt;stroke-linejoin:round;stroke:rgb(100%,49.803922%,5.490196%);stroke-opacity:0.501961;stroke-miterlimit:4;" d="M -0.000567 3.000705 C 0.796308 3.000705 1.558808 2.68508 2.121308 2.12258 C 2.683808 1.56008 2.999433 0.794455 2.999433 0.000705 C 2.999433 -0.79617 2.683808 -1.55867 2.121308 -2.12117 C 1.558808 -2.68367 0.796308 -2.999295 -0.000567 -2.999295 C -0.794317 -2.999295 -1.559942 -2.68367 -2.122442 -2.12117 C -2.684942 -1.55867 -3.000567 -0.79617 -3.000567 0.000705 C -3.000567 0.794455 -2.684942 1.56008 -2.122442 2.12258 C -1.559942 2.68508 -0.794317 3.000705 -0.000567 3.000705 Z M -0.000567 3.000705 " transform="matrix(1.25,0,0,1.25,187.11399,78.022556)"/>
<path style="fill-rule:nonzero;fill:rgb(100%,49.803922%,5.490196%);fill-opacity:0.501961;stroke-width:1;stroke-linecap:butt;stroke-linejoin:round;stroke:rgb(100%,49.803922%,5.490196%);stroke-opacity:0.501961;stroke-miterlimit:4;" d="M -0.001521 3.001057 C 0.795354 3.001057 1.557854 2.685432 2.120354 2.119807 C 2.682854 1.557307 2.998479 0.794807 2.998479 0.001057 C 2.998479 -0.795818 2.682854 -1.558318 2.120354 -2.120818 C 1.557854 -2.683318 0.795354 -2.998943 -0.001521 -2.998943 C -0.795271 -2.998943 -1.557771 -2.683318 -2.120271 -2.120818 C -2.682771 -1.558318 -3.001521 -0.795818 -3.001521 0.001057 C -3.001521 0.794807 -2.682771 1.557307 -2.120271 2.119807 C -1.557771 2.685432 -0.795271 3.001057 -0.001521 3.001057 Z M -0.001521 3.001057 " transform="matrix(1.25,0,0,1.25,187.533151,45.822898)"/>
<path style="fill-rule:nonzero;fill:rgb(100%,49.803922%,5.490196%);fill-opacity:0.501961;stroke-width:1;stroke-linecap:butt;stroke-linejoin:round;stroke:rgb(100%,49.803922%,5.490196%);stroke-opacity:0.501961;stroke-miterlimit:4;" d="M 0.001263 3.001146 C 0.795013 3.001146 1.557513 2.682396 2.120013 2.119896 C 2.682513 1.557396 3.001263 0.794896 3.001263 0.001146 C 3.001263 -0.795729 2.682513 -1.558229 2.120013 -2.120729 C 1.557513 -2.683229 0.795013 -2.998854 0.001263 -2.998854 C -0.795612 -2.998854 -1.558112 -2.683229 -2.120612 -2.120729 C -2.683112 -1.558229 -2.998737 -0.795729 -2.998737 0.001146 C -2.998737 0.794896 -2.683112 1.557396 -2.120612 2.119896 C -1.558112 2.682396 -0.795612 3.001146 0.001263 3.001146 Z M 0.001263 3.001146 " transform="matrix(1.25,0,0,1.25,195.959359,81.170442)"/>
<path style="fill-rule:nonzero;fill:rgb(100%,49.803922%,5.490196%);fill-opacity:0.501961;stroke-width:1;stroke-linecap:butt;stroke-linejoin:round;stroke:rgb(100%,49.803922%,5.490196%);stroke-opacity:0.501961;stroke-miterlimit:4;" d="M -0.000767 2.998798 C 0.796108 2.998798 1.558608 2.683173 2.121108 2.120673 C 2.683608 1.558173 2.999233 0.795673 2.999233 -0.001202 C 2.999233 -0.794952 2.683608 -1.557452 2.121108 -2.119952 C 1.558608 -2.682452 0.796108 -3.001202 -0.000767 -3.001202 C -0.794517 -3.001202 -1.560142 -2.682452 -2.122642 -2.119952 C -2.685142 -1.557452 -3.000767 -0.794952 -3.000767 -0.001202 C -3.000767 0.795673 -2.685142 1.558173 -2.122642 2.120673 C -1.560142 2.683173 -0.794517 2.998798 -0.000767 2.998798 Z M -0.000767 2.998798 " transform="matrix(1.25,0,0,1.25,201.665021,89.052284)"/>
<path style="fill-rule:nonzero;fill:rgb(100%,49.803922%,5.490196%);fill-opacity:0.501961;stroke-width:1;stroke-linecap:butt;stroke-linejoin:round;stroke:rgb(100%,49.803922%,5.490196%);stroke-opacity:0.501961;stroke-miterlimit:4;" d="M -0.000212 3.001051 C 0.796663 3.001051 1.559163 2.685426 2.121663 2.119801 C 2.684163 1.557301 2.999788 0.794801 2.999788 0.001051 C 2.999788 -0.795824 2.684163 -1.558324 2.121663 -2.120824 C 1.559163 -2.683324 0.796663 -2.998949 -0.000212 -2.998949 C -0.797087 -2.998949 -1.559587 -2.683324 -2.122087 -2.120824 C -2.684587 -1.558324 -3.000212 -0.795824 -3.000212 0.001051 C -3.000212 0.794801 -2.684587 1.557301 -2.122087 2.119801 C -1.559587 2.685426 -0.797087 3.001051 -0.000212 3.001051 Z M -0.000212 3.001051 " transform="matrix(1.25,0,0,1.25,206.004171,78.71353)"/>
<path style="fill-rule:nonzero;fill:rgb(100%,49.803922%,5.490196%);fill-opacity:0.501961;stroke-width:1;stroke-linecap:butt;stroke-linejoin:round;stroke:rgb(100%,49.803922%,5.490196%);stroke-opacity:0.501961;stroke-miterlimit:4;" d="M 0.000816 3.001043 C 0.794566 3.001043 1.560191 2.685418 2.122691 2.119793 C 2.685191 1.557293 3.000816 0.794793 3.000816 0.001043 C 3.000816 -0.795832 2.685191 -1.558332 2.122691 -2.120832 C 1.560191 -2.683332 0.794566 -2.998957 0.000816 -2.998957 C -0.796059 -2.998957 -1.558559 -2.683332 -2.121059 -2.120832 C -2.683559 -1.558332 -2.999184 -0.795832 -2.999184 0.001043 C -2.999184 0.794793 -2.683559 1.557293 -2.121059 2.119793 C -1.558559 2.685418 -0.796059 3.001043 0.000816 3.001043 Z M 0.000816 3.001043 " transform="matrix(1.25,0,0,1.25,209.202105,96.303384)"/>
<path style="fill-rule:nonzero;fill:rgb(100%,49.803922%,5.490196%);fill-opacity:0.501961;stroke-width:1;stroke-linecap:butt;stroke-linejoin:round;stroke:rgb(100%,49.803922%,5.490196%);stroke-opacity:0.501961;stroke-miterlimit:4;" d="M -0.000399 3.000871 C 0.796476 3.000871 1.558976 2.685246 2.121476 2.122746 C 2.683976 1.560246 2.999601 0.794621 2.999601 0.000871 C 2.999601 -0.796004 2.683976 -1.558504 2.121476 -2.121004 C 1.558976 -2.683504 0.796476 -2.999129 -0.000399 -2.999129 C -0.794149 -2.999129 -1.559774 -2.683504 -2.122274 -2.121004 C -2.684774 -1.558504 -3.000399 -0.796004 -3.000399 0.000871 C -3.000399 0.794621 -2.684774 1.560246 -2.122274 2.122746 C -1.559774 2.685246 -0.794149 3.000871 -0.000399 3.000871 Z M -0.000399 3.000871 " transform="matrix(1.25,0,0,1.25,214.012218,83.643443)"/>
<path style="fill-rule:nonzero;fill:rgb(100%,49.803922%,5.490196%);fill-opacity:0.501961;stroke-width:1;stroke-linecap:butt;stroke-linejoin:round;stroke:rgb(100%,49.803922%,5.490196%);stroke-opacity:0.501961;stroke-miterlimit:4;" d="M -0.000293 2.99954 C 0.796582 2.99954 1.559082 2.683915 2.121582 2.121415 C 2.684082 1.558915 2.999707 0.796415 2.999707 -0.00046 C 2.999707 -0.79421 2.684082 -1.559835 2.121582 -2.122335 C 1.559082 -2.684835 0.796582 -3.00046 -0.000293 -3.00046 C -0.797168 -3.00046 -1.559668 -2.684835 -2.122168 -2.122335 C -2.684668 -1.559835 -3.000293 -0.79421 -3.000293 -0.00046 C -3.000293 0.796415 -2.684668 1.558915 -2.122168 2.121415 C -1.559668 2.683915 -0.797168 2.99954 -0.000293 2.99954 Z M -0.000293 2.99954 " transform="matrix(1.25,0,0,1.25,221.844116,98.414638)"/>
<path style="fill-rule:nonzero;fill:rgb(100%,49.803922%,5.490196%);fill-opacity:0.501961;stroke-width:1;stroke-linecap:butt;stroke-linejoin:round;stroke:rgb(100%,49.803922%,5.490196%);stroke-opacity:0.501961;stroke-miterlimit:4;" d="M -0.001116 3.000609 C 0.795759 3.000609 1.558259 2.684984 2.120759 2.122484 C 2.683259 1.559984 2.998884 0.794359 2.998884 0.000609 C 2.998884 -0.796266 2.683259 -1.558766 2.120759 -2.121266 C 1.558259 -2.683766 0.795759 -2.999391 -0.001116 -2.999391 C -0.794866 -2.999391 -1.557366 -2.683766 -2.119866 -2.121266 C -2.682366 -1.558766 -3.001116 -0.796266 -3.001116 0.000609 C -3.001116 0.794359 -2.682366 1.559984 -2.119866 2.122484 C -1.557366 2.684984 -0.794866 3.000609 -0.001116 3.000609 Z M -0.001116 3.000609 " transform="matrix(1.25,0,0,1.25,222.76702,102.76877)"/>
<path style="fill-rule:nonzero;fill:rgb(100%,49.803922%,5.490196%);fill-opacity:0.501961;stroke-width:1;stroke-linecap:butt;stroke-linejoin:round;stroke:rgb(100%,49.803922%,5.490196%);stroke-opacity:0.501961;stroke-miterlimit:4;" d="M -0.000529 2.998965 C 0.796346 2.998965 1.558846 2.68334 2.121346 2.12084 C 2.683846 1.55834 2.999471 0.79584 2.999471 -0.001035 C 2.999471 -0.794785 2.683846 -1.557285 2.121346 -2.119785 C 1.558846 -2.68541 0.796346 -3.001035 -0.000529 -3.001035 C -0.794279 -3.001035 -1.559904 -2.68541 -2.122404 -2.119785 C -2.684904 -1.557285 -3.000529 -0.794785 -3.000529 -0.001035 C -3.000529 0.79584 -2.684904 1.55834 -2.122404 2.12084 C -1.559904 2.68334 -0.794279 2.998965 -0.000529 2.998965 Z M -0.000529 2.998965 " transform="matrix(1.25,0,0,1.25,226.391286,60.704419)"/>
<path style="fill-rule:nonzero;fill:rgb(100%,49.803922%,5.490196%);fill-opacity:0.501961;stroke-width:1;stroke-linecap:butt;stroke-linejoin:round;stroke:rgb(100%,49.803922%,5.490196%);stroke-opacity:0.501961;stroke-miterlimit:4;" d="M 0.00059 3.001332 C 0.79434 3.001332 1.559965 2.682582 2.122465 2.120082 C 2.684965 1.557582 3.00059 0.795082 3.00059 0.001332 C 3.00059 -0.795543 2.684965 -1.558043 2.122465 -2.120543 C 1.559965 -2.683043 0.79434 -2.998668 0.00059 -2.998668 C -0.796285 -2.998668 -1.558785 -2.683043 -2.121285 -2.120543 C -2.683785 -1.558043 -2.99941 -0.795543 -2.99941 0.001332 C -2.99941 0.795082 -2.683785 1.557582 -2.121285 2.120082 C -1.558785 2.682582 -0.796285 3.001332 0.00059 3.001332 Z M 0.00059 3.001332 " transform="matrix(1.25,0,0,1.25,230.436763,102.744429)"/>
<path style="fill-rule:nonzero;fill:rgb(100%,49.803922%,5.490196%);fill-opacity:0.501961;stroke-width:1;stroke-linecap:butt;stroke-linejoin:round;stroke:rgb(100%,49.803922%,5.490196%);stroke-opacity:0.501961;stroke-miterlimit:4;" d="M -0.000313 2.999844 C 0.796562 2.999844 1.559062 2.684219 2.121562 2.121719 C 2.684062 1.559219 2.999687 0.796719 2.999687 -0.000156 C 2.999687 -0.797031 2.684062 -1.559531 2.121562 -2.122031 C 1.559062 -2.684531 0.796562 -3.000156 -0.000313 -3.000156 C -0.794063 -3.000156 -1.559688 -2.684531 -2.122188 -2.122031 C -2.684688 -1.559531 -3.000313 -0.797031 -3.000313 -0.000156 C -3.000313 0.796719 -2.684688 1.559219 -2.122188 2.121719 C -1.559688 2.684219 -0.794063 2.999844 -0.000313 2.999844 Z M -0.000313 2.999844 " transform="matrix(1.25,0,0,1.25,239.496485,92.445508)"/>
<path style="fill-rule:nonzero;fill:rgb(100%,49.803922%,5.490196%);fill-opacity:0.501961;stroke-width:1;stroke-linecap:butt;stroke-linejoin:round;stroke:rgb(100%,49.803922%,5.490196%);stroke-opacity:0.501961;stroke-miterlimit:4;" d="M -0.001104 2.998774 C 0.795771 2.998774 1.558271 2.683149 2.120771 2.120649 C 2.683271 1.558149 2.998896 0.795649 2.998896 -0.001226 C 2.998896 -0.794976 2.683271 -1.557476 2.120771 -2.119976 C 1.558271 -2.682476 0.795771 -3.001226 -0.001104 -3.001226 C -0.794854 -3.001226 -1.557354 -2.682476 -2.119854 -2.119976 C -2.682354 -1.557476 -3.001104 -0.794976 -3.001104 -0.001226 C -3.001104 0.795649 -2.682354 1.558149 -2.119854 2.120649 C -1.557354 2.683149 -0.794854 2.998774 -0.001104 2.998774 Z M -0.001104 2.998774 " transform="matrix(1.25,0,0,1.25,240.153724,79.864814)"/>
<path style="fill-rule:nonzero;fill:rgb(100%,49.803922%,5.490196%);fill-opacity:0.501961;stroke-width:1;stroke-linecap:butt;stroke-linejoin:round;stroke:rgb(100%,49.803922%,5.490196%);stroke-opacity:0.501961;stroke-miterlimit:4;" d="M -0.001285 3.000062 C 0.79559 3.000062 1.55809 2.684437 2.12059 2.121937 C 2.68309 1.559437 2.998715 0.796937 2.998715 0.000062 C 2.998715 -0.796813 2.68309 -1.559313 2.12059 -2.121813 C 1.55809 -2.684313 0.79559 -2.999938 -0.001285 -2.999938 C -0.795035 -2.999938 -1.557535 -2.684313 -2.120035 -2.121813 C -2.682535 -1.559313 -3.001285 -0.796813 -3.001285 0.000062 C -3.001285 0.796937 -2.682535 1.559437 -2.120035 2.121937 C -1.557535 2.684437 -0.795035 3.000062 -0.001285 3.000062 Z M -0.001285 3.000062 " transform="matrix(1.25,0,0,1.25,252.65395,112.003829)"/>
<path style="fill-rule:nonzero;fill:rgb(100%,49.803922%,5.490196%);fill-opacity:0.501961;stroke-width:1;stroke-linecap:butt;stroke-linejoin:round;stroke:rgb(100%,49.803922%,5.490196%);stroke-opacity:0.501961;stroke-miterlimit:4;" d="M -0.001061 3.001205 C 0.795814 3.001205 1.558314 2.682455 2.120814 2.119955 C 2.683314 1.557455 2.998939 0.794955 2.998939 0.001205 C 2.998939 -0.79567 2.683314 -1.55817 2.120814 -2.12067 C 1.558314 -2.68317 0.795814 -2.998795 -0.001061 -2.998795 C -0.794811 -2.998795 -1.557311 -2.68317 -2.119811 -2.12067 C -2.685436 -1.55817 -3.001061 -0.79567 -3.001061 0.001205 C -3.001061 0.794955 -2.685436 1.557455 -2.119811 2.119955 C -1.557311 2.682455 -0.794811 3.001205 -0.001061 3.001205 Z M -0.001061 3.001205 " transform="matrix(1.25,0,0,1.25,254.290389,106.537556)"/>
<path style="fill-rule:nonzero;fill:rgb(100%,49.803922%,5.490196%);fill-opacity:0.501961;stroke-width:1;stroke-linecap:butt;stroke-linejoin:round;stroke:rgb(100%,49.803922%,5.490196%);stroke-opacity:0.501961;stroke-miterlimit:4;" d="M 0.000927 3.00112 C 0.794677 3.00112 1.560302 2.68237 2.122802 2.11987 C 2.685302 1.55737 3.000927 0.79487 3.000927 0.00112 C 3.000927 -0.795755 2.685302 -1.558255 2.122802 -2.120755 C 1.560302 -2.683255 0.794677 -2.99888 0.000927 -2.99888 C -0.795948 -2.99888 -1.558448 -2.683255 -2.120948 -2.120755 C -2.683448 -1.558255 -2.999073 -0.795755 -2.999073 0.00112 C -2.999073 0.79487 -2.683448 1.55737 -2.120948 2.11987 C -1.558448 2.68237 -0.795948 3.00112 0.000927 3.00112 Z M 0.000927 3.00112 " transform="matrix(1.25,0,0,1.25,254.76056,93.244694)"/>
<path style="fill-rule:nonzero;fill:rgb(100%,49.803922%,5.490196%);fill-opacity:0.501961;stroke-width:1;stroke-linecap:butt;stroke-linejoin:round;stroke:rgb(100%,49.803922%,5.490196%);stroke-opacity:0.501961;stroke-miterlimit:4;" d="M -0.000459 3.001465 C 0.796416 3.001465 1.558916 2.682715 2.121416 2.120215 C 2.683916 1.557715 2.999541 0.795215 2.999541 0.001465 C 2.999541 -0.79541 2.683916 -1.55791 2.121416 -2.12041 C 1.558916 -2.68291 0.796416 -2.998535 -0.000459 -2.998535 C -0.794209 -2.998535 -1.559834 -2.68291 -2.122334 -2.12041 C -2.684834 -1.55791 -3.000459 -0.79541 -3.000459 0.001465 C -3.000459 0.795215 -2.684834 1.557715 -2.122334 2.120215 C -1.559834 2.682715 -0.794209 3.001465 -0.000459 3.001465 Z M -0.000459 3.001465 " transform="matrix(1.25,0,0,1.25,264.62948,114.615356)"/>
<path style="fill-rule:nonzero;fill:rgb(100%,49.803922%,5.490196%);fill-opacity:0.501961;stroke-width:1;stroke-linecap:butt;stroke-linejoin:round;stroke:rgb(100%,49.803922%,5.490196%);stroke-opacity:0.501961;stroke-miterlimit:4;" d="M 0.000813 2.998713 C 0.794563 2.998713 1.560188 2.683088 2.122688 2.120588 C 2.685188 1.558088 3.000813 0.795588 3.000813 -0.001287 C 3.000813 -0.795037 2.685188 -1.557537 2.122688 -2.120037 C 1.560188 -2.682537 0.794563 -3.001287 0.000813 -3.001287 C -0.796062 -3.001287 -1.558562 -2.682537 -2.121062 -2.120037 C -2.683562 -1.557537 -2.999187 -0.795037 -2.999187 -0.001287 C -2.999187 0.795588 -2.683562 1.558088 -2.121062 2.120588 C -1.558562 2.683088 -0.796062 2.998713 0.000813 2.998713 Z M 0.000813 2.998713 " transform="matrix(1.25,0,0,1.25,265.756796,103.837546)"/>
<path style="fill-rule:nonzero;fill:rgb(100%,49.803922%,5.490196%);fill-opacity:0.501961;stroke-width:1;stroke-linecap:butt;stroke-linejoin:round;stroke:rgb(100%,49.803922%,5.490196%);stroke-opacity:0.501961;stroke-miterlimit:4;" d="M 0.000593 3.000855 C 0.794343 3.000855 1.559968 2.68523 2.122468 2.12273 C 2.684968 1.56023 3.000593 0.794605 3.000593 0.000855 C 3.000593 -0.79602 2.684968 -1.55852 2.122468 -2.12102 C 1.559968 -2.68352 0.794343 -2.999145 0.000593 -2.999145 C -0.796282 -2.999145 -1.558782 -2.68352 -2.121282 -2.12102 C -2.683782 -1.55852 -2.999407 -0.79602 -2.999407 0.000855 C -2.999407 0.794605 -2.683782 1.56023 -2.121282 2.12273 C -1.558782 2.68523 -0.796282 3.000855 0.000593 3.000855 Z M 0.000593 3.000855 " transform="matrix(1.25,0,0,1.25,266.671134,123.2294)"/>
<path style="fill-rule:nonzero;fill:rgb(100%,49.803922%,5.490196%);fill-opacity:0.501961;stroke-width:1;stroke-linecap:butt;stroke-linejoin:round;stroke:rgb(100%,49.803922%,5.490196%);stroke-opacity:0.501961;stroke-miterlimit:4;" d="M 0.00007 2.999824 C 0.796945 2.999824 1.559445 2.684199 2.121945 2.121699 C 2.684445 1.559199 3.00007 0.796699 3.00007 -0.000176 C 3.00007 -0.797051 2.684445 -1.559551 2.121945 -2.122051 C 1.559445 -2.684551 0.796945 -3.000176 0.00007 -3.000176 C -0.796805 -3.000176 -1.559305 -2.684551 -2.121805 -2.122051 C -2.684305 -1.559551 -2.99993 -0.797051 -2.99993 -0.000176 C -2.99993 0.796699 -2.684305 1.559199 -2.121805 2.121699 C -1.559305 2.684199 -0.796805 2.999824 0.00007 2.999824 Z M 0.00007 2.999824 " transform="matrix(1.25,0,0,1.25,284.738194,114.597876)"/>
<path style="fill-rule:nonzero;fill:rgb(100%,49.803922%,5.490196%);fill-opacity:0.501961;stroke-width:1;stroke-linecap:butt;stroke-linejoin:round;stroke:rgb(100%,49.803922%,5.490196%);stroke-opacity:0.501961;stroke-miterlimit:4;" d="M -0.000993 3.000667 C 0.795882 3.000667 1.558382 2.685042 2.120882 2.122542 C 2.683382 1.560042 2.999007 0.794417 2.999007 0.000667 C 2.999007 -0.796208 2.683382 -1.558708 2.120882 -2.121208 C 1.558382 -2.683708 0.795882 -2.999333 -0.000993 -2.999333 C -0.794743 -2.999333 -1.557243 -2.683708 -2.122868 -2.121208 C -2.685368 -1.558708 -3.000993 -0.796208 -3.000993 0.000667 C -3.000993 0.794417 -2.685368 1.560042 -2.122868 2.122542 C -1.557243 2.685042 -0.794743 3.000667 -0.000993 3.000667 Z M -0.000993 3.000667 " transform="matrix(1.25,0,0,1.25,285.802023,95.831198)"/>
<path style="fill-rule:nonzero;fill:rgb(100%,49.803922%,5.490196%);fill-opacity:0.501961;stroke-width:1;stroke-linecap:butt;stroke-linejoin:round;stroke:rgb(100%,49.803922%,5.490196%);stroke-opacity:0.501961;stroke-miterlimit:4;" d="M 0.001169 3.000603 C 0.794919 3.000603 1.557419 2.684978 2.119919 2.122478 C 2.682419 1.559978 3.001169 0.794353 3.001169 0.000603 C 3.001169 -0.796272 2.682419 -1.558772 2.119919 -2.121272 C 1.557419 -2.683772 0.794919 -2.999397 0.001169 -2.999397 C -0.795706 -2.999397 -1.558206 -2.683772 -2.120706 -2.121272 C -2.683206 -1.558772 -2.998831 -0.796272 -2.998831 0.000603 C -2.998831 0.794353 -2.683206 1.559978 -2.120706 2.122478 C -1.558206 2.684978 -0.795706 3.000603 0.001169 3.000603 Z M 0.001169 3.000603 " transform="matrix(1.25,0,0,1.25,290.08057,79.592996)"/>
<path style="fill-rule:nonzero;fill:rgb(100%,49.803922%,5.490196%);fill-opacity:0.501961;stroke-width:1;stroke-linecap:butt;stroke-linejoin:round;stroke:rgb(100%,49.803922%,5.490196%);stroke-opacity:0.501961;stroke-miterlimit:4;" d="M 0.000549 2.998543 C 0.794299 2.998543 1.559924 2.682918 2.122424 2.120418 C 2.684924 1.557918 3.000549 0.795418 3.000549 -0.001457 C 3.000549 -0.795207 2.684924 -1.557707 2.122424 -2.120207 C 1.559924 -2.682707 0.794299 -3.001457 0.000549 -3.001457 C -0.796326 -3.001457 -1.558826 -2.682707 -2.121326 -2.120207 C -2.683826 -1.557707 -2.999451 -0.795207 -2.999451 -0.001457 C -2.999451 0.795418 -2.683826 1.557918 -2.121326 2.120418 C -1.558826 2.682918 -0.796326 2.998543 0.000549 2.998543 Z M 0.000549 2.998543 " transform="matrix(1.25,0,0,1.25,291.561814,123.896352)"/>
<g clip-path="url(#clip16)" clip-rule="nonzero">
<path style=" stroke:none;fill-rule:nonzero;fill:rgb(100%,49.803922%,5.490196%);fill-opacity:0.501961;" d="M 296.980469 109.152344 C 297.972656 109.152344 298.925781 108.757812 299.628906 108.054688 C 300.332031 107.351562 300.730469 106.398438 300.730469 105.402344 C 300.730469 104.410156 300.332031 103.457031 299.628906 102.753906 C 298.925781 102.050781 297.972656 101.652344 296.980469 101.652344 C 295.984375 101.652344 295.03125 102.050781 294.328125 102.753906 C 293.625 103.457031 293.230469 104.410156 293.230469 105.402344 C 293.230469 106.398438 293.625 107.351562 294.328125 108.054688 C 295.03125 108.757812 295.984375 109.152344 296.980469 109.152344 Z M 296.980469 109.152344 "/>
</g>
<g clip-path="url(#clip17)" clip-rule="nonzero">
<path style="fill:none;stroke-width:1;stroke-linecap:butt;stroke-linejoin:round;stroke:rgb(100%,49.803922%,5.490196%);stroke-opacity:0.501961;stroke-miterlimit:4;" d="M 0.001385 2.998861 C 0.795135 2.998861 1.557635 2.683236 2.120135 2.120736 C 2.682635 1.558236 3.001385 0.795736 3.001385 -0.001139 C 3.001385 -0.794889 2.682635 -1.557389 2.120135 -2.119889 C 1.557635 -2.682389 0.795135 -3.001139 0.001385 -3.001139 C -0.79549 -3.001139 -1.55799 -2.682389 -2.12049 -2.119889 C -2.68299 -1.557389 -2.998615 -0.794889 -2.998615 -0.001139 C -2.998615 0.795736 -2.68299 1.558236 -2.12049 2.120736 C -1.55799 2.683236 -0.79549 2.998861 0.001385 2.998861 Z M 0.001385 2.998861 " transform="matrix(1.25,0,0,1.25,296.978737,105.403768)"/>
</g>
<path style="fill:none;stroke-width:0.8;stroke-linecap:square;stroke-linejoin:miter;stroke:rgb(0%,0%,0%);stroke-opacity:1;stroke-miterlimit:4;" d="M 42.61875 146.9 L 42.61875 11 " transform="matrix(1.25,0,0,1.25,0,0)"/>
<path style="fill:none;stroke-width:0.8;stroke-linecap:square;stroke-linejoin:miter;stroke:rgb(0%,0%,0%);stroke-opacity:1;stroke-miterlimit:4;" d="M 237.921875 146.9 L 237.921875 11 " transform="matrix(1.25,0,0,1.25,0,0)"/>
<path style="fill:none;stroke-width:0.8;stroke-linecap:square;stroke-linejoin:miter;stroke:rgb(0%,0%,0%);stroke-opacity:1;stroke-miterlimit:4;" d="M 42.61875 146.9 L 237.921875 146.9 " transform="matrix(1.25,0,0,1.25,0,0)"/>
<path style="fill:none;stroke-width:0.8;stroke-linecap:square;stroke-linejoin:miter;stroke:rgb(0%,0%,0%);stroke-opacity:1;stroke-miterlimit:4;" d="M 42.61875 11 L 237.921875 11 " transform="matrix(1.25,0,0,1.25,0,0)"/>
<use xlink:href="#surface5" mask="url(#mask0)"/>
<path style="fill:none;stroke-width:1.5;stroke-linecap:square;stroke-linejoin:round;stroke:rgb(12.156863%,46.666667%,70.588235%);stroke-opacity:1;stroke-miterlimit:4;" d="M 175.58125 24.096875 L 195.58125 24.096875 " transform="matrix(1.25,0,0,1.25,0,0)"/>
<path style=" stroke:none;fill-rule:nonzero;fill:rgb(0%,0%,0%);fill-opacity:1;" d="M 254.4375 25.382812 L 262.148438 25.382812 L 262.148438 26.421875 L 258.914062 26.421875 L 258.914062 34.496094 L 257.675781 34.496094 L 257.675781 26.421875 L 254.4375 26.421875 Z M 254.4375 25.382812 "/>
<path style=" stroke:none;fill-rule:nonzero;fill:rgb(0%,0%,0%);fill-opacity:1;" d="M 265.40625 28.710938 C 265.28125 28.636719 265.144531 28.582031 264.996094 28.550781 C 264.847656 28.515625 264.683594 28.496094 264.503906 28.496094 C 263.871094 28.496094 263.382812 28.703125 263.042969 29.117188 C 262.703125 29.527344 262.53125 30.121094 262.53125 30.894531 L 262.53125 34.496094 L 261.402344 34.496094 L 261.402344 27.660156 L 262.53125 27.660156 L 262.53125 28.722656 C 262.769531 28.308594 263.078125 28 263.453125 27.800781 C 263.832031 27.597656 264.292969 27.496094 264.835938 27.496094 C 264.910156 27.496094 264.996094 27.503906 265.089844 27.511719 C 265.183594 27.523438 265.289062 27.535156 265.402344 27.558594 Z M 265.40625 28.710938 "/>
<path style=" stroke:none;fill-rule:nonzero;fill:rgb(0%,0%,0%);fill-opacity:1;" d="M 266.46875 31.800781 L 266.46875 27.660156 L 267.59375 27.660156 L 267.59375 31.757812 C 267.59375 32.402344 267.71875 32.890625 267.96875 33.214844 C 268.222656 33.535156 268.601562 33.699219 269.105469 33.699219 C 269.710938 33.699219 270.191406 33.503906 270.542969 33.117188 C 270.894531 32.730469 271.070312 32.203125 271.070312 31.535156 L 271.070312 27.660156 L 272.195312 27.660156 L 272.195312 34.496094 L 271.070312 34.496094 L 271.070312 33.445312 C 270.800781 33.863281 270.484375 34.171875 270.121094 34.371094 C 269.761719 34.574219 269.34375 34.675781 268.867188 34.675781 C 268.082031 34.675781 267.488281 34.429688 267.078125 33.941406 C 266.671875 33.453125 266.46875 32.738281 266.46875 31.800781 Z M 269.296875 27.496094 Z M 269.296875 27.496094 "/>
<path style=" stroke:none;fill-rule:nonzero;fill:rgb(0%,0%,0%);fill-opacity:1;" d="M 275.617188 25.71875 L 275.617188 27.660156 L 277.929688 27.660156 L 277.929688 28.535156 L 275.617188 28.535156 L 275.617188 32.246094 C 275.617188 32.800781 275.695312 33.160156 275.847656 33.320312 C 276 33.476562 276.308594 33.558594 276.777344 33.558594 L 277.929688 33.558594 L 277.929688 34.496094 L 276.777344 34.496094 C 275.910156 34.496094 275.3125 34.335938 274.984375 34.011719 C 274.65625 33.6875 274.488281 33.097656 274.488281 32.246094 L 274.488281 28.535156 L 273.664062 28.535156 L 273.664062 27.660156 L 274.488281 27.660156 L 274.488281 25.71875 Z M 275.617188 25.71875 "/>
<path style=" stroke:none;fill-rule:nonzero;fill:rgb(0%,0%,0%);fill-opacity:1;" d="M 285.09375 30.371094 L 285.09375 34.496094 L 283.96875 34.496094 L 283.96875 30.40625 C 283.96875 29.761719 283.84375 29.277344 283.589844 28.957031 C 283.335938 28.632812 282.960938 28.472656 282.457031 28.472656 C 281.847656 28.472656 281.371094 28.667969 281.019531 29.054688 C 280.667969 29.4375 280.496094 29.964844 280.496094 30.632812 L 280.496094 34.496094 L 279.367188 34.496094 L 279.367188 25 L 280.496094 25 L 280.496094 28.722656 C 280.765625 28.3125 281.082031 28.003906 281.445312 27.800781 C 281.808594 27.597656 282.230469 27.496094 282.707031 27.496094 C 283.492188 27.496094 284.085938 27.738281 284.488281 28.226562 C 284.890625 28.710938 285.09375 29.425781 285.09375 30.371094 Z M 285.09375 30.371094 "/>
<path style="fill:none;stroke-width:1.5;stroke-linecap:butt;stroke-linejoin:round;stroke:rgb(74.901961%,0%,74.901961%);stroke-opacity:1;stroke-dasharray:5.55,2.4;stroke-miterlimit:4;" d="M 175.58125 38.775 L 195.58125 38.775 " transform="matrix(1.25,0,0,1.25,0,0)"/>
<path style=" stroke:none;fill-rule:nonzero;fill:rgb(0%,0%,0%);fill-opacity:1;" d="M 256.9375 44.746094 L 256.9375 48.167969 L 258.484375 48.167969 C 259.0625 48.167969 259.503906 48.019531 259.816406 47.722656 C 260.128906 47.425781 260.289062 47.003906 260.289062 46.453125 C 260.289062 45.910156 260.128906 45.488281 259.816406 45.191406 C 259.503906 44.894531 259.0625 44.746094 258.484375 44.746094 Z M 255.703125 43.730469 L 258.484375 43.730469 C 259.507812 43.730469 260.28125 43.960938 260.804688 44.425781 C 261.328125 44.886719 261.585938 45.5625 261.585938 46.453125 C 261.585938 47.355469 261.328125 48.035156 260.804688 48.492188 C 260.28125 48.953125 259.507812 49.183594 258.484375 49.183594 L 256.9375 49.183594 L 256.9375 52.84375 L 255.703125 52.84375 Z M 255.703125 43.730469 "/>
<path style=" stroke:none;fill-rule:nonzero;fill:rgb(0%,0%,0%);fill-opacity:1;" d="M 266.933594 47.058594 C 266.808594 46.984375 266.671875 46.929688 266.523438 46.898438 C 266.375 46.863281 266.210938 46.84375 266.03125 46.84375 C 265.398438 46.84375 264.910156 47.050781 264.570312 47.464844 C 264.230469 47.875 264.058594 48.46875 264.058594 49.242188 L 264.058594 52.84375 L 262.929688 52.84375 L 262.929688 46.007812 L 264.058594 46.007812 L 264.058594 47.070312 C 264.296875 46.65625 264.605469 46.347656 264.980469 46.148438 C 265.359375 45.945312 265.820312 45.84375 266.363281 45.84375 C 266.4375 45.84375 266.523438 45.851562 266.617188 45.859375 C 266.710938 45.871094 266.816406 45.882812 266.929688 45.90625 Z M 266.933594 47.058594 "/>
<path style=" stroke:none;fill-rule:nonzero;fill:rgb(0%,0%,0%);fill-opacity:1;" d="M 273.679688 49.144531 L 273.679688 49.695312 L 268.515625 49.695312 C 268.5625 50.46875 268.796875 51.058594 269.214844 51.460938 C 269.628906 51.867188 270.210938 52.070312 270.957031 52.070312 C 271.386719 52.070312 271.804688 52.015625 272.210938 51.910156 C 272.613281 51.804688 273.015625 51.648438 273.417969 51.433594 L 273.417969 52.496094 C 273.011719 52.667969 272.601562 52.796875 272.175781 52.886719 C 271.753906 52.976562 271.324219 53.023438 270.890625 53.023438 C 269.796875 53.023438 268.933594 52.707031 268.296875 52.070312 C 267.660156 51.4375 267.34375 50.578125 267.34375 49.492188 C 267.34375 48.375 267.644531 47.488281 268.25 46.832031 C 268.851562 46.171875 269.667969 45.84375 270.695312 45.84375 C 271.613281 45.84375 272.339844 46.140625 272.875 46.734375 C 273.410156 47.324219 273.679688 48.128906 273.679688 49.144531 Z M 272.554688 48.816406 C 272.546875 48.203125 272.375 47.710938 272.039062 47.347656 C 271.703125 46.980469 271.257812 46.796875 270.707031 46.796875 C 270.078125 46.796875 269.578125 46.972656 269.203125 47.328125 C 268.824219 47.679688 268.609375 48.179688 268.550781 48.824219 Z M 272.554688 48.816406 "/>
<path style=" stroke:none;fill-rule:nonzero;fill:rgb(0%,0%,0%);fill-opacity:1;" d="M 280.019531 47.046875 L 280.019531 43.347656 L 281.144531 43.347656 L 281.144531 52.84375 L 280.019531 52.84375 L 280.019531 51.820312 C 279.785156 52.226562 279.484375 52.527344 279.125 52.726562 C 278.765625 52.921875 278.332031 53.023438 277.828125 53.023438 C 277.003906 53.023438 276.332031 52.691406 275.8125 52.035156 C 275.292969 51.375 275.035156 50.507812 275.035156 49.433594 C 275.035156 48.359375 275.292969 47.492188 275.8125 46.832031 C 276.332031 46.175781 277.003906 45.84375 277.828125 45.84375 C 278.332031 45.84375 278.765625 45.945312 279.125 46.140625 C 279.484375 46.339844 279.785156 46.640625 280.019531 47.046875 Z M 276.195312 49.433594 C 276.195312 50.257812 276.363281 50.90625 276.703125 51.375 C 277.042969 51.847656 277.511719 52.082031 278.105469 52.082031 C 278.699219 52.082031 279.164062 51.847656 279.507812 51.375 C 279.847656 50.90625 280.019531 50.257812 280.019531 49.433594 C 280.019531 48.605469 279.847656 47.960938 279.507812 47.488281 C 279.164062 47.019531 278.699219 46.785156 278.105469 46.785156 C 277.511719 46.785156 277.042969 47.019531 276.703125 47.488281 C 276.363281 47.960938 276.195312 48.605469 276.195312 49.433594 Z M 276.195312 49.433594 "/>
</g>
</svg>
