<?xml version="1.0" encoding="UTF-8"?>
<svg xmlns="http://www.w3.org/2000/svg" xmlns:xlink="http://www.w3.org/1999/xlink" width="310pt" height="231pt" viewBox="0 0 310 231" version="1.1">
<defs>
<clipPath id="clip1">
  <path d="M 53.273438 13.75 L 54 13.75 L 54 183.625 L 53.273438 183.625 Z M 53.273438 13.75 "/>
</clipPath>
<clipPath id="clip2">
  <path d="M 101 13.75 L 103 13.75 L 103 183.625 L 101 183.625 Z M 101 13.75 "/>
</clipPath>
<clipPath id="clip3">
  <path d="M 150 13.75 L 152 13.75 L 152 183.625 L 150 183.625 Z M 150 13.75 "/>
</clipPath>
<clipPath id="clip4">
  <path d="M 199 13.75 L 201 13.75 L 201 183.625 L 199 183.625 Z M 199 13.75 "/>
</clipPath>
<clipPath id="clip5">
  <path d="M 247 13.75 L 250 13.75 L 250 183.625 L 247 183.625 Z M 247 13.75 "/>
</clipPath>
<clipPath id="clip6">
  <path d="M 296 13.75 L 297.398438 13.75 L 297.398438 183.625 L 296 183.625 Z M 296 13.75 "/>
</clipPath>
<clipPath id="clip7">
  <path d="M 53.273438 182 L 297.398438 182 L 297.398438 183.625 L 53.273438 183.625 Z M 53.273438 182 "/>
</clipPath>
<clipPath id="clip8">
  <path d="M 53.273438 154 L 297.398438 154 L 297.398438 157 L 53.273438 157 Z M 53.273438 154 "/>
</clipPath>
<clipPath id="clip9">
  <path d="M 53.273438 126 L 297.398438 126 L 297.398438 128 L 53.273438 128 Z M 53.273438 126 "/>
</clipPath>
<clipPath id="clip10">
  <path d="M 53.273438 97 L 297.398438 97 L 297.398438 100 L 53.273438 100 Z M 53.273438 97 "/>
</clipPath>
<clipPath id="clip11">
  <path d="M 53.273438 69 L 297.398438 69 L 297.398438 72 L 53.273438 72 Z M 53.273438 69 "/>
</clipPath>
<clipPath id="clip12">
  <path d="M 53.273438 41 L 297.398438 41 L 297.398438 43 L 53.273438 43 Z M 53.273438 41 "/>
</clipPath>
<clipPath id="clip13">
  <path d="M 53.273438 13.75 L 297.398438 13.75 L 297.398438 15 L 53.273438 15 Z M 53.273438 13.75 "/>
</clipPath>
<clipPath id="clip14">
  <path d="M 53.273438 53 L 294 53 L 294 157 L 53.273438 157 Z M 53.273438 53 "/>
</clipPath>
<clipPath id="clip15">
  <path d="M 53.273438 74 L 294 74 L 294 113 L 53.273438 113 Z M 53.273438 74 "/>
</clipPath>
<clipPath id="clip16">
  <path d="M 53.273438 125 L 63 125 L 63 135 L 53.273438 135 Z M 53.273438 125 "/>
</clipPath>
<filter id="alpha" filterUnits="objectBoundingBox" x="0%" y="0%" width="100%" height="100%">
  <feColorMatrix type="matrix" in="SourceGraphic" values="0 0 0 0 1 0 0 0 0 1 0 0 0 0 1 0 0 0 1 0"/>
</filter>
<mask id="mask0">
  <g filter="url(#alpha)">
<rect x="0" y="0" width="310" height="231" style="fill:rgb(0%,0%,0%);fill-opacity:0.8;stroke:none;"/>
  </g>
</mask>
<clipPath id="clip17">
  <rect x="0" y="0" width="310" height="231"/>
</clipPath>
<g id="surface5" clip-path="url(#clip17)">
<path style="fill-rule:nonzero;fill:rgb(100%,100%,100%);fill-opacity:1;stroke-width:1;stroke-linecap:butt;stroke-linejoin:miter;stroke:rgb(80%,80%,80%);stroke-opacity:1;stroke-miterlimit:4;" d="M 173.58125 48.35625 L 230.921875 48.35625 C 232.253125 48.35625 232.921875 47.6875 232.921875 46.35625 L 232.921875 18 C 232.921875 16.665625 232.253125 16 230.921875 16 L 173.58125 16 C 172.246875 16 171.58125 16.665625 171.58125 18 L 171.58125 46.35625 C 171.58125 47.6875 172.246875 48.35625 173.58125 48.35625 Z M 173.58125 48.35625 " transform="matrix(1.25,0,0,1.25,0,0)"/>
</g>
</defs>
<g id="surface1">
<path style=" stroke:none;fill-rule:nonzero;fill:rgb(100%,100%,100%);fill-opacity:1;" d="M 53.273438 183.625 L 297.402344 183.625 L 297.402344 13.75 L 53.273438 13.75 Z M 53.273438 183.625 "/>
<g clip-path="url(#clip1)" clip-rule="nonzero">
<path style="fill:none;stroke-width:0.8;stroke-linecap:square;stroke-linejoin:round;stroke:rgb(69.019608%,69.019608%,69.019608%);stroke-opacity:1;stroke-miterlimit:4;" d="M 42.61875 146.9 L 42.61875 11 " transform="matrix(1.25,0,0,1.25,0,0)"/>
</g>
<path style="fill:none;stroke-width:0.8;stroke-linecap:butt;stroke-linejoin:round;stroke:rgb(0%,0%,0%);stroke-opacity:1;stroke-miterlimit:4;" d="M -0.001562 0.000781 L -0.001562 3.500781 " transform="matrix(1.25,0,0,1.25,53.27539,183.624024)"/>
<path style=" stroke:none;fill-rule:nonzero;fill:rgb(0%,0%,0%);fill-opacity:1;" d="M 53.269531 193.570312 C 52.636719 193.570312 52.160156 193.882812 51.839844 194.507812 C 51.519531 195.132812 51.359375 196.070312 51.359375 197.324219 C 51.359375 198.574219 51.519531 199.511719 51.839844 200.136719 C 52.160156 200.761719 52.636719 201.074219 53.269531 201.074219 C 53.910156 201.074219 54.390625 200.761719 54.707031 200.136719 C 55.027344 199.511719 55.1875 198.574219 55.1875 197.324219 C 55.1875 196.070312 55.027344 195.132812 54.707031 194.507812 C 54.390625 193.882812 53.910156 193.570312 53.269531 193.570312 Z M 53.269531 192.59375 C 54.292969 192.59375 55.074219 193 55.613281 193.808594 C 56.152344 194.613281 56.421875 195.789062 56.421875 197.324219 C 56.421875 198.859375 56.152344 200.03125 55.613281 200.839844 C 55.074219 201.644531 54.292969 202.050781 53.269531 202.050781 C 52.25 202.050781 51.46875 201.644531 50.929688 200.839844 C 50.390625 200.03125 50.121094 198.859375 50.121094 197.324219 C 50.121094 195.789062 50.390625 194.613281 50.929688 193.808594 C 51.46875 193 52.25 192.59375 53.269531 192.59375 Z M 53.269531 192.59375 "/>
<g clip-path="url(#clip2)" clip-rule="nonzero">
<path style="fill:none;stroke-width:0.8;stroke-linecap:square;stroke-linejoin:round;stroke:rgb(69.019608%,69.019608%,69.019608%);stroke-opacity:1;stroke-miterlimit:4;" d="M 81.68125 146.9 L 81.68125 11 " transform="matrix(1.25,0,0,1.25,0,0)"/>
</g>
<path style="fill:none;stroke-width:0.8;stroke-linecap:butt;stroke-linejoin:round;stroke:rgb(0%,0%,0%);stroke-opacity:1;stroke-miterlimit:4;" d="M 0.000938 0.000781 L 0.000938 3.500781 " transform="matrix(1.25,0,0,1.25,102.10039,183.624024)"/>
<path style=" stroke:none;fill-rule:nonzero;fill:rgb(0%,0%,0%);fill-opacity:1;" d="M 99.675781 200.835938 L 101.6875 200.835938 L 101.6875 193.882812 L 99.496094 194.320312 L 99.496094 193.199219 L 101.675781 192.757812 L 102.910156 192.757812 L 102.910156 200.835938 L 104.921875 200.835938 L 104.921875 201.871094 L 99.675781 201.871094 Z M 99.675781 200.835938 "/>
<g clip-path="url(#clip3)" clip-rule="nonzero">
<path style="fill:none;stroke-width:0.8;stroke-linecap:square;stroke-linejoin:round;stroke:rgb(69.019608%,69.019608%,69.019608%);stroke-opacity:1;stroke-miterlimit:4;" d="M 120.740625 146.9 L 120.740625 11 " transform="matrix(1.25,0,0,1.25,0,0)"/>
</g>
<path style="fill:none;stroke-width:0.8;stroke-linecap:butt;stroke-linejoin:round;stroke:rgb(0%,0%,0%);stroke-opacity:1;stroke-miterlimit:4;" d="M 0.000312 0.000781 L 0.000312 3.500781 " transform="matrix(1.25,0,0,1.25,150.925391,183.624024)"/>
<path style=" stroke:none;fill-rule:nonzero;fill:rgb(0%,0%,0%);fill-opacity:1;" d="M 149.347656 200.835938 L 153.648438 200.835938 L 153.648438 201.871094 L 147.863281 201.871094 L 147.863281 200.835938 C 148.332031 200.351562 148.96875 199.699219 149.777344 198.886719 C 150.585938 198.070312 151.09375 197.542969 151.300781 197.304688 C 151.695312 196.863281 151.96875 196.488281 152.125 196.179688 C 152.285156 195.875 152.363281 195.570312 152.363281 195.273438 C 152.363281 194.789062 152.191406 194.394531 151.851562 194.089844 C 151.511719 193.785156 151.070312 193.632812 150.523438 193.632812 C 150.136719 193.632812 149.730469 193.699219 149.300781 193.832031 C 148.871094 193.96875 148.414062 194.171875 147.925781 194.445312 L 147.925781 193.199219 C 148.421875 193 148.886719 192.847656 149.316406 192.746094 C 149.75 192.644531 150.144531 192.59375 150.5 192.59375 C 151.445312 192.59375 152.199219 192.832031 152.757812 193.304688 C 153.320312 193.773438 153.601562 194.40625 153.601562 195.195312 C 153.601562 195.570312 153.53125 195.925781 153.390625 196.261719 C 153.25 196.59375 152.996094 196.992188 152.625 197.445312 C 152.523438 197.566406 152.199219 197.90625 151.652344 198.46875 C 151.109375 199.035156 150.339844 199.820312 149.347656 200.835938 Z M 149.347656 200.835938 "/>
<g clip-path="url(#clip4)" clip-rule="nonzero">
<path style="fill:none;stroke-width:0.8;stroke-linecap:square;stroke-linejoin:round;stroke:rgb(69.019608%,69.019608%,69.019608%);stroke-opacity:1;stroke-miterlimit:4;" d="M 159.8 146.9 L 159.8 11 " transform="matrix(1.25,0,0,1.25,0,0)"/>
</g>
<path style="fill:none;stroke-width:0.8;stroke-linecap:butt;stroke-linejoin:round;stroke:rgb(0%,0%,0%);stroke-opacity:1;stroke-miterlimit:4;" d="M -0.000313 0.000781 L -0.000313 3.500781 " transform="matrix(1.25,0,0,1.25,199.750391,183.624024)"/>
<path style=" stroke:none;fill-rule:nonzero;fill:rgb(0%,0%,0%);fill-opacity:1;" d="M 200.847656 196.957031 C 201.4375 197.085938 201.894531 197.347656 202.226562 197.746094 C 202.558594 198.144531 202.726562 198.636719 202.726562 199.222656 C 202.726562 200.121094 202.414062 200.816406 201.796875 201.3125 C 201.179688 201.804688 200.300781 202.050781 199.160156 202.050781 C 198.777344 202.050781 198.386719 202.011719 197.980469 201.9375 C 197.574219 201.859375 197.15625 201.746094 196.726562 201.597656 L 196.726562 200.40625 C 197.066406 200.605469 197.441406 200.757812 197.847656 200.859375 C 198.253906 200.960938 198.679688 201.011719 199.125 201.011719 C 199.898438 201.011719 200.484375 200.859375 200.890625 200.554688 C 201.296875 200.25 201.5 199.804688 201.5 199.222656 C 201.5 198.6875 201.308594 198.265625 200.933594 197.964844 C 200.558594 197.660156 200.035156 197.507812 199.363281 197.507812 L 198.300781 197.507812 L 198.300781 196.496094 L 199.414062 196.496094 C 200.019531 196.496094 200.480469 196.375 200.804688 196.132812 C 201.125 195.890625 201.285156 195.539062 201.285156 195.085938 C 201.285156 194.617188 201.121094 194.257812 200.789062 194.007812 C 200.457031 193.757812 199.980469 193.632812 199.363281 193.632812 C 199.023438 193.632812 198.664062 193.667969 198.277344 193.742188 C 197.890625 193.816406 197.464844 193.929688 197 194.082031 L 197 192.984375 C 197.46875 192.855469 197.90625 192.757812 198.316406 192.691406 C 198.726562 192.628906 199.109375 192.59375 199.472656 192.59375 C 200.410156 192.59375 201.148438 192.808594 201.695312 193.234375 C 202.238281 193.65625 202.511719 194.230469 202.511719 194.957031 C 202.511719 195.460938 202.367188 195.886719 202.078125 196.234375 C 201.789062 196.582031 201.378906 196.824219 200.847656 196.957031 Z M 200.847656 196.957031 "/>
<g clip-path="url(#clip5)" clip-rule="nonzero">
<path style="fill:none;stroke-width:0.8;stroke-linecap:square;stroke-linejoin:round;stroke:rgb(69.019608%,69.019608%,69.019608%);stroke-opacity:1;stroke-miterlimit:4;" d="M 198.859375 146.9 L 198.859375 11 " transform="matrix(1.25,0,0,1.25,0,0)"/>
</g>
<path style="fill:none;stroke-width:0.8;stroke-linecap:butt;stroke-linejoin:round;stroke:rgb(0%,0%,0%);stroke-opacity:1;stroke-miterlimit:4;" d="M -0.000938 0.000781 L -0.000938 3.500781 " transform="matrix(1.25,0,0,1.25,248.575391,183.624024)"/>
<path style=" stroke:none;fill-rule:nonzero;fill:rgb(0%,0%,0%);fill-opacity:1;" d="M 249.324219 193.832031 L 246.210938 198.699219 L 249.324219 198.699219 Z M 249 192.757812 L 250.550781 192.757812 L 250.550781 198.699219 L 251.851562 198.699219 L 251.851562 199.722656 L 250.550781 199.722656 L 250.550781 201.871094 L 249.324219 201.871094 L 249.324219 199.722656 L 245.210938 199.722656 L 245.210938 198.535156 Z M 249 192.757812 "/>
<g clip-path="url(#clip6)" clip-rule="nonzero">
<path style="fill:none;stroke-width:0.8;stroke-linecap:square;stroke-linejoin:round;stroke:rgb(69.019608%,69.019608%,69.019608%);stroke-opacity:1;stroke-miterlimit:4;" d="M 237.921875 146.9 L 237.921875 11 " transform="matrix(1.25,0,0,1.25,0,0)"/>
</g>
<path style="fill:none;stroke-width:0.8;stroke-linecap:butt;stroke-linejoin:round;stroke:rgb(0%,0%,0%);stroke-opacity:1;stroke-miterlimit:4;" d="M 0.001562 0.000781 L 0.001562 3.500781 " transform="matrix(1.25,0,0,1.25,297.400391,183.624024)"/>
<path style=" stroke:none;fill-rule:nonzero;fill:rgb(0%,0%,0%);fill-opacity:1;" d="M 294.773438 192.757812 L 299.613281 192.757812 L 299.613281 193.796875 L 295.902344 193.796875 L 295.902344 196.03125 C 296.082031 195.96875 296.257812 195.921875 296.4375 195.894531 C 296.617188 195.863281 296.796875 195.847656 296.976562 195.847656 C 297.992188 195.847656 298.800781 196.128906 299.394531 196.683594 C 299.988281 197.242188 300.285156 197.996094 300.285156 198.949219 C 300.285156 199.929688 299.980469 200.691406 299.371094 201.234375 C 298.757812 201.777344 297.898438 202.050781 296.789062 202.050781 C 296.40625 202.050781 296.015625 202.015625 295.617188 201.953125 C 295.222656 201.886719 294.8125 201.789062 294.390625 201.660156 L 294.390625 200.417969 C 294.753906 200.617188 295.132812 200.765625 295.523438 200.863281 C 295.914062 200.960938 296.328125 201.011719 296.761719 201.011719 C 297.464844 201.011719 298.023438 200.824219 298.433594 200.457031 C 298.84375 200.085938 299.050781 199.582031 299.050781 198.949219 C 299.050781 198.3125 298.84375 197.8125 298.433594 197.441406 C 298.023438 197.070312 297.464844 196.886719 296.761719 196.886719 C 296.433594 196.886719 296.105469 196.921875 295.777344 196.996094 C 295.449219 197.066406 295.113281 197.183594 294.773438 197.335938 Z M 294.773438 192.757812 "/>
<path style=" stroke:none;fill-rule:nonzero;fill:rgb(0%,0%,0%);fill-opacity:1;" d="M 178.5 212.132812 L 176.027344 215.460938 L 178.625 218.96875 L 177.300781 218.96875 L 175.3125 216.285156 L 173.324219 218.96875 L 171.996094 218.96875 L 174.652344 215.394531 L 172.222656 212.132812 L 173.546875 212.132812 L 175.359375 214.570312 L 177.171875 212.132812 Z M 178.5 212.132812 "/>
<g clip-path="url(#clip7)" clip-rule="nonzero">
<path style="fill:none;stroke-width:0.8;stroke-linecap:square;stroke-linejoin:round;stroke:rgb(69.019608%,69.019608%,69.019608%);stroke-opacity:1;stroke-miterlimit:4;" d="M 42.61875 146.9 L 237.921875 146.9 " transform="matrix(1.25,0,0,1.25,0,0)"/>
</g>
<path style="fill:none;stroke-width:0.8;stroke-linecap:butt;stroke-linejoin:round;stroke:rgb(0%,0%,0%);stroke-opacity:1;stroke-miterlimit:4;" d="M -0.001562 0.000781 L -3.501562 0.000781 " transform="matrix(1.25,0,0,1.25,53.27539,183.624024)"/>
<path style=" stroke:none;fill-rule:nonzero;fill:rgb(0%,0%,0%);fill-opacity:1;" d="M 27.421875 183.933594 L 35.246094 183.933594 L 35.246094 184.972656 L 27.421875 184.972656 Z M 27.421875 183.933594 "/>
<path style=" stroke:none;fill-rule:nonzero;fill:rgb(0%,0%,0%);fill-opacity:1;" d="M 38.121094 187.335938 L 40.136719 187.335938 L 40.136719 180.382812 L 37.945312 180.820312 L 37.945312 179.699219 L 40.125 179.257812 L 41.355469 179.257812 L 41.355469 187.335938 L 43.371094 187.335938 L 43.371094 188.371094 L 38.121094 188.371094 Z M 38.121094 187.335938 "/>
<g clip-path="url(#clip8)" clip-rule="nonzero">
<path style="fill:none;stroke-width:0.8;stroke-linecap:square;stroke-linejoin:round;stroke:rgb(69.019608%,69.019608%,69.019608%);stroke-opacity:1;stroke-miterlimit:4;" d="M 42.61875 124.25 L 237.921875 124.25 " transform="matrix(1.25,0,0,1.25,0,0)"/>
</g>
<path style="fill:none;stroke-width:0.8;stroke-linecap:butt;stroke-linejoin:round;stroke:rgb(0%,0%,0%);stroke-opacity:1;stroke-miterlimit:4;" d="M -0.001562 0.000781 L -3.501562 0.000781 " transform="matrix(1.25,0,0,1.25,53.27539,155.311524)"/>
<path style=" stroke:none;fill-rule:nonzero;fill:rgb(0%,0%,0%);fill-opacity:1;" d="M 40.542969 151.757812 C 39.910156 151.757812 39.433594 152.070312 39.113281 152.695312 C 38.792969 153.320312 38.632812 154.257812 38.632812 155.511719 C 38.632812 156.761719 38.792969 157.699219 39.113281 158.324219 C 39.433594 158.949219 39.910156 159.261719 40.542969 159.261719 C 41.183594 159.261719 41.664062 158.949219 41.980469 158.324219 C 42.300781 157.699219 42.460938 156.761719 42.460938 155.511719 C 42.460938 154.257812 42.300781 153.320312 41.980469 152.695312 C 41.664062 152.070312 41.183594 151.757812 40.542969 151.757812 Z M 40.542969 150.78125 C 41.566406 150.78125 42.347656 151.1875 42.886719 151.996094 C 43.425781 152.804688 43.695312 153.976562 43.695312 155.511719 C 43.695312 157.046875 43.425781 158.21875 42.886719 159.027344 C 42.347656 159.835938 41.566406 160.238281 40.542969 160.238281 C 39.523438 160.238281 38.742188 159.835938 38.203125 159.027344 C 37.664062 158.21875 37.394531 157.046875 37.394531 155.511719 C 37.394531 153.976562 37.664062 152.804688 38.203125 151.996094 C 38.742188 151.1875 39.523438 150.78125 40.542969 150.78125 Z M 40.542969 150.78125 "/>
<g clip-path="url(#clip9)" clip-rule="nonzero">
<path style="fill:none;stroke-width:0.8;stroke-linecap:square;stroke-linejoin:round;stroke:rgb(69.019608%,69.019608%,69.019608%);stroke-opacity:1;stroke-miterlimit:4;" d="M 42.61875 101.6 L 237.921875 101.6 " transform="matrix(1.25,0,0,1.25,0,0)"/>
</g>
<path style="fill:none;stroke-width:0.8;stroke-linecap:butt;stroke-linejoin:round;stroke:rgb(0%,0%,0%);stroke-opacity:1;stroke-miterlimit:4;" d="M -0.001562 0.000781 L -3.501562 0.000781 " transform="matrix(1.25,0,0,1.25,53.27539,126.999024)"/>
<path style=" stroke:none;fill-rule:nonzero;fill:rgb(0%,0%,0%);fill-opacity:1;" d="M 38.121094 130.710938 L 40.136719 130.710938 L 40.136719 123.757812 L 37.945312 124.195312 L 37.945312 123.074219 L 40.125 122.632812 L 41.355469 122.632812 L 41.355469 130.710938 L 43.371094 130.710938 L 43.371094 131.746094 L 38.121094 131.746094 Z M 38.121094 130.710938 "/>
<g clip-path="url(#clip10)" clip-rule="nonzero">
<path style="fill:none;stroke-width:0.8;stroke-linecap:square;stroke-linejoin:round;stroke:rgb(69.019608%,69.019608%,69.019608%);stroke-opacity:1;stroke-miterlimit:4;" d="M 42.61875 78.95 L 237.921875 78.95 " transform="matrix(1.25,0,0,1.25,0,0)"/>
</g>
<path style="fill:none;stroke-width:0.8;stroke-linecap:butt;stroke-linejoin:round;stroke:rgb(0%,0%,0%);stroke-opacity:1;stroke-miterlimit:4;" d="M -0.001562 0.000781 L -3.501562 0.000781 " transform="matrix(1.25,0,0,1.25,53.27539,98.686524)"/>
<path style=" stroke:none;fill-rule:nonzero;fill:rgb(0%,0%,0%);fill-opacity:1;" d="M 38.96875 102.398438 L 43.273438 102.398438 L 43.273438 103.433594 L 37.488281 103.433594 L 37.488281 102.398438 C 37.957031 101.914062 38.59375 101.265625 39.398438 100.449219 C 40.207031 99.632812 40.714844 99.105469 40.921875 98.867188 C 41.316406 98.425781 41.59375 98.050781 41.75 97.742188 C 41.90625 97.4375 41.984375 97.132812 41.984375 96.835938 C 41.984375 96.351562 41.816406 95.957031 41.476562 95.652344 C 41.136719 95.347656 40.695312 95.195312 40.148438 95.195312 C 39.761719 95.195312 39.351562 95.261719 38.921875 95.394531 C 38.496094 95.53125 38.035156 95.734375 37.546875 96.007812 L 37.546875 94.761719 C 38.042969 94.5625 38.507812 94.410156 38.9375 94.308594 C 39.371094 94.207031 39.765625 94.15625 40.125 94.15625 C 41.070312 94.15625 41.820312 94.394531 42.382812 94.867188 C 42.945312 95.339844 43.222656 95.96875 43.222656 96.757812 C 43.222656 97.132812 43.152344 97.488281 43.011719 97.824219 C 42.875 98.160156 42.617188 98.554688 42.246094 99.007812 C 42.144531 99.128906 41.824219 99.46875 41.277344 100.03125 C 40.734375 100.597656 39.964844 101.386719 38.96875 102.398438 Z M 38.96875 102.398438 "/>
<g clip-path="url(#clip11)" clip-rule="nonzero">
<path style="fill:none;stroke-width:0.8;stroke-linecap:square;stroke-linejoin:round;stroke:rgb(69.019608%,69.019608%,69.019608%);stroke-opacity:1;stroke-miterlimit:4;" d="M 42.61875 56.3 L 237.921875 56.3 " transform="matrix(1.25,0,0,1.25,0,0)"/>
</g>
<path style="fill:none;stroke-width:0.8;stroke-linecap:butt;stroke-linejoin:round;stroke:rgb(0%,0%,0%);stroke-opacity:1;stroke-miterlimit:4;" d="M -0.001562 0.000781 L -3.501562 0.000781 " transform="matrix(1.25,0,0,1.25,53.27539,70.374024)"/>
<path style=" stroke:none;fill-rule:nonzero;fill:rgb(0%,0%,0%);fill-opacity:1;" d="M 41.644531 70.207031 C 42.234375 70.335938 42.695312 70.597656 43.023438 70.996094 C 43.355469 71.394531 43.523438 71.886719 43.523438 72.472656 C 43.523438 73.371094 43.214844 74.070312 42.59375 74.5625 C 41.976562 75.054688 41.097656 75.300781 39.957031 75.300781 C 39.578125 75.300781 39.183594 75.261719 38.777344 75.1875 C 38.375 75.113281 37.957031 75 37.523438 74.847656 L 37.523438 73.65625 C 37.867188 73.855469 38.238281 74.007812 38.644531 74.109375 C 39.054688 74.210938 39.480469 74.261719 39.921875 74.261719 C 40.695312 74.261719 41.285156 74.109375 41.6875 73.804688 C 42.09375 73.5 42.296875 73.054688 42.296875 72.472656 C 42.296875 71.9375 42.109375 71.515625 41.730469 71.214844 C 41.355469 70.910156 40.832031 70.757812 40.160156 70.757812 L 39.097656 70.757812 L 39.097656 69.746094 L 40.210938 69.746094 C 40.816406 69.746094 41.28125 69.625 41.601562 69.382812 C 41.921875 69.140625 42.082031 68.792969 42.082031 68.335938 C 42.082031 67.867188 41.917969 67.507812 41.585938 67.257812 C 41.253906 67.007812 40.78125 66.882812 40.160156 66.882812 C 39.824219 66.882812 39.460938 66.917969 39.074219 66.992188 C 38.6875 67.066406 38.261719 67.179688 37.796875 67.332031 L 37.796875 66.234375 C 38.265625 66.105469 38.707031 66.007812 39.113281 65.941406 C 39.523438 65.878906 39.910156 65.84375 40.269531 65.84375 C 41.207031 65.84375 41.949219 66.058594 42.492188 66.484375 C 43.039062 66.910156 43.308594 67.484375 43.308594 68.207031 C 43.308594 68.710938 43.164062 69.136719 42.875 69.484375 C 42.585938 69.832031 42.175781 70.074219 41.644531 70.207031 Z M 41.644531 70.207031 "/>
<g clip-path="url(#clip12)" clip-rule="nonzero">
<path style="fill:none;stroke-width:0.8;stroke-linecap:square;stroke-linejoin:round;stroke:rgb(69.019608%,69.019608%,69.019608%);stroke-opacity:1;stroke-miterlimit:4;" d="M 42.61875 33.65 L 237.921875 33.65 " transform="matrix(1.25,0,0,1.25,0,0)"/>
</g>
<path style="fill:none;stroke-width:0.8;stroke-linecap:butt;stroke-linejoin:round;stroke:rgb(0%,0%,0%);stroke-opacity:1;stroke-miterlimit:4;" d="M -0.001562 0.000781 L -3.501562 0.000781 " transform="matrix(1.25,0,0,1.25,53.27539,42.061524)"/>
<path style=" stroke:none;fill-rule:nonzero;fill:rgb(0%,0%,0%);fill-opacity:1;" d="M 41.296875 38.769531 L 38.183594 43.636719 L 41.296875 43.636719 Z M 40.972656 37.695312 L 42.523438 37.695312 L 42.523438 43.636719 L 43.824219 43.636719 L 43.824219 44.660156 L 42.523438 44.660156 L 42.523438 46.808594 L 41.296875 46.808594 L 41.296875 44.660156 L 37.183594 44.660156 L 37.183594 43.472656 Z M 40.972656 37.695312 "/>
<g clip-path="url(#clip13)" clip-rule="nonzero">
<path style="fill:none;stroke-width:0.8;stroke-linecap:square;stroke-linejoin:round;stroke:rgb(69.019608%,69.019608%,69.019608%);stroke-opacity:1;stroke-miterlimit:4;" d="M 42.61875 11 L 237.921875 11 " transform="matrix(1.25,0,0,1.25,0,0)"/>
</g>
<path style="fill:none;stroke-width:0.8;stroke-linecap:butt;stroke-linejoin:round;stroke:rgb(0%,0%,0%);stroke-opacity:1;stroke-miterlimit:4;" d="M -0.001562 0.000781 L -3.501562 0.000781 " transform="matrix(1.25,0,0,1.25,53.27539,13.749024)"/>
<path style=" stroke:none;fill-rule:nonzero;fill:rgb(0%,0%,0%);fill-opacity:1;" d="M 37.921875 9.382812 L 42.761719 9.382812 L 42.761719 10.421875 L 39.050781 10.421875 L 39.050781 12.65625 C 39.230469 12.59375 39.40625 12.550781 39.585938 12.519531 C 39.765625 12.488281 39.945312 12.472656 40.125 12.472656 C 41.140625 12.472656 41.945312 12.753906 42.539062 13.308594 C 43.136719 13.867188 43.433594 14.621094 43.433594 15.574219 C 43.433594 16.554688 43.128906 17.316406 42.515625 17.859375 C 41.90625 18.402344 41.046875 18.675781 39.933594 18.675781 C 39.550781 18.675781 39.164062 18.644531 38.765625 18.578125 C 38.371094 18.511719 37.960938 18.414062 37.535156 18.285156 L 37.535156 17.042969 C 37.902344 17.242188 38.28125 17.390625 38.671875 17.488281 C 39.0625 17.585938 39.476562 17.636719 39.910156 17.636719 C 40.613281 17.636719 41.171875 17.453125 41.582031 17.082031 C 41.992188 16.710938 42.199219 16.210938 42.199219 15.574219 C 42.199219 14.941406 41.992188 14.4375 41.582031 14.066406 C 41.171875 13.695312 40.613281 13.511719 39.910156 13.511719 C 39.582031 13.511719 39.25 13.546875 38.921875 13.621094 C 38.597656 13.695312 38.261719 13.808594 37.921875 13.960938 Z M 37.921875 9.382812 "/>
<path style=" stroke:none;fill-rule:nonzero;fill:rgb(0%,0%,0%);fill-opacity:1;" d="M 19.132812 98.363281 C 19.945312 98.679688 20.476562 98.988281 20.722656 99.292969 C 20.972656 99.59375 21.097656 99.996094 21.097656 100.5 L 21.097656 101.398438 L 20.15625 101.398438 L 20.15625 100.738281 C 20.15625 100.429688 20.085938 100.1875 19.9375 100.019531 C 19.792969 99.847656 19.445312 99.65625 18.898438 99.449219 L 18.386719 99.25 L 11.660156 102.011719 L 11.660156 100.824219 L 17.007812 98.6875 L 11.660156 96.550781 L 11.660156 95.359375 Z M 19.132812 98.363281 "/>
<g clip-path="url(#clip14)" clip-rule="nonzero">
<path style="fill:none;stroke-width:1.5;stroke-linecap:square;stroke-linejoin:round;stroke:rgb(12.156863%,46.666667%,70.588235%);stroke-opacity:1;stroke-miterlimit:4;" d="M 42.61875 124.25 L 46.525 116.1375 L 50.43125 109 L 54.3375 102.215625 L 58.24375 95.725 L 62.15 89.521875 L 66.05625 83.61875 L 69.9625 78.0375 L 73.86875 72.80625 L 77.775 67.946875 L 81.68125 63.48125 L 85.5875 59.434375 L 89.49375 55.821875 L 93.396875 52.659375 L 97.303125 49.9625 L 101.209375 47.734375 L 105.115625 45.98125 L 109.021875 44.7 L 112.928125 43.884375 L 116.834375 43.53125 L 120.740625 43.621875 L 124.646875 44.140625 L 128.553125 45.0625 L 132.459375 46.36875 L 136.365625 48.021875 L 140.26875 49.99375 L 144.175 52.25 L 148.08125 54.753125 L 151.9875 57.45625 L 155.89375 60.325 L 159.8 63.309375 L 163.70625 66.36875 L 167.6125 69.45625 L 171.51875 72.528125 L 175.425 75.534375 L 179.33125 78.434375 L 183.2375 81.184375 L 187.14375 83.740625 L 191.046875 86.065625 L 194.953125 88.11875 L 198.859375 89.871875 L 202.765625 91.284375 L 206.671875 92.3375 L 210.578125 93 L 214.484375 93.25625 L 218.390625 93.084375 L 222.296875 92.478125 L 226.203125 91.428125 L 230.109375 89.93125 L 234.015625 87.9875 " transform="matrix(1.25,0,0,1.25,0,0)"/>
</g>
<g clip-path="url(#clip15)" clip-rule="nonzero">
<path style="fill:none;stroke-width:1.5;stroke-linecap:butt;stroke-linejoin:round;stroke:rgb(74.901961%,0%,74.901961%);stroke-opacity:1;stroke-dasharray:5.55,2.4;stroke-miterlimit:4;" d="M 42.61875 82.890625 L 46.525 81.55 L 50.43125 80.128125 L 54.3375 78.6375 L 58.24375 77.084375 L 62.15 75.490625 L 69.9625 72.253125 L 73.86875 70.653125 L 77.775 69.1 L 81.68125 67.6125 L 85.5875 66.21875 L 89.49375 64.934375 L 93.396875 63.784375 L 97.303125 62.778125 L 101.209375 61.928125 L 105.115625 61.24375 L 109.021875 60.73125 L 112.928125 60.390625 L 116.834375 60.225 L 120.740625 60.23125 L 124.646875 60.403125 L 128.553125 60.740625 L 132.459375 61.234375 L 136.365625 61.878125 L 140.26875 62.6625 L 144.175 63.578125 L 148.08125 64.609375 L 151.9875 65.746875 L 155.89375 66.978125 L 159.8 68.28125 L 163.70625 69.646875 L 167.6125 71.05 L 171.51875 72.48125 L 175.425 73.91875 L 179.33125 75.35 L 183.2375 76.75625 L 187.14375 78.125 L 191.046875 79.45 L 194.953125 80.715625 L 198.859375 81.91875 L 202.765625 83.053125 L 206.671875 84.115625 L 210.578125 85.103125 L 214.484375 86.015625 L 218.390625 86.859375 L 222.296875 87.63125 L 226.203125 88.334375 L 230.109375 88.975 L 234.015625 89.55625 " transform="matrix(1.25,0,0,1.25,0,0)"/>
</g>
<path style=" stroke:none;fill-rule:nonzero;fill:rgb(100%,49.803922%,5.490196%);fill-opacity:0.501961;" d="M 58.210938 133.628906 C 59.207031 133.628906 60.160156 133.234375 60.863281 132.53125 C 61.566406 131.828125 61.960938 130.871094 61.960938 129.878906 C 61.960938 128.882812 61.566406 127.929688 60.863281 127.226562 C 60.160156 126.523438 59.207031 126.128906 58.210938 126.128906 C 57.214844 126.128906 56.261719 126.523438 55.558594 127.226562 C 54.855469 127.929688 54.460938 128.882812 54.460938 129.878906 C 54.460938 130.871094 54.855469 131.828125 55.558594 132.53125 C 56.261719 133.234375 57.214844 133.628906 58.210938 133.628906 Z M 58.210938 133.628906 "/>
<g clip-path="url(#clip16)" clip-rule="nonzero">
<path style="fill:none;stroke-width:1;stroke-linecap:butt;stroke-linejoin:round;stroke:rgb(100%,49.803922%,5.490196%);stroke-opacity:0.501961;stroke-miterlimit:4;" d="M -0.000216 3.000332 C 0.796659 3.000332 1.559159 2.684707 2.121659 2.122207 C 2.684159 1.559707 2.999784 0.794082 2.999784 0.000332 C 2.999784 -0.796543 2.684159 -1.559043 2.121659 -2.121543 C 1.559159 -2.684043 0.796659 -2.999668 -0.000216 -2.999668 C -0.797091 -2.999668 -1.559591 -2.684043 -2.122091 -2.121543 C -2.684591 -1.559043 -3.000216 -0.796543 -3.000216 0.000332 C -3.000216 0.794082 -2.684591 1.559707 -2.122091 2.122207 C -1.559591 2.684707 -0.797091 3.000332 -0.000216 3.000332 Z M -0.000216 3.000332 " transform="matrix(1.25,0,0,1.25,58.211208,129.878491)"/>
</g>
<path style="fill-rule:nonzero;fill:rgb(100%,49.803922%,5.490196%);fill-opacity:0.501961;stroke-width:1;stroke-linecap:butt;stroke-linejoin:round;stroke:rgb(100%,49.803922%,5.490196%);stroke-opacity:0.501961;stroke-miterlimit:4;" d="M 0.000518 3.000347 C 0.794268 3.000347 1.559893 2.684722 2.122393 2.122222 C 2.684893 1.559722 3.000518 0.794097 3.000518 0.000347 C 3.000518 -0.796528 2.684893 -1.559028 2.122393 -2.121528 C 1.559893 -2.684028 0.794268 -2.999653 0.000518 -2.999653 C -0.796357 -2.999653 -1.558857 -2.684028 -2.121357 -2.121528 C -2.683857 -1.559028 -2.999482 -0.796528 -2.999482 0.000347 C -2.999482 0.794097 -2.683857 1.559722 -2.121357 2.122222 C -1.558857 2.684722 -0.796357 3.000347 0.000518 3.000347 Z M 0.000518 3.000347 " transform="matrix(1.25,0,0,1.25,67.120446,103.222222)"/>
<path style="fill-rule:nonzero;fill:rgb(100%,49.803922%,5.490196%);fill-opacity:0.501961;stroke-width:1;stroke-linecap:butt;stroke-linejoin:round;stroke:rgb(100%,49.803922%,5.490196%);stroke-opacity:0.501961;stroke-miterlimit:4;" d="M 0.000096 3.001145 C 0.796971 3.001145 1.559471 2.682395 2.121971 2.119895 C 2.684471 1.557395 3.000096 0.794895 3.000096 0.001145 C 3.000096 -0.79573 2.684471 -1.55823 2.121971 -2.12073 C 1.559471 -2.68323 0.796971 -2.998855 0.000096 -2.998855 C -0.796779 -2.998855 -1.559279 -2.68323 -2.121779 -2.12073 C -2.684279 -1.55823 -2.999904 -0.79573 -2.999904 0.001145 C -2.999904 0.794895 -2.684279 1.557395 -2.121779 2.119895 C -1.559279 2.682395 -0.796779 3.001145 0.000096 3.001145 Z M 0.000096 3.001145 " transform="matrix(1.25,0,0,1.25,70.617068,121.54935)"/>
<path style="fill-rule:nonzero;fill:rgb(100%,49.803922%,5.490196%);fill-opacity:0.501961;stroke-width:1;stroke-linecap:butt;stroke-linejoin:round;stroke:rgb(100%,49.803922%,5.490196%);stroke-opacity:0.501961;stroke-miterlimit:4;" d="M 0.000836 2.999726 C 0.794586 2.999726 1.560211 2.684101 2.122711 2.121601 C 2.685211 1.559101 3.000836 0.796601 3.000836 -0.000274 C 3.000836 -0.797149 2.685211 -1.559649 2.122711 -2.122149 C 1.560211 -2.684649 0.794586 -3.000274 0.000836 -3.000274 C -0.796039 -3.000274 -1.558539 -2.684649 -2.121039 -2.122149 C -2.683539 -1.559649 -2.999164 -0.797149 -2.999164 -0.000274 C -2.999164 0.796601 -2.683539 1.559101 -2.121039 2.121601 C -1.558539 2.684101 -0.796039 2.999726 0.000836 2.999726 Z M 0.000836 2.999726 " transform="matrix(1.25,0,0,1.25,74.54583,133.08628)"/>
<path style="fill-rule:nonzero;fill:rgb(100%,49.803922%,5.490196%);fill-opacity:0.501961;stroke-width:1;stroke-linecap:butt;stroke-linejoin:round;stroke:rgb(100%,49.803922%,5.490196%);stroke-opacity:0.501961;stroke-miterlimit:4;" d="M -0.000558 2.998661 C 0.796317 2.998661 1.558817 2.683036 2.121317 2.120536 C 2.683817 1.558036 2.999442 0.795536 2.999442 -0.001339 C 2.999442 -0.795089 2.683817 -1.557589 2.121317 -2.120089 C 1.558817 -2.682589 0.796317 -3.001339 -0.000558 -3.001339 C -0.794308 -3.001339 -1.559933 -2.682589 -2.122433 -2.120089 C -2.684933 -1.557589 -3.000558 -0.795089 -3.000558 -0.001339 C -3.000558 0.795536 -2.684933 1.558036 -2.122433 2.120536 C -1.559933 2.683036 -0.794308 2.998661 -0.000558 2.998661 Z M -0.000558 2.998661 " transform="matrix(1.25,0,0,1.25,82.149135,118.892299)"/>
<path style="fill-rule:nonzero;fill:rgb(100%,49.803922%,5.490196%);fill-opacity:0.501961;stroke-width:1;stroke-linecap:butt;stroke-linejoin:round;stroke:rgb(100%,49.803922%,5.490196%);stroke-opacity:0.501961;stroke-miterlimit:4;" d="M 0.000432 3.000107 C 0.794182 3.000107 1.559807 2.684482 2.122307 2.121982 C 2.684807 1.559482 3.000432 0.796982 3.000432 0.000107 C 3.000432 -0.796768 2.684807 -1.559268 2.122307 -2.121768 C 1.559807 -2.684268 0.794182 -2.999893 0.000432 -2.999893 C -0.796443 -2.999893 -1.558943 -2.684268 -2.121443 -2.121768 C -2.683943 -1.559268 -2.999568 -0.796768 -2.999568 0.000107 C -2.999568 0.796982 -2.683943 1.559482 -2.121443 2.121982 C -1.558943 2.684482 -0.796443 3.000107 0.000432 3.000107 Z M 0.000432 3.000107 " transform="matrix(1.25,0,0,1.25,87.538522,96.667835)"/>
<path style="fill-rule:nonzero;fill:rgb(100%,49.803922%,5.490196%);fill-opacity:0.501961;stroke-width:1;stroke-linecap:butt;stroke-linejoin:round;stroke:rgb(100%,49.803922%,5.490196%);stroke-opacity:0.501961;stroke-miterlimit:4;" d="M -0.001337 3.001144 C 0.795538 3.001144 1.558038 2.682394 2.120538 2.119894 C 2.683038 1.557394 2.998663 0.794894 2.998663 0.001144 C 2.998663 -0.795731 2.683038 -1.558231 2.120538 -2.120731 C 1.558038 -2.683231 0.795538 -2.998856 -0.001337 -2.998856 C -0.795087 -2.998856 -1.557587 -2.683231 -2.120087 -2.120731 C -2.682587 -1.558231 -3.001337 -0.795731 -3.001337 0.001144 C -3.001337 0.794894 -2.682587 1.557394 -2.120087 2.119894 C -1.557587 2.682394 -0.795087 3.001144 -0.001337 3.001144 Z M -0.001337 3.001144 " transform="matrix(1.25,0,0,1.25,119.837609,74.604039)"/>
<path style="fill-rule:nonzero;fill:rgb(100%,49.803922%,5.490196%);fill-opacity:0.501961;stroke-width:1;stroke-linecap:butt;stroke-linejoin:round;stroke:rgb(100%,49.803922%,5.490196%);stroke-opacity:0.501961;stroke-miterlimit:4;" d="M -0.000697 3.000886 C 0.796178 3.000886 1.558678 2.685261 2.121178 2.122761 C 2.683678 1.560261 2.999303 0.794636 2.999303 0.000886 C 2.999303 -0.795989 2.683678 -1.558489 2.121178 -2.120989 C 1.558678 -2.683489 0.796178 -2.999114 -0.000697 -2.999114 C -0.794447 -2.999114 -1.560072 -2.683489 -2.122572 -2.120989 C -2.685072 -1.558489 -3.000697 -0.795989 -3.000697 0.000886 C -3.000697 0.794636 -2.685072 1.560261 -2.122572 2.122761 C -1.560072 2.685261 -0.794447 3.000886 -0.000697 3.000886 Z M -0.000697 3.000886 " transform="matrix(1.25,0,0,1.25,125.911027,95.475455)"/>
<path style="fill-rule:nonzero;fill:rgb(100%,49.803922%,5.490196%);fill-opacity:0.501961;stroke-width:1;stroke-linecap:butt;stroke-linejoin:round;stroke:rgb(100%,49.803922%,5.490196%);stroke-opacity:0.501961;stroke-miterlimit:4;" d="M -0.001284 3.000117 C 0.795591 3.000117 1.558091 2.684492 2.120591 2.121992 C 2.683091 1.559492 2.998716 0.796992 2.998716 0.000117 C 2.998716 -0.796758 2.683091 -1.559258 2.120591 -2.121758 C 1.558091 -2.684258 0.795591 -2.999883 -0.001284 -2.999883 C -0.795034 -2.999883 -1.557534 -2.684258 -2.120034 -2.121758 C -2.682534 -1.559258 -3.001284 -0.796758 -3.001284 0.000117 C -3.001284 0.796992 -2.682534 1.559492 -2.120034 2.121992 C -1.557534 2.684492 -0.795034 3.000117 -0.001284 3.000117 Z M -0.001284 3.000117 " transform="matrix(1.25,0,0,1.25,135.64223,67.206885)"/>
<path style="fill-rule:nonzero;fill:rgb(100%,49.803922%,5.490196%);fill-opacity:0.501961;stroke-width:1;stroke-linecap:butt;stroke-linejoin:round;stroke:rgb(100%,49.803922%,5.490196%);stroke-opacity:0.501961;stroke-miterlimit:4;" d="M -0.000387 2.99911 C 0.796488 2.99911 1.558988 2.683485 2.121488 2.120985 C 2.683988 1.558485 2.999613 0.795985 2.999613 -0.00089 C 2.999613 -0.79464 2.683988 -1.560265 2.121488 -2.122765 C 1.558988 -2.685265 0.796488 -3.00089 -0.000387 -3.00089 C -0.794137 -3.00089 -1.559762 -2.685265 -2.122262 -2.122765 C -2.684762 -1.560265 -3.000387 -0.79464 -3.000387 -0.00089 C -3.000387 0.795985 -2.684762 1.558485 -2.122262 2.120985 C -1.559762 2.683485 -0.794137 2.99911 -0.000387 2.99911 Z M -0.000387 2.99911 " transform="matrix(1.25,0,0,1.25,143.172359,62.981581)"/>
<path style="fill-rule:nonzero;fill:rgb(100%,49.803922%,5.490196%);fill-opacity:0.501961;stroke-width:1;stroke-linecap:butt;stroke-linejoin:round;stroke:rgb(100%,49.803922%,5.490196%);stroke-opacity:0.501961;stroke-miterlimit:4;" d="M -0.000187 3.000484 C 0.796688 3.000484 1.559188 2.684859 2.121688 2.122359 C 2.684188 1.559859 2.999813 0.794234 2.999813 0.000484 C 2.999813 -0.796391 2.684188 -1.558891 2.121688 -2.121391 C 1.559188 -2.683891 0.796688 -2.999516 -0.000187 -2.999516 C -0.797062 -2.999516 -1.559562 -2.683891 -2.122062 -2.121391 C -2.684562 -1.558891 -3.000187 -0.796391 -3.000187 0.000484 C -3.000187 0.794234 -2.684562 1.559859 -2.122062 2.122359 C -1.559562 2.684859 -0.797062 3.000484 -0.000187 3.000484 Z M -0.000187 3.000484 " transform="matrix(1.25,0,0,1.25,146.883046,43.893926)"/>
<path style="fill-rule:nonzero;fill:rgb(100%,49.803922%,5.490196%);fill-opacity:0.501961;stroke-width:1;stroke-linecap:butt;stroke-linejoin:round;stroke:rgb(100%,49.803922%,5.490196%);stroke-opacity:0.501961;stroke-miterlimit:4;" d="M 0.000562 3.000597 C 0.794312 3.000597 1.559937 2.684972 2.122437 2.122472 C 2.684937 1.559972 3.000562 0.794347 3.000562 0.000597 C 3.000562 -0.796278 2.684937 -1.558778 2.122437 -2.121278 C 1.559937 -2.683778 0.794312 -2.999403 0.000562 -2.999403 C -0.796313 -2.999403 -1.558813 -2.683778 -2.121313 -2.121278 C -2.683813 -1.558778 -2.999438 -0.796278 -2.999438 0.000597 C -2.999438 0.794347 -2.683813 1.559972 -2.121313 2.122472 C -1.558813 2.684972 -0.796313 3.000597 0.000562 3.000597 Z M 0.000562 3.000597 " transform="matrix(1.25,0,0,1.25,147.112579,42.237535)"/>
<path style="fill-rule:nonzero;fill:rgb(100%,49.803922%,5.490196%);fill-opacity:0.501961;stroke-width:1;stroke-linecap:butt;stroke-linejoin:round;stroke:rgb(100%,49.803922%,5.490196%);stroke-opacity:0.501961;stroke-miterlimit:4;" d="M 0.000064 2.999169 C 0.796939 2.999169 1.559439 2.683544 2.121939 2.121044 C 2.684439 1.558544 3.000064 0.796044 3.000064 -0.000831 C 3.000064 -0.794581 2.684439 -1.560206 2.121939 -2.122706 C 1.559439 -2.685206 0.796939 -3.000831 0.000064 -3.000831 C -0.796811 -3.000831 -1.559311 -2.685206 -2.121811 -2.122706 C -2.684311 -1.560206 -2.999936 -0.794581 -2.999936 -0.000831 C -2.999936 0.796044 -2.684311 1.558544 -2.121811 2.121044 C -1.559311 2.683544 -0.796811 2.999169 0.000064 2.999169 Z M 0.000064 2.999169 " transform="matrix(1.25,0,0,1.25,149.163983,75.282289)"/>
<path style="fill-rule:nonzero;fill:rgb(100%,49.803922%,5.490196%);fill-opacity:0.501961;stroke-width:1;stroke-linecap:butt;stroke-linejoin:round;stroke:rgb(100%,49.803922%,5.490196%);stroke-opacity:0.501961;stroke-miterlimit:4;" d="M -0.000719 2.998533 C 0.796156 2.998533 1.558656 2.682908 2.121156 2.120408 C 2.683656 1.557908 2.999281 0.795408 2.999281 -0.001467 C 2.999281 -0.795217 2.683656 -1.557717 2.121156 -2.120217 C 1.558656 -2.682717 0.796156 -3.001467 -0.000719 -3.001467 C -0.794469 -3.001467 -1.560094 -2.682717 -2.122594 -2.120217 C -2.685094 -1.557717 -3.000719 -0.795217 -3.000719 -0.001467 C -3.000719 0.795408 -2.685094 1.557908 -2.122594 2.120408 C -1.560094 2.682908 -0.794469 2.998533 -0.000719 2.998533 Z M -0.000719 2.998533 " transform="matrix(1.25,0,0,1.25,156.700118,58.576052)"/>
<path style="fill-rule:nonzero;fill:rgb(100%,49.803922%,5.490196%);fill-opacity:0.501961;stroke-width:1;stroke-linecap:butt;stroke-linejoin:round;stroke:rgb(100%,49.803922%,5.490196%);stroke-opacity:0.501961;stroke-miterlimit:4;" d="M 0.000155 2.999857 C 0.79703 2.999857 1.55953 2.684232 2.12203 2.121732 C 2.68453 1.559232 3.000155 0.796732 3.000155 -0.000143 C 3.000155 -0.797018 2.68453 -1.559518 2.12203 -2.122018 C 1.55953 -2.684518 0.79703 -3.000143 0.000155 -3.000143 C -0.79672 -3.000143 -1.55922 -2.684518 -2.12172 -2.122018 C -2.68422 -1.559518 -2.999845 -0.797018 -2.999845 -0.000143 C -2.999845 0.796732 -2.68422 1.559232 -2.12172 2.121732 C -1.55922 2.684232 -0.79672 2.999857 0.000155 2.999857 Z M 0.000155 2.999857 " transform="matrix(1.25,0,0,1.25,160.101369,71.355648)"/>
<path style="fill-rule:nonzero;fill:rgb(100%,49.803922%,5.490196%);fill-opacity:0.501961;stroke-width:1;stroke-linecap:butt;stroke-linejoin:round;stroke:rgb(100%,49.803922%,5.490196%);stroke-opacity:0.501961;stroke-miterlimit:4;" d="M -0.00036 2.998457 C 0.796515 2.998457 1.559015 2.682832 2.121515 2.120332 C 2.684015 1.557832 2.99964 0.795332 2.99964 -0.001543 C 2.99964 -0.795293 2.684015 -1.557793 2.121515 -2.120293 C 1.559015 -2.682793 0.796515 -3.001543 -0.00036 -3.001543 C -0.79411 -3.001543 -1.559735 -2.682793 -2.122235 -2.120293 C -2.684735 -1.557793 -3.00036 -0.795293 -3.00036 -0.001543 C -3.00036 0.795332 -2.684735 1.557832 -2.122235 2.120332 C -1.559735 2.682832 -0.79411 2.998457 -0.00036 2.998457 Z M -0.00036 2.998457 " transform="matrix(1.25,0,0,1.25,165.934044,55.248022)"/>
<path style="fill-rule:nonzero;fill:rgb(100%,49.803922%,5.490196%);fill-opacity:0.501961;stroke-width:1;stroke-linecap:butt;stroke-linejoin:round;stroke:rgb(100%,49.803922%,5.490196%);stroke-opacity:0.501961;stroke-miterlimit:4;" d="M -0.000343 2.999279 C 0.796532 2.999279 1.559032 2.683654 2.121532 2.121154 C 2.684032 1.558654 2.999657 0.796154 2.999657 -0.000721 C 2.999657 -0.794471 2.684032 -1.560096 2.121532 -2.122596 C 1.559032 -2.685096 0.796532 -3.000721 -0.000343 -3.000721 C -0.794093 -3.000721 -1.559718 -2.685096 -2.122218 -2.122596 C -2.684718 -1.560096 -3.000343 -0.794471 -3.000343 -0.000721 C -3.000343 0.796154 -2.684718 1.558654 -2.122218 2.121154 C -1.559718 2.683654 -0.794093 2.999279 -0.000343 2.999279 Z M -0.000343 2.999279 " transform="matrix(1.25,0,0,1.25,168.89496,74.079026)"/>
<path style="fill-rule:nonzero;fill:rgb(100%,49.803922%,5.490196%);fill-opacity:0.501961;stroke-width:1;stroke-linecap:butt;stroke-linejoin:round;stroke:rgb(100%,49.803922%,5.490196%);stroke-opacity:0.501961;stroke-miterlimit:4;" d="M 0.001061 2.999339 C 0.794811 2.999339 1.557311 2.683714 2.119811 2.121214 C 2.685436 1.558714 3.001061 0.796214 3.001061 -0.000661 C 3.001061 -0.794411 2.685436 -1.560036 2.119811 -2.122536 C 1.557311 -2.685036 0.794811 -3.000661 0.001061 -3.000661 C -0.795814 -3.000661 -1.558314 -2.685036 -2.120814 -2.122536 C -2.683314 -1.560036 -2.998939 -0.794411 -2.998939 -0.000661 C -2.998939 0.796214 -2.683314 1.558714 -2.120814 2.121214 C -1.558314 2.683714 -0.795814 2.999339 0.001061 2.999339 Z M 0.001061 2.999339 " transform="matrix(1.25,0,0,1.25,169.885392,54.80942)"/>
<path style="fill-rule:nonzero;fill:rgb(100%,49.803922%,5.490196%);fill-opacity:0.501961;stroke-width:1;stroke-linecap:butt;stroke-linejoin:round;stroke:rgb(100%,49.803922%,5.490196%);stroke-opacity:0.501961;stroke-miterlimit:4;" d="M -0.00048 3.001031 C 0.796395 3.001031 1.558895 2.685406 2.121395 2.119781 C 2.683895 1.557281 2.99952 0.794781 2.99952 0.001031 C 2.99952 -0.795844 2.683895 -1.558344 2.121395 -2.120844 C 1.558895 -2.683344 0.796395 -2.998969 -0.00048 -2.998969 C -0.79423 -2.998969 -1.559855 -2.683344 -2.122355 -2.120844 C -2.684855 -1.558344 -3.00048 -0.795844 -3.00048 0.001031 C -3.00048 0.794781 -2.684855 1.557281 -2.122355 2.119781 C -1.559855 2.685406 -0.79423 3.001031 -0.00048 3.001031 Z M -0.00048 3.001031 " transform="matrix(1.25,0,0,1.25,170.449819,78.82293)"/>
<path style="fill-rule:nonzero;fill:rgb(100%,49.803922%,5.490196%);fill-opacity:0.501961;stroke-width:1;stroke-linecap:butt;stroke-linejoin:round;stroke:rgb(100%,49.803922%,5.490196%);stroke-opacity:0.501961;stroke-miterlimit:4;" d="M -0.000815 3.000249 C 0.79606 3.000249 1.55856 2.684624 2.12106 2.122124 C 2.68356 1.559624 2.999185 0.797124 2.999185 0.000249 C 2.999185 -0.796626 2.68356 -1.559126 2.12106 -2.121626 C 1.55856 -2.684126 0.79606 -2.999751 -0.000815 -2.999751 C -0.794565 -2.999751 -1.56019 -2.684126 -2.12269 -2.121626 C -2.68519 -1.559126 -3.000815 -0.796626 -3.000815 0.000249 C -3.000815 0.797124 -2.68519 1.559624 -2.12269 2.122124 C -1.56019 2.684624 -0.794565 3.000249 -0.000815 3.000249 Z M -0.000815 3.000249 " transform="matrix(1.25,0,0,1.25,180.336956,57.796564)"/>
<path style="fill-rule:nonzero;fill:rgb(100%,49.803922%,5.490196%);fill-opacity:0.501961;stroke-width:1;stroke-linecap:butt;stroke-linejoin:round;stroke:rgb(100%,49.803922%,5.490196%);stroke-opacity:0.501961;stroke-miterlimit:4;" d="M -0.000987 3.001273 C 0.795888 3.001273 1.558388 2.682523 2.120888 2.120023 C 2.683388 1.557523 2.999013 0.795023 2.999013 0.001273 C 2.999013 -0.795602 2.683388 -1.558102 2.120888 -2.120602 C 1.558388 -2.683102 0.795888 -2.998727 -0.000987 -2.998727 C -0.794737 -2.998727 -1.557237 -2.683102 -2.122862 -2.120602 C -2.685362 -1.558102 -3.000987 -0.795602 -3.000987 0.001273 C -3.000987 0.795023 -2.685362 1.557523 -2.122862 2.120023 C -1.557237 2.682523 -0.794737 3.001273 -0.000987 3.001273 Z M -0.000987 3.001273 " transform="matrix(1.25,0,0,1.25,182.391859,87.54919)"/>
<path style="fill-rule:nonzero;fill:rgb(100%,49.803922%,5.490196%);fill-opacity:0.501961;stroke-width:1;stroke-linecap:butt;stroke-linejoin:round;stroke:rgb(100%,49.803922%,5.490196%);stroke-opacity:0.501961;stroke-miterlimit:4;" d="M 0.001498 3.000164 C 0.795248 3.000164 1.557748 2.684539 2.120248 2.122039 C 2.682748 1.559539 3.001498 0.797039 3.001498 0.000164 C 3.001498 -0.796711 2.682748 -1.559211 2.120248 -2.121711 C 1.557748 -2.684211 0.795248 -2.999836 0.001498 -2.999836 C -0.795377 -2.999836 -1.557877 -2.684211 -2.120377 -2.121711 C -2.682877 -1.559211 -2.998502 -0.796711 -2.998502 0.000164 C -2.998502 0.797039 -2.682877 1.559539 -2.120377 2.122039 C -1.557877 2.684539 -0.795377 3.000164 0.001498 3.000164 Z M 0.001498 3.000164 " transform="matrix(1.25,0,0,1.25,186.295003,47.73417)"/>
<path style="fill-rule:nonzero;fill:rgb(100%,49.803922%,5.490196%);fill-opacity:0.501961;stroke-width:1;stroke-linecap:butt;stroke-linejoin:round;stroke:rgb(100%,49.803922%,5.490196%);stroke-opacity:0.501961;stroke-miterlimit:4;" d="M -0.000471 2.999138 C 0.796404 2.999138 1.558904 2.683513 2.121404 2.121013 C 2.683904 1.558513 2.999529 0.796013 2.999529 -0.000862 C 2.999529 -0.794612 2.683904 -1.560237 2.121404 -2.122737 C 1.558904 -2.685237 0.796404 -3.000862 -0.000471 -3.000862 C -0.794221 -3.000862 -1.559846 -2.685237 -2.122346 -2.122737 C -2.684846 -1.560237 -3.000471 -0.794612 -3.000471 -0.000862 C -3.000471 0.796013 -2.684846 1.558513 -2.122346 2.121013 C -1.559846 2.683513 -0.794221 2.999138 -0.000471 2.999138 Z M -0.000471 2.999138 " transform="matrix(1.25,0,0,1.25,187.254495,77.32139)"/>
<path style="fill-rule:nonzero;fill:rgb(100%,49.803922%,5.490196%);fill-opacity:0.501961;stroke-width:1;stroke-linecap:butt;stroke-linejoin:round;stroke:rgb(100%,49.803922%,5.490196%);stroke-opacity:0.501961;stroke-miterlimit:4;" d="M -0.000041 2.998609 C 0.796834 2.998609 1.559334 2.682984 2.121834 2.120484 C 2.684334 1.557984 2.999959 0.795484 2.999959 -0.001391 C 2.999959 -0.795141 2.684334 -1.557641 2.121834 -2.120141 C 1.559334 -2.682641 0.796834 -3.001391 -0.000041 -3.001391 C -0.796916 -3.001391 -1.559416 -2.682641 -2.121916 -2.120141 C -2.684416 -1.557641 -3.000041 -0.795141 -3.000041 -0.001391 C -3.000041 0.795484 -2.684416 1.557984 -2.121916 2.120484 C -1.559416 2.682984 -0.796916 2.998609 -0.000041 2.998609 Z M -0.000041 2.998609 " transform="matrix(1.25,0,0,1.25,191.94927,46.286895)"/>
<path style="fill-rule:nonzero;fill:rgb(100%,49.803922%,5.490196%);fill-opacity:0.501961;stroke-width:1;stroke-linecap:butt;stroke-linejoin:round;stroke:rgb(100%,49.803922%,5.490196%);stroke-opacity:0.501961;stroke-miterlimit:4;" d="M 0.000266 2.999801 C 0.797141 2.999801 1.559641 2.684176 2.122141 2.121676 C 2.684641 1.559176 3.000266 0.796676 3.000266 -0.000199 C 3.000266 -0.797074 2.684641 -1.559574 2.122141 -2.122074 C 1.559641 -2.684574 0.797141 -3.000199 0.000266 -3.000199 C -0.796609 -3.000199 -1.559109 -2.684574 -2.121609 -2.122074 C -2.684109 -1.559574 -2.999734 -0.797074 -2.999734 -0.000199 C -2.999734 0.796676 -2.684109 1.559176 -2.121609 2.121676 C -1.559109 2.684176 -0.796609 2.999801 0.000266 2.999801 Z M 0.000266 2.999801 " transform="matrix(1.25,0,0,1.25,198.003574,59.86353)"/>
<path style="fill-rule:nonzero;fill:rgb(100%,49.803922%,5.490196%);fill-opacity:0.501961;stroke-width:1;stroke-linecap:butt;stroke-linejoin:round;stroke:rgb(100%,49.803922%,5.490196%);stroke-opacity:0.501961;stroke-miterlimit:4;" d="M 0.000627 3.001218 C 0.794377 3.001218 1.560002 2.682468 2.122502 2.119968 C 2.685002 1.557468 3.000627 0.794968 3.000627 0.001218 C 3.000627 -0.795657 2.685002 -1.558157 2.122502 -2.120657 C 1.560002 -2.683157 0.794377 -2.998782 0.000627 -2.998782 C -0.796248 -2.998782 -1.558748 -2.683157 -2.121248 -2.120657 C -2.683748 -1.558157 -2.999373 -0.795657 -2.999373 0.001218 C -2.999373 0.794968 -2.683748 1.557468 -2.121248 2.119968 C -1.558748 2.682468 -0.796248 3.001218 0.000627 3.001218 Z M 0.000627 3.001218 " transform="matrix(1.25,0,0,1.25,200.424998,101.935978)"/>
<path style="fill-rule:nonzero;fill:rgb(100%,49.803922%,5.490196%);fill-opacity:0.501961;stroke-width:1;stroke-linecap:butt;stroke-linejoin:round;stroke:rgb(100%,49.803922%,5.490196%);stroke-opacity:0.501961;stroke-miterlimit:4;" d="M 0.000818 2.998909 C 0.794568 2.998909 1.560193 2.683284 2.122693 2.120784 C 2.685193 1.558284 3.000818 0.795784 3.000818 -0.001091 C 3.000818 -0.794841 2.685193 -1.557341 2.122693 -2.119841 C 1.560193 -2.682341 0.794568 -3.001091 0.000818 -3.001091 C -0.796057 -3.001091 -1.558557 -2.682341 -2.121057 -2.119841 C -2.683557 -1.557341 -2.999182 -0.794841 -2.999182 -0.001091 C -2.999182 0.795784 -2.683557 1.558284 -2.121057 2.120784 C -1.558557 2.683284 -0.796057 2.998909 0.000818 2.998909 Z M 0.000818 2.998909 " transform="matrix(1.25,0,0,1.25,205.502884,70.977926)"/>
<path style="fill-rule:nonzero;fill:rgb(100%,49.803922%,5.490196%);fill-opacity:0.501961;stroke-width:1;stroke-linecap:butt;stroke-linejoin:round;stroke:rgb(100%,49.803922%,5.490196%);stroke-opacity:0.501961;stroke-miterlimit:4;" d="M -0.00093 3.001088 C 0.795945 3.001088 1.558445 2.685463 2.120945 2.119838 C 2.683445 1.557338 2.99907 0.794838 2.99907 0.001088 C 2.99907 -0.795787 2.683445 -1.558287 2.120945 -2.120787 C 1.558445 -2.683287 0.795945 -2.998912 -0.00093 -2.998912 C -0.79468 -2.998912 -1.55718 -2.683287 -2.122805 -2.120787 C -2.685305 -1.558287 -3.00093 -0.795787 -3.00093 0.001088 C -3.00093 0.794838 -2.685305 1.557338 -2.122805 2.119838 C -1.55718 2.685463 -0.79468 3.001088 -0.00093 3.001088 Z M -0.00093 3.001088 " transform="matrix(1.25,0,0,1.25,210.954287,89.940046)"/>
<path style="fill-rule:nonzero;fill:rgb(100%,49.803922%,5.490196%);fill-opacity:0.501961;stroke-width:1;stroke-linecap:butt;stroke-linejoin:round;stroke:rgb(100%,49.803922%,5.490196%);stroke-opacity:0.501961;stroke-miterlimit:4;" d="M 0.00109 2.998932 C 0.79484 2.998932 1.55734 2.683307 2.11984 2.120807 C 2.68234 1.558307 3.00109 0.795807 3.00109 -0.001068 C 3.00109 -0.794818 2.68234 -1.557318 2.11984 -2.119818 C 1.55734 -2.685443 0.79484 -3.001068 0.00109 -3.001068 C -0.795785 -3.001068 -1.558285 -2.685443 -2.120785 -2.119818 C -2.683285 -1.557318 -2.99891 -0.794818 -2.99891 -0.001068 C -2.99891 0.795807 -2.683285 1.558307 -2.120785 2.120807 C -1.558285 2.683307 -0.795785 2.998932 0.00109 2.998932 Z M 0.00109 2.998932 " transform="matrix(1.25,0,0,1.25,211.510356,96.911491)"/>
<path style="fill-rule:nonzero;fill:rgb(100%,49.803922%,5.490196%);fill-opacity:0.501961;stroke-width:1;stroke-linecap:butt;stroke-linejoin:round;stroke:rgb(100%,49.803922%,5.490196%);stroke-opacity:0.501961;stroke-miterlimit:4;" d="M 0.000762 3.001171 C 0.794512 3.001171 1.560137 2.682421 2.122637 2.119921 C 2.685137 1.557421 3.000762 0.794921 3.000762 0.001171 C 3.000762 -0.795704 2.685137 -1.558204 2.122637 -2.120704 C 1.560137 -2.683204 0.794512 -2.998829 0.000762 -2.998829 C -0.796113 -2.998829 -1.558613 -2.683204 -2.121113 -2.120704 C -2.683613 -1.558204 -2.999238 -0.795704 -2.999238 0.001171 C -2.999238 0.794921 -2.683613 1.557421 -2.121113 2.119921 C -1.558613 2.682421 -0.796113 3.001171 0.000762 3.001171 Z M 0.000762 3.001171 " transform="matrix(1.25,0,0,1.25,219.00686,90.010255)"/>
<path style="fill-rule:nonzero;fill:rgb(100%,49.803922%,5.490196%);fill-opacity:0.501961;stroke-width:1;stroke-linecap:butt;stroke-linejoin:round;stroke:rgb(100%,49.803922%,5.490196%);stroke-opacity:0.501961;stroke-miterlimit:4;" d="M 0.00008 3.000662 C 0.796955 3.000662 1.559455 2.685037 2.121955 2.122537 C 2.684455 1.560037 3.00008 0.794412 3.00008 0.000662 C 3.00008 -0.796213 2.684455 -1.558713 2.121955 -2.121213 C 1.559455 -2.683713 0.796955 -2.999338 0.00008 -2.999338 C -0.796795 -2.999338 -1.559295 -2.683713 -2.121795 -2.121213 C -2.684295 -1.558713 -2.99992 -0.796213 -2.99992 0.000662 C -2.99992 0.794412 -2.684295 1.560037 -2.121795 2.122537 C -1.559295 2.685037 -0.796795 3.000662 0.00008 3.000662 Z M 0.00008 3.000662 " transform="matrix(1.25,0,0,1.25,227.870994,83.628079)"/>
<path style="fill-rule:nonzero;fill:rgb(100%,49.803922%,5.490196%);fill-opacity:0.501961;stroke-width:1;stroke-linecap:butt;stroke-linejoin:round;stroke:rgb(100%,49.803922%,5.490196%);stroke-opacity:0.501961;stroke-miterlimit:4;" d="M -0.000494 3.000348 C 0.796381 3.000348 1.558881 2.684723 2.121381 2.122223 C 2.683881 1.559723 2.999506 0.794098 2.999506 0.000348 C 2.999506 -0.796527 2.683881 -1.559027 2.121381 -2.121527 C 1.558881 -2.684027 0.796381 -2.999652 -0.000494 -2.999652 C -0.794244 -2.999652 -1.559869 -2.684027 -2.122369 -2.121527 C -2.684869 -1.559027 -3.000494 -0.796527 -3.000494 0.000348 C -3.000494 0.794098 -2.684869 1.559723 -2.122369 2.122223 C -1.559869 2.684723 -0.794244 3.000348 -0.000494 3.000348 Z M -0.000494 3.000348 " transform="matrix(1.25,0,0,1.25,229.199836,83.023003)"/>
<path style="fill-rule:nonzero;fill:rgb(100%,49.803922%,5.490196%);fill-opacity:0.501961;stroke-width:1;stroke-linecap:butt;stroke-linejoin:round;stroke:rgb(100%,49.803922%,5.490196%);stroke-opacity:0.501961;stroke-miterlimit:4;" d="M -0.000577 2.998951 C 0.796298 2.998951 1.558798 2.683326 2.121298 2.120826 C 2.683798 1.558326 2.999423 0.795826 2.999423 -0.001049 C 2.999423 -0.794799 2.683798 -1.557299 2.121298 -2.119799 C 1.558798 -2.685424 0.796298 -3.001049 -0.000577 -3.001049 C -0.794327 -3.001049 -1.559952 -2.685424 -2.122452 -2.119799 C -2.684952 -1.557299 -3.000577 -0.794799 -3.000577 -0.001049 C -3.000577 0.795826 -2.684952 1.558326 -2.122452 2.120826 C -1.559952 2.683326 -0.794327 2.998951 -0.000577 2.998951 Z M -0.000577 2.998951 " transform="matrix(1.25,0,0,1.25,243.242909,123.677093)"/>
<path style="fill-rule:nonzero;fill:rgb(100%,49.803922%,5.490196%);fill-opacity:0.501961;stroke-width:1;stroke-linecap:butt;stroke-linejoin:round;stroke:rgb(100%,49.803922%,5.490196%);stroke-opacity:0.501961;stroke-miterlimit:4;" d="M -0.001418 2.998629 C 0.795457 2.998629 1.557957 2.683004 2.120457 2.120504 C 2.682957 1.558004 2.998582 0.795504 2.998582 -0.001371 C 2.998582 -0.795121 2.682957 -1.557621 2.120457 -2.120121 C 1.557957 -2.682621 0.795457 -3.001371 -0.001418 -3.001371 C -0.795168 -3.001371 -1.557668 -2.682621 -2.120168 -2.120121 C -2.682668 -1.557621 -3.001418 -0.795121 -3.001418 -0.001371 C -3.001418 0.795504 -2.682668 1.558004 -2.120168 2.120504 C -1.557668 2.683004 -0.795168 2.998629 -0.001418 2.998629 Z M -0.001418 2.998629 " transform="matrix(1.25,0,0,1.25,243.822085,103.083745)"/>
<path style="fill-rule:nonzero;fill:rgb(100%,49.803922%,5.490196%);fill-opacity:0.501961;stroke-width:1;stroke-linecap:butt;stroke-linejoin:round;stroke:rgb(100%,49.803922%,5.490196%);stroke-opacity:0.501961;stroke-miterlimit:4;" d="M -0.000467 2.998655 C 0.796408 2.998655 1.558908 2.68303 2.121408 2.12053 C 2.683908 1.55803 2.999533 0.79553 2.999533 -0.001345 C 2.999533 -0.795095 2.683908 -1.557595 2.121408 -2.120095 C 1.558908 -2.682595 0.796408 -3.001345 -0.000467 -3.001345 C -0.794217 -3.001345 -1.559842 -2.682595 -2.122342 -2.120095 C -2.684842 -1.557595 -3.000467 -0.795095 -3.000467 -0.001345 C -3.000467 0.79553 -2.684842 1.55803 -2.122342 2.12053 C -1.559842 2.68303 -0.794217 2.998655 -0.000467 2.998655 Z M -0.000467 2.998655 " transform="matrix(1.25,0,0,1.25,246.555271,119.728244)"/>
<path style="fill-rule:nonzero;fill:rgb(100%,49.803922%,5.490196%);fill-opacity:0.501961;stroke-width:1;stroke-linecap:butt;stroke-linejoin:round;stroke:rgb(100%,49.803922%,5.490196%);stroke-opacity:0.501961;stroke-miterlimit:4;" d="M 0.000893 3.001223 C 0.794643 3.001223 1.560268 2.682473 2.122768 2.119973 C 2.685268 1.557473 3.000893 0.794973 3.000893 0.001223 C 3.000893 -0.795652 2.685268 -1.558152 2.122768 -2.120652 C 1.560268 -2.683152 0.794643 -2.998777 0.000893 -2.998777 C -0.795982 -2.998777 -1.558482 -2.683152 -2.120982 -2.120652 C -2.683482 -1.558152 -2.999107 -0.795652 -2.999107 0.001223 C -2.999107 0.794973 -2.683482 1.557473 -2.120982 2.119973 C -1.558482 2.682473 -0.795982 3.001223 0.000893 3.001223 Z M 0.000893 3.001223 " transform="matrix(1.25,0,0,1.25,248.369977,129.092221)"/>
<path style="fill-rule:nonzero;fill:rgb(100%,49.803922%,5.490196%);fill-opacity:0.501961;stroke-width:1;stroke-linecap:butt;stroke-linejoin:round;stroke:rgb(100%,49.803922%,5.490196%);stroke-opacity:0.501961;stroke-miterlimit:4;" d="M -0.000684 2.998475 C 0.796191 2.998475 1.558691 2.68285 2.121191 2.12035 C 2.683691 1.55785 2.999316 0.79535 2.999316 -0.001525 C 2.999316 -0.795275 2.683691 -1.557775 2.121191 -2.120275 C 1.558691 -2.682775 0.796191 -3.001525 -0.000684 -3.001525 C -0.794434 -3.001525 -1.560059 -2.682775 -2.122559 -2.120275 C -2.685059 -1.557775 -3.000684 -0.795275 -3.000684 -0.001525 C -3.000684 0.79535 -2.685059 1.55785 -2.122559 2.12035 C -1.560059 2.68285 -0.794434 2.998475 -0.000684 2.998475 Z M -0.000684 2.998475 " transform="matrix(1.25,0,0,1.25,248.79773,107.165969)"/>
<path style="fill-rule:nonzero;fill:rgb(100%,49.803922%,5.490196%);fill-opacity:0.501961;stroke-width:1;stroke-linecap:butt;stroke-linejoin:round;stroke:rgb(100%,49.803922%,5.490196%);stroke-opacity:0.501961;stroke-miterlimit:4;" d="M 0.000642 2.998774 C 0.794392 2.998774 1.560017 2.683149 2.122517 2.120649 C 2.685017 1.558149 3.000642 0.795649 3.000642 -0.001226 C 3.000642 -0.794976 2.685017 -1.557476 2.122517 -2.119976 C 1.560017 -2.682476 0.794392 -3.001226 0.000642 -3.001226 C -0.796233 -3.001226 -1.558733 -2.682476 -2.121233 -2.119976 C -2.683733 -1.557476 -2.999358 -0.794976 -2.999358 -0.001226 C -2.999358 0.795649 -2.683733 1.558149 -2.121233 2.120649 C -1.558733 2.683149 -0.796233 2.998774 0.000642 2.998774 Z M 0.000642 2.998774 " transform="matrix(1.25,0,0,1.25,251.546073,121.255439)"/>
<path style="fill-rule:nonzero;fill:rgb(100%,49.803922%,5.490196%);fill-opacity:0.501961;stroke-width:1;stroke-linecap:butt;stroke-linejoin:round;stroke:rgb(100%,49.803922%,5.490196%);stroke-opacity:0.501961;stroke-miterlimit:4;" d="M 0.000279 2.99904 C 0.797154 2.99904 1.559654 2.683415 2.122154 2.120915 C 2.684654 1.558415 3.000279 0.795915 3.000279 -0.00096 C 3.000279 -0.79471 2.684654 -1.55721 2.122154 -2.122835 C 1.559654 -2.685335 0.797154 -3.00096 0.000279 -3.00096 C -0.796596 -3.00096 -1.559096 -2.685335 -2.121596 -2.122835 C -2.684096 -1.55721 -2.999721 -0.79471 -2.999721 -0.00096 C -2.999721 0.795915 -2.684096 1.558415 -2.121596 2.120915 C -1.559096 2.683415 -0.796596 2.99904 0.000279 2.99904 Z M 0.000279 2.99904 " transform="matrix(1.25,0,0,1.25,256.538714,101.825419)"/>
<path style="fill-rule:nonzero;fill:rgb(100%,49.803922%,5.490196%);fill-opacity:0.501961;stroke-width:1;stroke-linecap:butt;stroke-linejoin:round;stroke:rgb(100%,49.803922%,5.490196%);stroke-opacity:0.501961;stroke-miterlimit:4;" d="M -0.00024 2.999124 C 0.796635 2.999124 1.559135 2.683499 2.121635 2.120999 C 2.684135 1.558499 2.99976 0.795999 2.99976 -0.000876 C 2.99976 -0.794626 2.684135 -1.560251 2.121635 -2.122751 C 1.559135 -2.685251 0.796635 -3.000876 -0.00024 -3.000876 C -0.797115 -3.000876 -1.559615 -2.685251 -2.122115 -2.122751 C -2.684615 -1.560251 -3.00024 -0.794626 -3.00024 -0.000876 C -3.00024 0.795999 -2.684615 1.558499 -2.122115 2.120999 C -1.559615 2.683499 -0.797115 2.999124 -0.00024 2.999124 Z M -0.00024 2.999124 " transform="matrix(1.25,0,0,1.25,257.383112,137.73547)"/>
<path style="fill-rule:nonzero;fill:rgb(100%,49.803922%,5.490196%);fill-opacity:0.501961;stroke-width:1;stroke-linecap:butt;stroke-linejoin:round;stroke:rgb(100%,49.803922%,5.490196%);stroke-opacity:0.501961;stroke-miterlimit:4;" d="M 0.000837 2.999816 C 0.794587 2.999816 1.560212 2.684191 2.122712 2.121691 C 2.685212 1.559191 3.000837 0.796691 3.000837 -0.000184 C 3.000837 -0.797059 2.685212 -1.559559 2.122712 -2.122059 C 1.560212 -2.684559 0.794587 -3.000184 0.000837 -3.000184 C -0.796038 -3.000184 -1.558538 -2.684559 -2.121038 -2.122059 C -2.683538 -1.559559 -2.999163 -0.797059 -2.999163 -0.000184 C -2.999163 0.796691 -2.683538 1.559191 -2.121038 2.121691 C -1.558538 2.684191 -0.796038 2.999816 0.000837 2.999816 Z M 0.000837 2.999816 " transform="matrix(1.25,0,0,1.25,259.381766,135.777574)"/>
<path style="fill-rule:nonzero;fill:rgb(100%,49.803922%,5.490196%);fill-opacity:0.501961;stroke-width:1;stroke-linecap:butt;stroke-linejoin:round;stroke:rgb(100%,49.803922%,5.490196%);stroke-opacity:0.501961;stroke-miterlimit:4;" d="M -0.00107 2.998471 C 0.795805 2.998471 1.558305 2.682846 2.120805 2.120346 C 2.683305 1.557846 2.99893 0.795346 2.99893 -0.001529 C 2.99893 -0.795279 2.683305 -1.557779 2.120805 -2.120279 C 1.558305 -2.682779 0.795805 -3.001529 -0.00107 -3.001529 C -0.79482 -3.001529 -1.55732 -2.682779 -2.11982 -2.120279 C -2.685445 -1.557779 -3.00107 -0.795279 -3.00107 -0.001529 C -3.00107 0.795346 -2.685445 1.557846 -2.11982 2.120346 C -1.55732 2.682846 -0.79482 2.998471 -0.00107 2.998471 Z M -0.00107 2.998471 " transform="matrix(1.25,0,0,1.25,260.110712,131.466755)"/>
<path style="fill-rule:nonzero;fill:rgb(100%,49.803922%,5.490196%);fill-opacity:0.501961;stroke-width:1;stroke-linecap:butt;stroke-linejoin:round;stroke:rgb(100%,49.803922%,5.490196%);stroke-opacity:0.501961;stroke-miterlimit:4;" d="M 0.00103 3.000212 C 0.79478 3.000212 1.55728 2.684587 2.11978 2.122087 C 2.685405 1.559587 3.00103 0.797087 3.00103 0.000212 C 3.00103 -0.796663 2.685405 -1.559163 2.11978 -2.121663 C 1.55728 -2.684163 0.79478 -2.999788 0.00103 -2.999788 C -0.795845 -2.999788 -1.558345 -2.684163 -2.120845 -2.121663 C -2.683345 -1.559163 -2.99897 -0.796663 -2.99897 0.000212 C -2.99897 0.797087 -2.683345 1.559587 -2.120845 2.122087 C -1.558345 2.684587 -0.795845 3.000212 0.00103 3.000212 Z M 0.00103 3.000212 " transform="matrix(1.25,0,0,1.25,262.721369,123.51536)"/>
<path style="fill-rule:nonzero;fill:rgb(100%,49.803922%,5.490196%);fill-opacity:0.501961;stroke-width:1;stroke-linecap:butt;stroke-linejoin:round;stroke:rgb(100%,49.803922%,5.490196%);stroke-opacity:0.501961;stroke-miterlimit:4;" d="M 0.000682 2.9994 C 0.794432 2.9994 1.560057 2.683775 2.122557 2.121275 C 2.685057 1.558775 3.000682 0.796275 3.000682 -0.0006 C 3.000682 -0.79435 2.685057 -1.559975 2.122557 -2.122475 C 1.560057 -2.684975 0.794432 -3.0006 0.000682 -3.0006 C -0.796193 -3.0006 -1.558693 -2.684975 -2.121193 -2.122475 C -2.683693 -1.559975 -2.999318 -0.79435 -2.999318 -0.0006 C -2.999318 0.796275 -2.683693 1.558775 -2.121193 2.121275 C -1.558693 2.683775 -0.796193 2.9994 0.000682 2.9994 Z M 0.000682 2.9994 " transform="matrix(1.25,0,0,1.25,265.667116,115.360125)"/>
<path style="fill-rule:nonzero;fill:rgb(100%,49.803922%,5.490196%);fill-opacity:0.501961;stroke-width:1;stroke-linecap:butt;stroke-linejoin:round;stroke:rgb(100%,49.803922%,5.490196%);stroke-opacity:0.501961;stroke-miterlimit:4;" d="M -0.001476 3.000714 C 0.795399 3.000714 1.557899 2.685089 2.120399 2.122589 C 2.682899 1.560089 2.998524 0.794464 2.998524 0.000714 C 2.998524 -0.796161 2.682899 -1.558661 2.120399 -2.121161 C 1.557899 -2.683661 0.795399 -2.999286 -0.001476 -2.999286 C -0.795226 -2.999286 -1.557726 -2.683661 -2.120226 -2.121161 C -2.682726 -1.558661 -3.001476 -0.796161 -3.001476 0.000714 C -3.001476 0.794464 -2.682726 1.560089 -2.120226 2.122589 C -1.557726 2.685089 -0.795226 3.000714 -0.001476 3.000714 Z M -0.001476 3.000714 " transform="matrix(1.25,0,0,1.25,265.685439,88.03817)"/>
<path style="fill-rule:nonzero;fill:rgb(100%,49.803922%,5.490196%);fill-opacity:0.501961;stroke-width:1;stroke-linecap:butt;stroke-linejoin:round;stroke:rgb(100%,49.803922%,5.490196%);stroke-opacity:0.501961;stroke-miterlimit:4;" d="M 0.000789 2.99957 C 0.794539 2.99957 1.560164 2.683945 2.122664 2.121445 C 2.685164 1.558945 3.000789 0.796445 3.000789 -0.00043 C 3.000789 -0.79418 2.685164 -1.559805 2.122664 -2.122305 C 1.560164 -2.684805 0.794539 -3.00043 0.000789 -3.00043 C -0.796086 -3.00043 -1.558586 -2.684805 -2.121086 -2.122305 C -2.683586 -1.559805 -2.999211 -0.79418 -2.999211 -0.00043 C -2.999211 0.796445 -2.683586 1.558945 -2.121086 2.121445 C -1.558586 2.683945 -0.796086 2.99957 0.000789 2.99957 Z M 0.000789 2.99957 " transform="matrix(1.25,0,0,1.25,270.979483,129.512256)"/>
<path style="fill-rule:nonzero;fill:rgb(100%,49.803922%,5.490196%);fill-opacity:0.501961;stroke-width:1;stroke-linecap:butt;stroke-linejoin:round;stroke:rgb(100%,49.803922%,5.490196%);stroke-opacity:0.501961;stroke-miterlimit:4;" d="M 0.001293 3.000115 C 0.795043 3.000115 1.557543 2.68449 2.120043 2.12199 C 2.682543 1.55949 3.001293 0.79699 3.001293 0.000115 C 3.001293 -0.79676 2.682543 -1.55926 2.120043 -2.12176 C 1.557543 -2.68426 0.795043 -2.999885 0.001293 -2.999885 C -0.795582 -2.999885 -1.558082 -2.68426 -2.120582 -2.12176 C -2.683082 -1.55926 -2.998707 -0.79676 -2.998707 0.000115 C -2.998707 0.79699 -2.683082 1.55949 -2.120582 2.12199 C -1.558082 2.68449 -0.795582 3.000115 0.001293 3.000115 Z M 0.001293 3.000115 " transform="matrix(1.25,0,0,1.25,279.236665,111.234231)"/>
<path style="fill-rule:nonzero;fill:rgb(100%,49.803922%,5.490196%);fill-opacity:0.501961;stroke-width:1;stroke-linecap:butt;stroke-linejoin:round;stroke:rgb(100%,49.803922%,5.490196%);stroke-opacity:0.501961;stroke-miterlimit:4;" d="M 0.000415 2.998743 C 0.794165 2.998743 1.55979 2.683118 2.12229 2.120618 C 2.68479 1.558118 3.000415 0.795618 3.000415 -0.001257 C 3.000415 -0.795007 2.68479 -1.557507 2.12229 -2.120007 C 1.55979 -2.682507 0.794165 -3.001257 0.000415 -3.001257 C -0.79646 -3.001257 -1.55896 -2.682507 -2.12146 -2.120007 C -2.68396 -1.557507 -2.999585 -0.795007 -2.999585 -0.001257 C -2.999585 0.795618 -2.68396 1.558118 -2.12146 2.120618 C -1.55896 2.683118 -0.79646 2.998743 0.000415 2.998743 Z M 0.000415 2.998743 " transform="matrix(1.25,0,0,1.25,286.940887,123.271103)"/>
<path style="fill-rule:nonzero;fill:rgb(100%,49.803922%,5.490196%);fill-opacity:0.501961;stroke-width:1;stroke-linecap:butt;stroke-linejoin:round;stroke:rgb(100%,49.803922%,5.490196%);stroke-opacity:0.501961;stroke-miterlimit:4;" d="M 0.001358 3.000794 C 0.795108 3.000794 1.557608 2.685169 2.120108 2.122669 C 2.682608 1.560169 3.001358 0.794544 3.001358 0.000794 C 3.001358 -0.796081 2.682608 -1.558581 2.120108 -2.121081 C 1.557608 -2.683581 0.795108 -2.999206 0.001358 -2.999206 C -0.795517 -2.999206 -1.558017 -2.683581 -2.120517 -2.121081 C -2.683017 -1.558581 -2.998642 -0.796081 -2.998642 0.000794 C -2.998642 0.794544 -2.683017 1.560169 -2.120517 2.122669 C -1.558017 2.685169 -0.795517 3.000794 0.001358 3.000794 Z M 0.001358 3.000794 " transform="matrix(1.25,0,0,1.25,288.529553,104.077133)"/>
<path style="fill-rule:nonzero;fill:rgb(100%,49.803922%,5.490196%);fill-opacity:0.501961;stroke-width:1;stroke-linecap:butt;stroke-linejoin:round;stroke:rgb(100%,49.803922%,5.490196%);stroke-opacity:0.501961;stroke-miterlimit:4;" d="M -0.000723 2.999786 C 0.796152 2.999786 1.558652 2.684161 2.121152 2.121661 C 2.683652 1.559161 2.999277 0.796661 2.999277 -0.000214 C 2.999277 -0.797089 2.683652 -1.559589 2.121152 -2.122089 C 1.558652 -2.684589 0.796152 -3.000214 -0.000723 -3.000214 C -0.794473 -3.000214 -1.560098 -2.684589 -2.122598 -2.122089 C -2.685098 -1.559589 -3.000723 -0.797089 -3.000723 -0.000214 C -3.000723 0.796661 -2.685098 1.559161 -2.122598 2.121661 C -1.560098 2.684161 -0.794473 2.999786 -0.000723 2.999786 Z M -0.000723 2.999786 " transform="matrix(1.25,0,0,1.25,292.180591,127.273705)"/>
<path style="fill:none;stroke-width:0.8;stroke-linecap:square;stroke-linejoin:miter;stroke:rgb(0%,0%,0%);stroke-opacity:1;stroke-miterlimit:4;" d="M 42.61875 146.9 L 42.61875 11 " transform="matrix(1.25,0,0,1.25,0,0)"/>
<path style="fill:none;stroke-width:0.8;stroke-linecap:square;stroke-linejoin:miter;stroke:rgb(0%,0%,0%);stroke-opacity:1;stroke-miterlimit:4;" d="M 237.921875 146.9 L 237.921875 11 " transform="matrix(1.25,0,0,1.25,0,0)"/>
<path style="fill:none;stroke-width:0.8;stroke-linecap:square;stroke-linejoin:miter;stroke:rgb(0%,0%,0%);stroke-opacity:1;stroke-miterlimit:4;" d="M 42.61875 146.9 L 237.921875 146.9 " transform="matrix(1.25,0,0,1.25,0,0)"/>
<path style="fill:none;stroke-width:0.8;stroke-linecap:square;stroke-linejoin:miter;stroke:rgb(0%,0%,0%);stroke-opacity:1;stroke-miterlimit:4;" d="M 42.61875 11 L 237.921875 11 " transform="matrix(1.25,0,0,1.25,0,0)"/>
<use xlink:href="#surface5" mask="url(#mask0)"/>
<path style="fill:none;stroke-width:1.5;stroke-linecap:square;stroke-linejoin:round;stroke:rgb(12.156863%,46.666667%,70.588235%);stroke-opacity:1;stroke-miterlimit:4;" d="M 175.58125 24.096875 L 195.58125 24.096875 " transform="matrix(1.25,0,0,1.25,0,0)"/>
<path style=" stroke:none;fill-rule:nonzero;fill:rgb(0%,0%,0%);fill-opacity:1;" d="M 254.4375 25.382812 L 262.148438 25.382812 L 262.148438 26.421875 L 258.914062 26.421875 L 258.914062 34.496094 L 257.675781 34.496094 L 257.675781 26.421875 L 254.4375 26.421875 Z M 254.4375 25.382812 "/>
<path style=" stroke:none;fill-rule:nonzero;fill:rgb(0%,0%,0%);fill-opacity:1;" d="M 265.40625 28.710938 C 265.28125 28.636719 265.144531 28.582031 264.996094 28.550781 C 264.847656 28.515625 264.683594 28.496094 264.503906 28.496094 C 263.871094 28.496094 263.382812 28.703125 263.042969 29.117188 C 262.703125 29.527344 262.53125 30.121094 262.53125 30.894531 L 262.53125 34.496094 L 261.402344 34.496094 L 261.402344 27.660156 L 262.53125 27.660156 L 262.53125 28.722656 C 262.769531 28.308594 263.078125 28 263.453125 27.800781 C 263.832031 27.597656 264.292969 27.496094 264.835938 27.496094 C 264.910156 27.496094 264.996094 27.503906 265.089844 27.511719 C 265.183594 27.523438 265.289062 27.535156 265.402344 27.558594 Z M 265.40625 28.710938 "/>
<path style=" stroke:none;fill-rule:nonzero;fill:rgb(0%,0%,0%);fill-opacity:1;" d="M 266.46875 31.800781 L 266.46875 27.660156 L 267.59375 27.660156 L 267.59375 31.757812 C 267.59375 32.402344 267.71875 32.890625 267.96875 33.214844 C 268.222656 33.535156 268.601562 33.699219 269.105469 33.699219 C 269.710938 33.699219 270.191406 33.503906 270.542969 33.117188 C 270.894531 32.730469 271.070312 32.203125 271.070312 31.535156 L 271.070312 27.660156 L 272.195312 27.660156 L 272.195312 34.496094 L 271.070312 34.496094 L 271.070312 33.445312 C 270.800781 33.863281 270.484375 34.171875 270.121094 34.371094 C 269.761719 34.574219 269.34375 34.675781 268.867188 34.675781 C 268.082031 34.675781 267.488281 34.429688 267.078125 33.941406 C 266.671875 33.453125 266.46875 32.738281 266.46875 31.800781 Z M 269.296875 27.496094 Z M 269.296875 27.496094 "/>
<path style=" stroke:none;fill-rule:nonzero;fill:rgb(0%,0%,0%);fill-opacity:1;" d="M 275.617188 25.71875 L 275.617188 27.660156 L 277.929688 27.660156 L 277.929688 28.535156 L 275.617188 28.535156 L 275.617188 32.246094 C 275.617188 32.800781 275.695312 33.160156 275.847656 33.320312 C 276 33.476562 276.308594 33.558594 276.777344 33.558594 L 277.929688 33.558594 L 277.929688 34.496094 L 276.777344 34.496094 C 275.910156 34.496094 275.3125 34.335938 274.984375 34.011719 C 274.65625 33.6875 274.488281 33.097656 274.488281 32.246094 L 274.488281 28.535156 L 273.664062 28.535156 L 273.664062 27.660156 L 274.488281 27.660156 L 274.488281 25.71875 Z M 275.617188 25.71875 "/>
<path style=" stroke:none;fill-rule:nonzero;fill:rgb(0%,0%,0%);fill-opacity:1;" d="M 285.09375 30.371094 L 285.09375 34.496094 L 283.96875 34.496094 L 283.96875 30.40625 C 283.96875 29.761719 283.84375 29.277344 283.589844 28.957031 C 283.335938 28.632812 282.960938 28.472656 282.457031 28.472656 C 281.847656 28.472656 281.371094 28.667969 281.019531 29.054688 C 280.667969 29.4375 280.496094 29.964844 280.496094 30.632812 L 280.496094 34.496094 L 279.367188 34.496094 L 279.367188 25 L 280.496094 25 L 280.496094 28.722656 C 280.765625 28.3125 281.082031 28.003906 281.445312 27.800781 C 281.808594 27.597656 282.230469 27.496094 282.707031 27.496094 C 283.492188 27.496094 284.085938 27.738281 284.488281 28.226562 C 284.890625 28.710938 285.09375 29.425781 285.09375 30.371094 Z M 285.09375 30.371094 "/>
<path style="fill:none;stroke-width:1.5;stroke-linecap:butt;stroke-linejoin:round;stroke:rgb(74.901961%,0%,74.901961%);stroke-opacity:1;stroke-dasharray:5.55,2.4;stroke-miterlimit:4;" d="M 175.58125 38.775 L 195.58125 38.775 " transform="matrix(1.25,0,0,1.25,0,0)"/>
<path style=" stroke:none;fill-rule:nonzero;fill:rgb(0%,0%,0%);fill-opacity:1;" d="M 256.9375 44.746094 L 256.9375 48.167969 L 258.484375 48.167969 C 259.0625 48.167969 259.503906 48.019531 259.816406 47.722656 C 260.128906 47.425781 260.289062 47.003906 260.289062 46.453125 C 260.289062 45.910156 260.128906 45.488281 259.816406 45.191406 C 259.503906 44.894531 259.0625 44.746094 258.484375 44.746094 Z M 255.703125 43.730469 L 258.484375 43.730469 C 259.507812 43.730469 260.28125 43.960938 260.804688 44.425781 C 261.328125 44.886719 261.585938 45.5625 261.585938 46.453125 C 261.585938 47.355469 261.328125 48.035156 260.804688 48.492188 C 260.28125 48.953125 259.507812 49.183594 258.484375 49.183594 L 256.9375 49.183594 L 256.9375 52.84375 L 255.703125 52.84375 Z M 255.703125 43.730469 "/>
<path style=" stroke:none;fill-rule:nonzero;fill:rgb(0%,0%,0%);fill-opacity:1;" d="M 266.933594 47.058594 C 266.808594 46.984375 266.671875 46.929688 266.523438 46.898438 C 266.375 46.863281 266.210938 46.84375 266.03125 46.84375 C 265.398438 46.84375 264.910156 47.050781 264.570312 47.464844 C 264.230469 47.875 264.058594 48.46875 264.058594 49.242188 L 264.058594 52.84375 L 262.929688 52.84375 L 262.929688 46.007812 L 264.058594 46.007812 L 264.058594 47.070312 C 264.296875 46.65625 264.605469 46.347656 264.980469 46.148438 C 265.359375 45.945312 265.820312 45.84375 266.363281 45.84375 C 266.4375 45.84375 266.523438 45.851562 266.617188 45.859375 C 266.710938 45.871094 266.816406 45.882812 266.929688 45.90625 Z M 266.933594 47.058594 "/>
<path style=" stroke:none;fill-rule:nonzero;fill:rgb(0%,0%,0%);fill-opacity:1;" d="M 273.679688 49.144531 L 273.679688 49.695312 L 268.515625 49.695312 C 268.5625 50.46875 268.796875 51.058594 269.214844 51.460938 C 269.628906 51.867188 270.210938 52.070312 270.957031 52.070312 C 271.386719 52.070312 271.804688 52.015625 272.210938 51.910156 C 272.613281 51.804688 273.015625 51.648438 273.417969 51.433594 L 273.417969 52.496094 C 273.011719 52.667969 272.601562 52.796875 272.175781 52.886719 C 271.753906 52.976562 271.324219 53.023438 270.890625 53.023438 C 269.796875 53.023438 268.933594 52.707031 268.296875 52.070312 C 267.660156 51.4375 267.34375 50.578125 267.34375 49.492188 C 267.34375 48.375 267.644531 47.488281 268.25 46.832031 C 268.851562 46.171875 269.667969 45.84375 270.695312 45.84375 C 271.613281 45.84375 272.339844 46.140625 272.875 46.734375 C 273.410156 47.324219 273.679688 48.128906 273.679688 49.144531 Z M 272.554688 48.816406 C 272.546875 48.203125 272.375 47.710938 272.039062 47.347656 C 271.703125 46.980469 271.257812 46.796875 270.707031 46.796875 C 270.078125 46.796875 269.578125 46.972656 269.203125 47.328125 C 268.824219 47.679688 268.609375 48.179688 268.550781 48.824219 Z M 272.554688 48.816406 "/>
<path style=" stroke:none;fill-rule:nonzero;fill:rgb(0%,0%,0%);fill-opacity:1;" d="M 280.019531 47.046875 L 280.019531 43.347656 L 281.144531 43.347656 L 281.144531 52.84375 L 280.019531 52.84375 L 280.019531 51.820312 C 279.785156 52.226562 279.484375 52.527344 279.125 52.726562 C 278.765625 52.921875 278.332031 53.023438 277.828125 53.023438 C 277.003906 53.023438 276.332031 52.691406 275.8125 52.035156 C 275.292969 51.375 275.035156 50.507812 275.035156 49.433594 C 275.035156 48.359375 275.292969 47.492188 275.8125 46.832031 C 276.332031 46.175781 277.003906 45.84375 277.828125 45.84375 C 278.332031 45.84375 278.765625 45.945312 279.125 46.140625 C 279.484375 46.339844 279.785156 46.640625 280.019531 47.046875 Z M 276.195312 49.433594 C 276.195312 50.257812 276.363281 50.90625 276.703125 51.375 C 277.042969 51.847656 277.511719 52.082031 278.105469 52.082031 C 278.699219 52.082031 279.164062 51.847656 279.507812 51.375 C 279.847656 50.90625 280.019531 50.257812 280.019531 49.433594 C 280.019531 48.605469 279.847656 47.960938 279.507812 47.488281 C 279.164062 47.019531 278.699219 46.785156 278.105469 46.785156 C 277.511719 46.785156 277.042969 47.019531 276.703125 47.488281 C 276.363281 47.960938 276.195312 48.605469 276.195312 49.433594 Z M 276.195312 49.433594 "/>
</g>
</svg>
